<ttFont>
          <CharString index="0">
            rmoveto
            -62 256 62 vlineto
            -83 11 7 21 29 86 rlineto
            203 hlineto
            34 -106 -79 -12 rlineto
            -62 307 61 vlineto
            -69 13 -217 581 rlineto
            -121 hlineto
            -201 -581 rlineto
            322 186 rmoveto
            -152 hlineto
            71 212 3 24 rlineto
            5 hlineto
            3 -24 rlineto
            return
          </CharString>
          <CharString index="1">
            rmoveto
            -2 callgsubr
            -141 -96 -99 -172 -190 87 -60 154 hvcurveto
            -99 301 rmoveto
            78 3 15 59 70 hhcurveto
            58 8 -31 -66 -8 -1 -12 -2 -12 hvcurveto
            return
          </CharString>
          <CharString index="2">
            rmoveto
            132 126 60 98 82 -52 23 -103 17 hvcurveto
            -117 19 rlineto
            40 14 vlineto
            121 90 71 100 28 -10 35 -22 31 hvcurveto
            17 11 -8 -10 14 hvcurveto
            20 -14 rlineto
            13 7 28 23 35 vvcurveto
            31 -16 18 -35 -35 -46 -27 -14 -17 vhcurveto
            18 -29 -37 11 -48 hhcurveto
            -120 -94 -58 -120 -60 37 -70 85 -20 hvcurveto
            -27 -15 -32 -30 -35 vvcurveto
            -16 4 -15 9 -12 vhcurveto
            -39 -24 -49 -35 -53 vvcurveto
            -80 84 -31 123 vhcurveto
            5 411 rmoveto
            -52 -9 22 71 78 13 18 53 54 8 -26 -64 -83 -15 -16 -52 hvcurveto
            17 -341 rmoveto
            -84 -26 18 40 27 9 21 9 18 hvcurveto
            155 -24 rlineto
            43 -7 7 -19 -24 vvcurveto
            -29 -29 -21 -84 vhcurveto
            endchar
          </CharString>
          <CharString index="3">
            -107 callsubr
            endchar
          </CharString>
          <CharString index="4">
            rmoveto
            52 34 41 47 49 -34 29 -44 -47 -38 -40 -46 -47 33 -33 44 hvcurveto
            return
          </CharString>
          <CharString index="5">
            rmoveto
            32 -42 117 71 121 -72 40 47 -108 108 rlineto
            15 -15 -15 12 -15 hhcurveto
            -19 -19 -17 -18 -18 hvcurveto
            return
          </CharString>
          <CharString index="6">
            rmoveto
            69 7 -5 20 12 3 27 12 rlinecurve
            36 18 13 22 23 -81 callsubr
            -5 -16 -16 -13 -8 -12 -7 hvcurveto
            -29 -16 -11 -10 -12 vvcurveto
            -7 4 -9 7 -11 vhcurveto
            return
          </CharString>
          <CharString index="7">
            -48 callsubr
            188 61 15 callsubr
            -20 callsubr
            -170 -34 -39 -96 -82 callsubr
            return
          </CharString>
          <CharString index="8">
            vvcurveto
            51 -48 28 -82 -58 -21 -14 -21 -8 3 -14 16 -18 vhcurveto
            5 18 18 3 18 hhcurveto
            return
          </CharString>
          <CharString index="9">
            rmoveto
            -60 vlineto
            76 -9 -4 -12 -83 -237 -12 -34 rlineto
            23 vlineto
            -85 249 -4 11 67 9 rlineto
            60 -281 -56 vlineto
            73 -13 162 -427 rlineto
            18 hlineto
            -26 -74 -139 -34 rlineto
            -56 vlineto
            -5 21 35 -4 27 hhcurveto
            82 35 18 54 20 hvcurveto
            192 528 66 9 rlineto
            60 vlineto
            return
          </CharString>
          <CharString index="10">
            rmoveto
            -89 callgsubr
            -36 -36 -37 -43 -30 vhcurveto
            112 -79 callsubr
            28 -45 175 21 callgsubr
            -79 16 rlineto
            248 vlineto
            134 74 37 58 46 vvcurveto
            return
          </CharString>
          <CharString index="11">
            259 -10 callgsubr
            372 4 vlineto
            4 -15 284 -432 rlineto
            123 573 hlineto
            -54 callgsubr
            80 -18 rlineto
            -355 -4 vlineto
            -4 15 -263 415 rlineto
            -210 -61 hlineto
            66 -13 rlineto
            -499 21 callsubr
            return
          </CharString>
          <CharString index="12">
            rmoveto
            15 callgsubr
            hvcurveto
            298 vlineto
            112 48 24 59 35 -44 callsubr
            -31 -6 -8 -63 vhcurveto
            -154 -57 hlineto
            79 -18 -20 callsubr
            -170 -34 -39 -96 -111 -35 34 175 vhcurveto
            6 callgsubr
            vhcurveto
            return
          </CharString>
          <CharString index="13">
            -93 callsubr
            endchar
          </CharString>
          <CharString index="14">
            5 callgsubr
            344 -96 callgsubr
            -340 23 callsubr
            return
          </CharString>
          <CharString index="15">
            rmoveto
            -89 callgsubr
            -34 -33 -35 -40 -29 vhcurveto
            84 -50 -88 43 -121 hhcurveto
            -206 -125 -146 -207 -218 110 -113 196 209 122 146 207 66 -10 56 -19 47 hvcurveto
            115 67 32 54 43 vvcurveto
            -430 -603 -46 callgsubr
          </CharString>
          <CharString index="16">
            rmoveto
            -75 -30 rlineto
            0 28 -139 144 135 24 152 0 vhcurveto
            -41 17 rlineto
            0 -24 -80 -88 -85 -18 80 0 vhcurveto
            return
          </CharString>
          <CharString index="17">
            -89 callsubr
            endchar
          </CharString>
          <CharString index="18">
            rmoveto
            -56 302 56 vlineto
            -90 callgsubr
            return
          </CharString>
          <CharString index="19">
            -38 callsubr
            -302 -49 callgsubr
            return
          </CharString>
          <CharString index="20">
            92 -30 rlineto
            -8 26 29 -9 24 hhcurveto
            29 23 12 28 17 hvcurveto
            39 63 -35 33 -75 -38 -89 30 rlineto
            8 -25 -33 8 -35 callgsubr
            return
          </CharString>
          <CharString index="21">
            vlineto
            -83 callgsubr
            return
          </CharString>
          <CharString index="22">
            rmoveto
            128 hlineto
            153 485 2 24 rlineto
            5 hlineto
            4 -24 158 -485 rlineto
            128 hlineto
            163 586 64 12 rlineto
            62 -256 -62 vlineto
            86 -12 -2 -9 -96 -391 -4 -24 rlineto
            -5 hlineto
            -2 24 -149 474 rlineto
            -151 hlineto
            -140 -474 -4 -24 rlineto
            -5 hlineto
            -2 24 -93 390 -2 10 82 12 rlineto
            62 -301 -61 vlineto
            66 -13 rlineto
            endchar
          </CharString>
          <CharString index="23">
            -56 302 56 vlineto
            -73 callsubr
            return
          </CharString>
          <CharString index="24">
            -71 callsubr
            71 39 -34 callgsubr
            return
          </CharString>
          <CharString index="25">
            -111 -35 34 175 vhcurveto
            295 vlineto
            74 -47 callsubr
            -296 -56 vlineto
            return
          </CharString>
          <CharString index="26">
            -99 callsubr
            26 12 return
          </CharString>
          <CharString index="27">
            -92 callgsubr
            -225 -67 callgsubr
            return
          </CharString>
          <CharString index="28">
            -81 callgsubr
            -320 vlineto
            -7 -16 -32 -6 -26 27 callgsubr
            -175 -23 rlineto
            -58 vlineto
            80 -16 rlineto
            -280 -13 callgsubr
            36 vhcurveto
            9 hlineto
            return
          </CharString>
          <CharString index="29">
            6 44 29 hvcurveto
            35 53 -38 36 -72 -38 -100 33 rlineto
            8 -24 -13 2 -20 hhcurveto
            -29 -29 -5 -44 -29 hvcurveto
            return
          </CharString>
          <CharString index="30">
            561 -103 callsubr
            return
          </CharString>
          <CharString index="31">
            10 callsubr
            42 vlineto
            122 -231 rlineto
            -26 14 15 -7 30 hhcurveto
            150 56 hlineto
            -74 17 -124 214 rlineto
            82 30 50 59 89 vvcurveto
            143 -87 40 -160 vhcurveto
            -282 -32 callsubr
            222 284 rmoveto
            228 vlineto
            2 9 22 2 20 hhcurveto
            86 21 -34 -73 -84 -47 -41 -81 hvcurveto
            return
          </CharString>
          <CharString index="32">
            -176 -85 callgsubr
            return
          </CharString>
          <CharString index="33">
            -13 callsubr
            423 -86 callsubr
            -340 vlineto
            return
          </CharString>
          <CharString index="34">
            -28 callsubr
            498 -91 callgsubr
            return
          </CharString>
          <CharString index="35">
            882 rmoveto
            28 30 5 35 29 hvcurveto
            35 42 -38 29 -72 -30 -100 26 rlineto
            7 -24 -13 1 -20 hhcurveto
            -29 -29 -4 -35 -29 hvcurveto
            -35 -42 39 -30 71 31 100 -26 rlineto
            -7 24 13 -2 20 hhcurveto
            -248 -170 -101 callgsubr
            return
          </CharString>
          <CharString index="36">
            -78 callsubr
            -35 -53 39 -37 return
          </CharString>
          <CharString index="37">
            319 hlineto
            191 132 131 201 212 -120 104 -209 hvcurveto
            -313 -32 callsubr
            254 20 rmoveto
            -32 496 52 hlineto
            109 96 -27 -202 -213 -44 -54 -181 hvcurveto
            return
          </CharString>
          <CharString index="38">
            rmoveto
            -23 -119 rlineto
            -10 -22 -37 -13 -49 hhcurveto
            -109 -54 45 209 197 41 66 121 46 38 -11 -7 22 hvcurveto
            21 -105 rlineto
            75 180 hlineto
            10 -37 -79 17 -88 hhcurveto
            -191 -132 -149 -201 -212 99 -122 201 120 72 28 17 39 hvcurveto
            180 vlineto
            endchar
          </CharString>
          <CharString index="39">
            176 109 rlineto
            56 -38 31 -24 return
          </CharString>
          <CharString index="40">
            47 31 38 43 44 -31 27 -40 -43 -35 -37 -42 -43 30 -30 41 hvcurveto
            return
          </CharString>
          <CharString index="41">
            23 -23 29 -6 rlineto
            16 -3 7 -6 -14 vvcurveto
            -21 -15 -4 -20 -22 -16 3 10 -23 vhcurveto
            -20 -47 rlineto
            -13 25 22 -6 37 hhcurveto
            endchar
          </CharString>
          <CharString index="42">
            550 rmoveto
            75 30 rlineto
            0 -28 139 -144 -135 -24 -152 0 vhcurveto
            41 -17 rlineto
            0 24 80 88 85 18 -80 0 vhcurveto
            return
          </CharString>
          <CharString index="43">
            696 rmoveto
            75 55 rlineto
            0 -45 100 -150 -122 -52 -117 0 vhcurveto
            45 -32 rlineto
            0 39 56 90 84 36 -62 0 vhcurveto
            return
          </CharString>
          <CharString index="44">
            -21 -102 rlineto
            -247 11 hlineto
            332 485 rlineto
            76 -493 -178 70 vlineto
            20 102 rlineto
            233 -13 hlineto
            return
          </CharString>
          <CharString index="45">
            rmoveto
            83 39 37 53 hvcurveto
            -55 callsubr
            -102 -23 rlineto
            -6 callgsubr
            vhcurveto
            endchar
          </CharString>
          <CharString index="46">
            14 -175 -23 rlineto
            -58 vlineto
            return
          </CharString>
          <CharString index="47">
            -49 176 21 callgsubr
            -81 16 rlineto
            596 27 callsubr
            -16 rlineto
            -58 vlineto
            81 -23 rlineto
            -109 vlineto
            9 -9 -4 -3 rlineto
            13 -19 -32 15 -48 hhcurveto
            -115 -106 -89 -199 -161 75 -72 114 hvcurveto
            return
          </CharString>
          <CharString index="48">
            36 -43 -68 callsubr
            return
          </CharString>
          <CharString index="49">
            rmoveto
            -297 vlineto
            -88 32 -47 105 vhcurveto
            79 64 54 -1 hhcurveto
            -17 51 rlineto
            0 -38 -16 -38 -33 -21 10 54 vhcurveto
            279 127 vlineto
            14 30 rlineto
            46 -141 131 -88 vlineto
            -44 -121 -96 -21 rlineto
            -65 vlineto
            return
          </CharString>
          <CharString index="50">
            -91 callgsubr
            -498 vlineto
            return
          </CharString>
          <CharString index="51">
            rmoveto
            -67 callsubr
            return
          </CharString>
          <CharString index="52">
            571 -86 callsubr
            -486 vlineto
            return
          </CharString>
          <CharString index="53">
            rmoveto
            44 hlineto
            0 67 66 67 vvcurveto
            24 -17 32 -42 -18 -20 -6 -16 -14 vhcurveto
            8 -8 8 -27 -25 vvcurveto
            -28 -6 -48 -10 -31 vhcurveto
            return
          </CharString>
          <CharString index="54">
            55 rmoveto
            -55 271 55 vlineto
            -60 14 rlineto
            168 19 vlineto
            103 -184 rlineto
            7 -11 3 -10 -13 vvcurveto
            -19 210 55 vlineto
            -87 25 -126 217 107 133 72 return
          </CharString>
          <CharString index="55">
            rlineto
            80 -397 -149 71 vlineto
            22 73 rlineto
            143 hlineto
            return
          </CharString>
          <CharString index="56">
            134 153 rlineto
            38 -17 -31 20 -21 hhcurveto
            -27 -11 -23 -22 -11 hvcurveto
            return
          </CharString>
          <CharString index="57">
            -52 callsubr
            -248 -340 rlineto
            return
          </CharString>
          <CharString index="58">
            rmoveto
            32 75 rlineto
            -4 21 23 -3 26 hhcurveto
            188 60 134 143 101 -32 80 -72 40 hvcurveto
            26 59 -64 29 -29 -66 rlineto
            3 -17 -18 2 -19 hhcurveto
            -184 -71 -133 -138 -105 27 -77 68 -41 hvcurveto
            -31 -70 rlineto
            85 193 rmoveto
            -6 28 -1 34 43 vvcurveto
            126 13 55 89 10 10 -1 -2 8 vhcurveto
            -23 -361 rmoveto
            -22 -17 3 6 -14 hvcurveto
            130 297 rlineto
            9 -29 3 -40 -54 vvcurveto
            -113 -8 -70 -81 vhcurveto
            endchar
          </CharString>
          <CharString index="59">
            rmoveto
            -65 callgsubr
            return
          </CharString>
          <CharString index="60">
            19 rlineto
            56 return
          </CharString>
          <CharString index="61">
            319 hlineto
            191 132 131 201 212 -120 104 -209 hvcurveto
            -313 -32 callsubr
            682 20 rmoveto
            -76 508 178 -70 vlineto
            -63 callsubr
            -760 -483 rmoveto
            -32 496 52 hlineto
            109 96 -27 -202 -213 -44 -54 -181 hvcurveto
            endchar
          </CharString>
          <CharString index="62">
            194 33 hmoveto
            314 84 hlineto
            -84 75 -25 63 128 vvcurveto
            177 48 55 102 110 50 -69 -164 -164 -70 -60 -45 -41 vhcurveto
            -84 314 188 -66 vlineto
            -27 -104 rlineto
            -111 hlineto
            3 2 rlineto
            49 35 117 92 152 vvcurveto
            187 -118 114 -196 -206 -118 -145 -158 -128 58 -92 98 -57 vhcurveto
            4 -2 rlineto
            -108 hlineto
            -27 104 rlineto
            -66 hlineto
            endchar
          </CharString>
          <CharString index="63">
            vvcurveto
            -89 callgsubr
            return
          </CharString>
          <CharString index="64">
            rmoveto
            -13 -83 rlineto
            346 hlineto
            13 83 rlineto
            return
          </CharString>
          <CharString index="65">
            rmoveto
            -95 -12 57 126 126 13 55 89 78 16 -53 -128 -113 -8 -70 -81 hvcurveto
            endchar
          </CharString>
          <CharString index="66">
            27 -14 callgsubr
            66 188 -553 -188 66 hlineto
            27 112 rlineto
            114 return
          </CharString>
          <CharString index="67">
            hvcurveto
            120 100 -29 42 -139 -62 return
          </CharString>
          <CharString index="68">
            -5 callsubr
            71 323 -12 callgsubr
            377 -423 rmoveto
            -34 callsubr
            return
          </CharString>
          <CharString index="69">
            80 -47 callsubr
            return
          </CharString>
          <CharString index="70">
            -107 callsubr
            12 -678 -103 callsubr
            endchar
          </CharString>
          <CharString index="71">
            550 rmoveto
            46 -31 139 153 rlineto
            47 -13 -36 21 -24 hhcurveto
            -24 -14 -22 -30 -14 hvcurveto
            return
          </CharString>
          <CharString index="72">
            -60 callsubr
            50 88 -47 callgsubr
            return
          </CharString>
          <CharString index="73">
            118 42 70 91 95 -36 66 -114 -111 -50 -69 -94 -88 33 -71 118 hvcurveto
            return
          </CharString>
          <CharString index="74">
            rmoveto
            -51 28 -37 75 75 34 43 51 50 -28 40 -74 -78 -32 -46 -50 vhcurveto
            107 -40 rmoveto
            -22 -11 5 39 32 8 10 23 21 12 -5 -37 -33 -8 -11 -23 hvcurveto
            return
          </CharString>
          <CharString index="75">
            -64 callgsubr
            -80 -19 rlineto
            return
          </CharString>
          <CharString index="76">
            6 callgsubr
            vhcurveto
            endchar
          </CharString>
          <CharString index="77">
            721 rmoveto
            25 -50 220 68 rlineto
            3 12 2 12 11 vvcurveto
            37 -17 33 -38 -15 -19 -14 -10 -18 vhcurveto
            return
          </CharString>
          <CharString index="78">
            -34 callgsubr
            28 30 -78 callsubr
            return
          </CharString>
          <CharString index="79">
            -80 19 rlineto
            return
          </CharString>
          <CharString index="80">
            -56 302 -10 callsubr
            return
          </CharString>
          <CharString index="81">
            -67 callgsubr
            endchar
          </CharString>
          <CharString index="82">
            -50 -9 33 62 66 16 29 42 44 15 -20 -75 -63 -9 -32 -49 hvcurveto
            return
          </CharString>
          <CharString index="83">
            -48 callsubr
            173 76 15 callsubr
            -2 -295 rlineto
            -170 -1 -26 -39 -101 hhcurveto
            -111 -35 34 175 hvcurveto
            23 callgsubr
          </CharString>
          <CharString index="84">
            7 callsubr
            262 340 -52 callsubr
            return
          </CharString>
          <CharString index="85">
            538 rmoveto
            40 47 -108 108 rlineto
            15 -15 -15 12 -15 hhcurveto
            -19 -19 -17 -18 -18 hvcurveto
            -101 -104 32 -42 117 71 rlineto
            return
          </CharString>
          <CharString index="86">
            -13 callsubr
            423 vlineto
            -37 14 -174 -23 rlineto
            -58 vlineto
            79 -16 rlineto
            -340 vlineto
            return
          </CharString>
          <CharString index="87">
            rlineto
            -295 vlineto
            return
          </CharString>
          <CharString index="88">
            rmoveto
            -47 -38 -40 -46 -47 33 -33 44 52 34 41 47 49 -34 29 -44 hvcurveto
            endchar
          </CharString>
          <CharString index="89">
            rmoveto
            -27 callsubr
            return
          </CharString>
          <CharString index="90">
            18 callsubr
            20 78 -22 75 hhcurveto
            return
          </CharString>
          <CharString index="91">
            25 -215 rlineto
            56 hlineto
            23 128 rlineto
            2 12 7 40 11 vvcurveto
            26 -15 13 -40 -28 -30 -15 0 vhcurveto
            return
          </CharString>
          <CharString index="92">
            563 rmoveto
            29 23 12 28 17 hvcurveto
            39 63 -35 33 -75 -38 -89 30 rlineto
            8 -25 -33 8 -35 callgsubr
            17 callsubr
            return
          </CharString>
          <CharString index="93">
            rmoveto
            -5 callgsubr
            25 -50 rlineto
            return
          </CharString>
          <CharString index="94">
            -70 14 rlineto
            return
          </CharString>
          <CharString index="95">
            2 callsubr
            -75 -18 rlineto
            -65 75 -353 23 callsubr
            endchar
          </CharString>
          <CharString index="96">
            15 20 hmoveto
            570 78 hlineto
            -225 570 rlineto
            -98 hlineto
            -123 -568 rmoveto
            3 7 141 378 3 24 rlineto
            5 hlineto
            3 -24 139 -377 3 -8 rlineto
            endchar
          </CharString>
          <CharString index="97">
            56 vlineto
            -28 callsubr
            return
          </CharString>
          <CharString index="98">
            561 rmoveto
            75 34 43 51 50 -28 40 -74 -78 -32 -46 -50 -51 28 -37 75 hvcurveto
            4 48 rmoveto
            -22 -11 5 39 32 8 10 23 21 12 -5 -37 -33 -8 -11 -23 hvcurveto
            return
          </CharString>
          <CharString index="99">
            7 -165 rmoveto
            301 57 hlineto
            -100 14 rlineto
            110 vlineto
            -9 9 3 3 rlineto
            -21 27 36 -12 38 hhcurveto
            131 89 118 175 140 -64 81 -112 -48 return
          </CharString>
          <CharString index="100">
            -13 callsubr
            616 -86 callsubr
            -533 vlineto
            return
          </CharString>
          <CharString index="101">
            vlineto
            -69 -14 rlineto
            262 182 rmoveto
            -23 -21 4 8 -17 hvcurveto
            322 vlineto
            10 23 27 5 25 hhcurveto
            72 26 -44 -123 -131 -31 -51 -81 hvcurveto
            endchar
          </CharString>
          <CharString index="102">
            -32 rmoveto
            471 675 -74 52 -469 -675 rlineto
            return
          </CharString>
          <CharString index="103">
            hvcurveto
            9 hlineto
            return
          </CharString>
          <CharString index="104">
            214 102 hlineto
            22 -76 rlineto
            53 221 -53 hlineto
            -22 -69 rlineto
            -102 199 hlineto
            44 7 rlineto
            138 hlineto
            27 -14 callgsubr
            66 188 return
          </CharString>
          <CharString index="105">
            550 rmoveto
            135 24 152 0 hvcurveto
            -41 17 rlineto
            0 -24 -80 -88 -85 -18 80 0 vhcurveto
            -75 -30 rlineto
            0 28 -139 144 vhcurveto
            return
          </CharString>
          <CharString index="106">
            rmoveto
            20 19 91 97 73 vvcurveto
            41 -29 32 -45 -39 -22 -23 -27 -13 vhcurveto
            16 -16 15 -26 -32 vvcurveto
            -29 -12 -47 -19 -46 vhcurveto
            endchar
          </CharString>
          <CharString index="107">
            rmoveto
            302 56 hlineto
            -80 19 rlineto
            498 12 callgsubr
          </CharString>
          <CharString index="108">
            98 -109 56 35 -76 151 76 147 -56 35 -99 -109 rlineto
            -14 -16 -37 -45 -13 vvcurveto
            -17 36 -41 16 -18 vhcurveto
            return
          </CharString>
          <CharString index="109">
            1 6 10 1 9 hhcurveto
            21 47 -11 -14 40 hvcurveto
            23 8 17 26 27 vvcurveto
            42 -28 20 -61 -136 -80 -74 -126 vhcurveto
            return
          </CharString>
          <CharString index="110">
            rmoveto
            -292 56 vlineto
            35 139 rlineto
            13 53 9 40 36 vvcurveto
            26 -15 13 -40 -20 -21 -6 -9 -17 vhcurveto
            endchar
          </CharString>
          <CharString index="111">
            35 -11 callgsubr
            return
          </CharString>
          <CharString index="112">
            rmoveto
            -49 callgsubr
            return
          </CharString>
          <CharString index="113">
            hhcurveto
            62 17 -18 -65 hvcurveto
            -271 vlineto
            -70 -14 rlineto
            -55 276 55 -20 callgsubr
            298 vlineto
            return
          </CharString>
          <CharString index="114">
            rmoveto
            421 162 -75 hlineto
            -19 -86 rlineto
            -180 hlineto
            return
          </CharString>
          <CharString index="115">
            rmoveto
            73 43 30 23 22 hvcurveto
            return
          </CharString>
          <CharString index="116">
            107 64 46 67 53 -30 24 -32 10 hvcurveto
            26 12 20 15 47 vvcurveto
            64 -51 24 -97 -77 return
          </CharString>
          <CharString index="117">
            -18 callgsubr
            189 return
          </CharString>
          <CharString index="118">
            -237 319 695 rmoveto
            -358 -824 81 -37 360 824 rlineto
            endchar
          </CharString>
          <CharString index="119">
            rmoveto
            -74 287 70 -91 281 -72 vlineto
            -128 -10 rlineto
            -67 95 -200 vlineto
            return
          </CharString>
          <CharString index="120">
            rmoveto
            43 35 37 42 43 -30 30 -41 -47 -31 -38 -43 -44 31 -27 40 hvcurveto
            return
          </CharString>
          <CharString index="121">
            hmoveto
            -18 callgsubr
            return
          </CharString>
          <CharString index="122">
            -68 callgsubr
            79 -18 return
          </CharString>
          <CharString index="123">
            -57 callsubr
            endchar
          </CharString>
          <CharString index="124">
            29 callsubr
            75 38 92 -30 rlineto
            -8 26 29 -9 24 hhcurveto
            return
          </CharString>
          <CharString index="125">
            -7 -145 rlineto
            -11 return
          </CharString>
          <CharString index="126">
            695 rmoveto
            -469 -675 72 -52 471 675 rlineto
            return
          </CharString>
          <CharString index="127">
            vlineto
            -102 -23 rlineto
            -51 vlineto
            -11 28 46 -7 38 hhcurveto
            endchar
          </CharString>
          <CharString index="128">
            vlineto
            -16 callgsubr
            return
          </CharString>
          <CharString index="129">
            -274 35 310 rmoveto
            -87 230 105 vlineto
            endchar
          </CharString>
          <CharString index="130">
            vlineto
            -79 -14 rlineto
            return
          </CharString>
          <CharString index="131">
            42 88 -333 163 334 161 -44 90 return
          </CharString>
          <CharString index="132">
            vlineto
            -69 -14 rlineto
            -55 271 55 vlineto
            -13 callsubr
            return
          </CharString>
          <CharString index="133">
            395 94 -395 hlineto
            return
          </CharString>
          <CharString index="134">
            vlineto
            -37 14 -176 return
          </CharString>
          <CharString index="135">
            rmoveto
            -346 hlineto
            -13 -83 rlineto
            346 hlineto
            return
          </CharString>
          <CharString index="136">
            -39 -62 35 -33 return
          </CharString>
        <CharString name=".notdef">
          -387 endchar
        </CharString>
        <CharString name="A">
          66 -8 62 -104 callsubr
        </CharString>
        <CharString name="AE">
          295 -4 62 -50 callgsubr
        </CharString>
        <CharString name="AEacute">
          295 444 671 -97 callgsubr
          -423 -659 -50 callgsubr
        </CharString>
        <CharString name="Aacute">
          66 188 -30 callsubr
          -339 -758 -104 callsubr
        </CharString>
        <CharString name="Abreve">
          66 213 -63 callgsubr
          -221 -26 callsubr
        </CharString>
        <CharString name="Acircumflex">
          66 148 712 -101 callgsubr
          -278 -751 -104 callsubr
        </CharString>
        <CharString name="Adieresis">
          66 191 695 rmoveto
          -102 callgsubr
          245 hmoveto
          -102 callgsubr
          -444 -633 -104 callsubr
        </CharString>
        <CharString name="Agrave">
          66 193 739 rmoveto
          220 -68 -86 callgsubr
          -201 -677 -104 callsubr
        </CharString>
        <CharString name="Amacron">
          66 152 806 -43 callsubr
          -506 -744 -104 callsubr
        </CharString>
        <CharString name="Aogonek">
          66 463 hmoveto
          203 61 hlineto
          -69 13 -217 581 rlineto
          -121 hlineto
          -201 -581 -66 -12 rlineto
          -62 256 62 vlineto
          -83 11 7 21 29 86 rlineto
          203 hlineto
          34 -106 -79 -12 rlineto
          -62 37 vlineto
          -39 -24 -37 -38 -51 -21 callgsubr
          -52 callgsubr
          33 29 31 21 17 hvcurveto
          -235 260 rmoveto
          71 212 3 24 rlineto
          5 hlineto
          3 -24 70 -212 rlineto
          endchar
        </CharString>
        <CharString name="Aring">
          66 218 756 rmoveto
          -45 25 -42 75 75 31 47 46 44 -25 43 -74 -78 -29 -48 -45 vhcurveto
          104 -32 rmoveto
          -22 -11 0 36 29 8 5 23 24 9 -2 -32 -26 -5 -10 -26 hvcurveto
          -330 -662 -104 callsubr
        </CharString>
        <CharString name="Aringacute">
          66 498 917 -14 callsubr
          319 -775 rmoveto
          -217 581 rlineto
          -10 hlineto
          42 14 18 35 35 vvcurveto
          44 -25 43 -74 -78 -29 -48 -45 -34 14 -31 39 -13 vhcurveto
          -18 hlineto
          -201 -581 -66 -12 rlineto
          -62 256 62 vlineto
          -83 11 7 21 29 86 rlineto
          203 hlineto
          34 -106 -79 -12 rlineto
          -62 307 61 vlineto
          -340 713 rmoveto
          25 2 -6 -36 -23 -1 -11 -24 -22 -6 3 36 29 3 8 23 hvcurveto
          -98 -514 rmoveto
          71 212 3 24 rlineto
          5 hlineto
          3 -24 70 -212 rlineto
          endchar
        </CharString>
        <CharString name="Atilde">
          66 133 742 rmoveto
          39 -37 71 39 -29 callsubr
          -176 -733 -104 callsubr
        </CharString>
        <CharString name="B">
          50 35 hmoveto
          325 hlineto
          147 90 77 127 68 -40 46 -80 26 hvcurveto
          62 37 34 49 51 vvcurveto
          114 -83 53 -179 vhcurveto
          -276 -32 callsubr
          222 311 rmoveto
          201 vlineto
          2 14 23 2 18 hhcurveto
          73 38 -34 -66 -66 -49 -39 -82 hvcurveto
          2 -291 rmoveto
          -24 -6 0 1 -7 hvcurveto
          214 36 vlineto
          102 50 -35 -70 -76 -46 -34 -105 hvcurveto
          endchar
        </CharString>
        <CharString name="C">
          19 492 207 -69 callsubr
        </CharString>
        <CharString name="Cacute">
          18 242 -30 callsubr
          107 -613 -28 callgsubr
        </CharString>
        <CharString name="Cacute.loclPLK">
          19 372 -43 callgsubr
          170 -506 -69 callsubr
        </CharString>
        <CharString name="Ccaron">
          18 206 844 rmoveto
          -34 -52 123 -91 rlineto
          -11 17 21 -19 14 hhcurveto
          15 20 16 13 16 hvcurveto
          123 102 -29 42 -139 -62 rlineto
          139 -575 -28 callgsubr
        </CharString>
        <CharString name="Ccedilla">
          18 269 -128 rmoveto
          -20 -47 rlineto
          -13 25 22 -6 37 hhcurveto
          82 42 31 59 46 -27 13 -41 10 hvcurveto
          -21 5 rlineto
          13 vlineto
          99 4 61 24 35 16 rrcurveto
          180 -71 vlineto
          -23 -119 rlineto
          -10 -22 -37 -13 -49 hhcurveto
          -109 -54 45 209 197 41 66 121 46 38 -11 -7 22 hvcurveto
          21 -105 rlineto
          72 180 hlineto
          10 -37 -76 17 -88 hhcurveto
          -191 -132 -149 -201 -204 91 -120 185 -9 hvcurveto
          -21 -47 23 -23 29 -6 rlineto
          16 -3 7 -6 -14 vvcurveto
          -21 -15 -4 -20 -22 -16 3 10 -23 vhcurveto
          endchar
        </CharString>
        <CharString name="Ccircumflex">
          19 184 712 -101 callgsubr
          186 -606 -69 callsubr
        </CharString>
        <CharString name="Cdotaccent">
          19 353 -44 callgsubr
          139 -484 -69 callsubr
        </CharString>
        <CharString name="D">
          125 35 hmoveto
          -70 callsubr
          endchar
        </CharString>
        <CharString name="Dcaron">
          125 200 844 rmoveto
          -34 -52 123 -91 rlineto
          -16 20 16 -14 19 hhcurveto
          15 20 26 callgsubr
          rlineto
          -312 -782 rmoveto
          -70 callsubr
          endchar
        </CharString>
        <CharString name="Dcroat">
          -29 callgsubr
        </CharString>
        <CharString name="E">
          -6 35 56 -104 callgsubr
          endchar
        </CharString>
        <CharString name="Eacute">
          -6 197 -30 callsubr
          -305 -764 -104 callgsubr
          endchar
        </CharString>
        <CharString name="Ebreve">
          -6 202 -63 callgsubr
          -167 -795 -104 callgsubr
          endchar
        </CharString>
        <CharString name="Ecaron">
          -6 171 844 rmoveto
          -34 -52 123 -91 rlineto
          -9 12 23 -21 17 hhcurveto
          16 8 callgsubr
          rlineto
          -283 -726 -104 callgsubr
          endchar
        </CharString>
        <CharString name="Ecircumflex">
          -6 118 712 -101 callgsubr
          -205 -757 -104 callgsubr
          endchar
        </CharString>
        <CharString name="Edieresis">
          -6 164 695 rmoveto
          -102 callgsubr
          245 hmoveto
          -102 callgsubr
          -374 -639 -104 callgsubr
          endchar
        </CharString>
        <CharString name="Edotaccent">
          -6 297 -44 callgsubr
          -262 -635 -104 callgsubr
          endchar
        </CharString>
        <CharString name="Egrave">
          -6 159 739 rmoveto
          220 -68 -86 callgsubr
          -124 -683 -104 callgsubr
          endchar
        </CharString>
        <CharString name="Emacron">
          -6 125 806 -43 callsubr
          -436 -750 -104 callgsubr
          endchar
        </CharString>
        <CharString name="Eng">
          142 450 648 rmoveto
          -57 vlineto
          80 -18 rlineto
          -355 -4 vlineto
          -4 15 -263 415 rlineto
          -210 -61 hlineto
          66 -13 rlineto
          -499 21 callsubr
          -56 259 -10 callsubr
          372 4 vlineto
          4 -15 275 -418 rlineto
          -91 vlineto
          -102 -23 rlineto
          -6 callgsubr
          83 39 37 53 vhcurveto
          652 vlineto
          80 18 rlineto
          57 vlineto
          endchar
        </CharString>
        <CharString name="Eogonek">
          4 35 56 rmoveto
          -56 388 vlineto
          -40 -24 -36 -38 -51 -21 callgsubr
          -52 callgsubr
          33 29 31 21 17 hvcurveto
          51 197 -64 hlineto
          -28 -121 rlineto
          -147 hlineto
          -45 -3 callsubr
          -497 -56 hlineto
          -51 callgsubr
          -498 vlineto
          endchar
        </CharString>
        <CharString name="Eth">
          -29 callgsubr
        </CharString>
        <CharString name="Euro">
          -62 387 435 rmoveto
          -189 hlineto
          97 22 49 50 62 hhcurveto
          22 24 -6 -12 31 hvcurveto
          20 -105 rlineto
          75 180 hlineto
          16 -54 -64 11 -47 hhcurveto
          -136 -106 -93 -138 -40 hvcurveto
          -31 hlineto
          -27 -77 rlineto
          362 hlineto
          73 -151 rmoveto
          -16 -118 rlineto
          -15 -37 -35 -9 -28 hhcurveto
          -73 -39 63 106 -13 hvcurveto
          126 hlineto
          27 77 rlineto
          -332 hlineto
          -27 -77 rlineto
          59 hlineto
          -161 26 103 -91 156 hhcurveto
          66 59 16 29 52 hvcurveto
          180 vlineto
          endchar
        </CharString>
        <CharString name="Euro.osf">
          -62 45 355 rmoveto
          -27 -77 rlineto
          332 hlineto
          27 77 rlineto
          -150 hlineto
          75 16 35 20 66 hhcurveto
          35 25 -5 -6 16 hvcurveto
          17 -85 rlineto
          62 155 hlineto
          9 -30 -48 13 -88 hhcurveto
          -118 -89 -71 -105 -36 hvcurveto
          -87 -124 rmoveto
          -27 -77 rlineto
          108 hlineto
          -131 42 65 -41 145 hhcurveto
          79 56 22 14 31 hvcurveto
          152 -61 vlineto
          -19 -97 rlineto
          -8 -15 -21 -6 -37 hhcurveto
          -62 -43 13 82 -17 hvcurveto
          81 hlineto
          27 77 rlineto
          endchar
        </CharString>
        <CharString name="F">
          -50 4 callsubr
          199 119 vlineto
          22 -77 rlineto
          53 221 -53 hlineto
          -22 -69 rlineto
          -119 216 hlineto
          44 7 rlineto
          128 hlineto
          25 -14 callgsubr
          68 188 -487 -64 callgsubr
          endchar
        </CharString>
        <CharString name="G">
          61 441 259 -93 callgsubr
        </CharString>
        <CharString name="G_tilde.loclGUA">
          61 440 700 rmoveto
          28 30 -83 callsubr
          1 -441 -93 callgsubr
        </CharString>
        <CharString name="Gbreve">
          66 226 -63 callgsubr
          215 -592 rmoveto
          -181 vlineto
          -7 -19 -27 -6 -34 hhcurveto
          -109 -54 59 198 178 55 82 132 46 31 -10 -9 19 hvcurveto
          21 -108 rlineto
          72 180 hlineto
          10 -39 -59 21 -92 hhcurveto
          -207 -142 -129 -229 -212 99 -114 201 79 50 21 23 37 -4 callsubr
          23 -26 rlineto
          50 259 hlineto
          50 -47 callsubr
          -272 -56 vlineto
          endchar
        </CharString>
        <CharString name="Gcaron">
          61 227 844 -69 callgsubr
          67 -523 -93 callgsubr
        </CharString>
        <CharString name="Gcircumflex">
          61 194 712 -101 callgsubr
          125 -554 -93 callgsubr
        </CharString>
        <CharString name="Gcommaaccent">
          66 441 259 rmoveto
          -181 vlineto
          -7 -19 -27 -6 -34 hhcurveto
          -109 -54 59 198 178 55 82 132 46 31 -10 -9 19 hvcurveto
          21 -108 rlineto
          72 180 hlineto
          10 -39 -59 21 -92 hhcurveto
          -207 -142 -129 -229 -212 99 -114 201 79 50 21 23 37 -4 callsubr
          23 -26 rlineto
          50 259 hlineto
          50 -47 callsubr
          -272 -56 vlineto
          -59 -490 -88 callgsubr
        </CharString>
        <CharString name="Gdotaccent">
          61 363 -44 callgsubr
          78 -432 -93 callgsubr
        </CharString>
        <CharString name="H">
          -26 callgsubr
          endchar
        </CharString>
        <CharString name="Hbar">
          175 18 callgsubr
          181 248 -181 25 callgsubr
          342 84 77 -84 79 -91 callgsubr
          -79 -248 79 -91 callgsubr
          -79 -84 -77 84 -342 21 callsubr
          222 277 rmoveto
          84 248 -84 vlineto
          endchar
        </CharString>
        <CharString name="Hcircumflex">
          175 207 712 -101 callgsubr
          -294 -757 -18 callsubr
          221 248 -221 vlineto
          -80 -19 rlineto
          -84 callsubr
          -200 -248 200 16 callsubr
        </CharString>
        <CharString name="I">
          -215 35 56 -82 callgsubr
          endchar
        </CharString>
        <CharString name="IJ">
          200 35 56 -82 callgsubr
          257 118 rmoveto
          -71 callgsubr
        </CharString>
        <CharString name="Iacute">
          -215 60 -30 callsubr
          -168 -764 -82 callgsubr
          endchar
        </CharString>
        <CharString name="Iacute_J.loclNLD">
          200 135 671 -97 callgsubr
          469 -50 -97 callgsubr
          -519 -665 -82 callgsubr
          257 118 rmoveto
          -71 callgsubr
        </CharString>
        <CharString name="Ibreve">
          -215 76 -63 callgsubr
          -41 -795 -82 callgsubr
          endchar
        </CharString>
        <CharString name="Icircumflex">
          -215 12 712 rmoveto
          27 -41 141 62 148 -62 31 50 -121 93 rlineto
          25 -33 -9 5 -12 hhcurveto
          -9 -13 -8 -23 -28 hvcurveto
          -99 -757 -82 callgsubr
          endchar
        </CharString>
        <CharString name="Idieresis">
          -215 59 695 rmoveto
          -102 callgsubr
          245 hmoveto
          -102 callgsubr
          -269 -695 0 callsubr
        </CharString>
        <CharString name="Idotaccent">
          -215 180 -44 callgsubr
          -145 -635 -82 callgsubr
          endchar
        </CharString>
        <CharString name="Igrave">
          -215 58 739 rmoveto
          220 -68 -86 callgsubr
          -23 -683 -82 callgsubr
          endchar
        </CharString>
        <CharString name="Imacron">
          -215 6 738 -4 callgsubr
          16 -821 0 callsubr
        </CharString>
        <CharString name="Iogonek">
          -215 35 56 rmoveto
          -56 174 vlineto
          -40 -24 -36 -38 -51 -21 callgsubr
          -52 callgsubr
          33 29 31 21 17 hvcurveto
          61 56 hlineto
          -73 callsubr
          -498 vlineto
          endchar
        </CharString>
        <CharString name="Itilde">
          -215 258 700 rmoveto
          28 30 -83 callsubr
          -223 -644 -82 callgsubr
          endchar
        </CharString>
        <CharString name="J">
          -172 193 vmoveto
          -71 callgsubr
        </CharString>
        <CharString name="Jcircumflex">
          -172 84 712 -101 callgsubr
          -206 -620 rmoveto
          -71 callgsubr
        </CharString>
        <CharString name="K">
          47 35 56 rmoveto
          -56 302 56 vlineto
          -27 callgsubr
          endchar
        </CharString>
        <CharString name="Kcommaaccent">
          60 35 hmoveto
          302 56 hlineto
          -27 callgsubr
          -80 -19 rlineto
          254 -268 -88 callgsubr
        </CharString>
        <CharString name="L">
          -64 35 56 rmoveto
          -56 483 188 -66 vlineto
          -27 -14 callgsubr
          -117 hlineto
          -51 7 rlineto
          490 16 callsubr
        </CharString>
        <CharString name="Lacute">
          -53 116 671 -97 callgsubr
          -56 -721 rmoveto
          483 188 -66 hlineto
          -27 -14 callgsubr
          -117 hlineto
          -51 7 rlineto
          490 12 callgsubr
        </CharString>
        <CharString name="Lcaron">
          -53 401 482 -54 callsubr
          -366 -482 rmoveto
          483 188 -66 hlineto
          -27 -14 callgsubr
          -117 hlineto
          -51 7 rlineto
          490 12 callgsubr
        </CharString>
        <CharString name="Lcommaaccent">
          -53 35 hmoveto
          483 188 -66 hlineto
          -27 -14 callgsubr
          -117 hlineto
          -51 7 rlineto
          490 14 callgsubr
          197 -268 -88 callgsubr
        </CharString>
        <CharString name="Ldot">
          -64 35 56 rmoveto
          -56 483 188 -66 vlineto
          -27 -14 callgsubr
          -117 hlineto
          -51 7 rlineto
          490 -57 callsubr
          269 221 rmoveto
          13 callgsubr
        </CharString>
        <CharString name="Lslash">
          -64 35 56 rmoveto
          -56 483 188 -66 vlineto
          -27 -14 callgsubr
          -117 hlineto
          -51 7 rlineto
          255 vlineto
          89 32 rlineto
          64 vlineto
          -89 -33 rlineto
          172 -91 callgsubr
          -224 vlineto
          -75 -27 rlineto
          -60 vlineto
          75 26 rlineto
          -213 vlineto
          endchar
        </CharString>
        <CharString name="M">
          291 32 hmoveto
          259 -10 callgsubr
          357 vlineto
          -2 24 rlineto
          6 hlineto
          143 -456 rlineto
          121 hlineto
          135 432 5 24 rlineto
          5 hlineto
          -2 -24 rlineto
          -357 21 callsubr
          -56 301 -10 callsubr
          499 vlineto
          68 12 rlineto
          62 -242 vlineto
          -147 -469 -5 -31 -3 31 -144 469 rlineto
          -244 -61 hlineto
          66 -13 rlineto
          -499 21 callsubr
          endchar
        </CharString>
        <CharString name="N">
          142 -23 callgsubr
          endchar
        </CharString>
        <CharString name="Nacute">
          147 290 671 -97 callgsubr
          -230 -721 rmoveto
          -96 callsubr
          endchar
        </CharString>
        <CharString name="Nacute.loclPLK">
          142 379 -43 callgsubr
          -294 -713 rmoveto
          -96 callsubr
          endchar
        </CharString>
        <CharString name="Ncaron">
          147 370 690 -94 callgsubr
          -335 -690 rmoveto
          -96 callsubr
          endchar
        </CharString>
        <CharString name="Ncommaaccent">
          147 -23 callgsubr
          282 -268 -88 callgsubr
        </CharString>
        <CharString name="Ntilde">
          147 447 700 rmoveto
          29 29 -83 callsubr
          -412 -700 rmoveto
          -96 callsubr
          endchar
        </CharString>
        <CharString name="O">
          120 341 -18 -105 callgsubr
          endchar
        </CharString>
        <CharString name="OE">
          333 345 hmoveto
          535 197 -64 hlineto
          -28 -121 rlineto
          -127 hlineto
          -65 -3 callsubr
          -506 hlineto
          -206 -124 -128 -207 -218 114 -95 196 hvcurveto
          13 79 rmoveto
          -111 -49 59 202 185 70 42 87 52 33 -5 -3 14 hvcurveto
          -472 vlineto
          -5 -27 -34 -3 -35 hhcurveto
          endchar
        </CharString>
        <CharString name="Oacute">
          120 263 671 -97 callgsubr
          103 -739 -105 callgsubr
          endchar
        </CharString>
        <CharString name="Oacute.loclPLK">
          120 368 -43 callgsubr
          23 -731 -105 callgsubr
          endchar
        </CharString>
        <CharString name="Obreve">
          120 244 -63 callgsubr
          97 -869 -105 callgsubr
          endchar
        </CharString>
        <CharString name="Ocircumflex">
          120 180 712 -101 callgsubr
          39 -831 -105 callgsubr
          endchar
        </CharString>
        <CharString name="Odieresis">
          120 226 695 rmoveto
          -102 callgsubr
          245 hmoveto
          -102 callgsubr
          -130 -713 -105 callgsubr
          endchar
        </CharString>
        <CharString name="Ograve">
          120 446 671 rmoveto
          -86 callgsubr
          115 -757 -105 callgsubr
          endchar
        </CharString>
        <CharString name="Ohorn">
          120 790 668 -92 callsubr
        </CharString>
        <CharString name="Ohungarumlaut">
          120 212 671 -48 callgsubr
          225 -42 -48 callgsubr
          -26 -731 -105 callgsubr
          endchar
        </CharString>
        <CharString name="Omacron">
          120 174 723 -4 callgsubr
          154 -824 -105 callgsubr
          endchar
        </CharString>
        <CharString name="Oslash">
          120 171 21 -53 callgsubr
        </CharString>
        <CharString name="Oslashacute">
          120 231 671 -97 callgsubr
          -35 -700 -53 callgsubr
        </CharString>
        <CharString name="Otilde">
          120 428 700 rmoveto
          29 29 -83 callsubr
          -87 -718 -105 callgsubr
          endchar
        </CharString>
        <CharString name="P">
          -4 18 callgsubr
          493 vlineto
          0 27 4 28 77 34 -41 -70 -99 -29 -41 -95 -11 vhcurveto
          5 -47 rlineto
          -1 12 13 -1 11 hhcurveto
          128 105 69 131 143 -85 44 -171 hvcurveto
          -282 -32 callsubr
          endchar
        </CharString>
        <CharString name="Q">
          120 358 -43 rmoveto
          149 -91 rlineto
          -20 29 30 -8 36 hhcurveto
          50 56 34 0 hvcurveto
          51 -105 vlineto
          -146 77 rlineto
          137 45 78 129 161 vvcurveto
          213 -110 118 -196 -206 -125 -151 -202 -188 83 -115 156 -23 vhcurveto
          45 -7 25 -14 14 -9 rrcurveto
          2 108 rmoveto
          -111 -51 74 198 188 47 57 102 110 51 -77 -181 -206 -46 -53 -102 hvcurveto
          endchar
        </CharString>
        <CharString name="R">
          40 35 hmoveto
          -76 callsubr
          endchar
        </CharString>
        <CharString name="Racute">
          49 227 671 -97 callgsubr
          -167 -721 rmoveto
          -61 callgsubr
          endchar
        </CharString>
        <CharString name="Rcaron">
          49 314 671 rmoveto
          16 8 callgsubr
          -147 62 -34 -52 123 -91 rlineto
          -9 12 23 -21 17 hhcurveto
          -279 -671 rmoveto
          -61 callgsubr
          endchar
        </CharString>
        <CharString name="Rcommaaccent">
          49 35 hmoveto
          -61 callgsubr
          -14 -552 -88 callgsubr
        </CharString>
        <CharString name="S">
          -51 252 -17 -95 callgsubr
          endchar
        </CharString>
        <CharString name="Sacute">
          -51 183 671 -97 callgsubr
          94 -738 -95 callgsubr
          endchar
        </CharString>
        <CharString name="Sacute.loclPLK">
          -51 282 -43 callgsubr
          20 -730 -95 callgsubr
          endchar
        </CharString>
        <CharString name="Scaron">
          -51 275 671 rmoveto
          17 8 callgsubr
          -147 62 -34 -52 123 -91 rlineto
          -14 20 17 -16 14 hhcurveto
          -23 -688 -95 callgsubr
          endchar
        </CharString>
        <CharString name="Scedilla">
          -51 252 -40 callgsubr
          15 vlineto
          106 8 105 52 150 vvcurveto
          117 -91 47 -114 46 vhcurveto
          -67 27 -53 20 49 vvcurveto
          53 19 28 89 33 34 -7 -12 31 vhcurveto
          21 -104 rlineto
          69 182 hlineto
          10 -35 -82 15 -75 hhcurveto
          -145 -90 -78 -113 -136 111 -40 93 -37 hvcurveto
          114 -46 12 -17 -47 vvcurveto
          -57 -29 -30 -91 -43 -51 18 25 -25 vhcurveto
          -21 103 rlineto
          -70 -178 hlineto
          22 -14 67 -31 99 -4 -21 -48 rcurveline
          -66 callsubr
        </CharString>
        <CharString name="Scircumflex">
          -51 94 712 -101 callgsubr
          36 -830 -95 callgsubr
          endchar
        </CharString>
        <CharString name="Scommaaccent">
          -51 255 -17 -41 callgsubr
          20 49 vvcurveto
          53 19 28 89 33 34 -7 -12 31 vhcurveto
          21 -104 rlineto
          69 182 hlineto
          10 -35 -82 15 -75 hhcurveto
          -145 -90 -78 -113 -136 111 -40 93 -37 hvcurveto
          114 -46 12 -17 -47 vvcurveto
          -57 -29 -30 -91 -43 -51 18 25 -25 vhcurveto
          -21 103 rlineto
          -70 -178 hlineto
          -15 24 76 -35 113 hhcurveto
          -49 -195 -88 callgsubr
        </CharString>
        <CharString name="T">
          -8 callgsubr
          endchar
        </CharString>
        <CharString name="Tbar">
          -24 468 572 rmoveto
          -41 callsubr
          -199 -184 -77 184 -221 hlineto
          4 callgsubr
          221 175 77 -175 199 vlineto
          endchar
        </CharString>
        <CharString name="Tcaron">
          -14 152 844 -69 callgsubr
          -162 -726 -18 callsubr
          497 111 vlineto
          -41 callsubr
          -497 hlineto
          endchar
        </CharString>
        <CharString name="Thorn">
          -5 18 callgsubr
          65 36 vlineto
          151 108 61 143 112 -60 55 -153 hvcurveto
          -82 62 hlineto
          -88 callsubr
          -498 21 callsubr
          222 160 rmoveto
          216 vlineto
          1 10 17 2 17 hhcurveto
          77 31 -37 -64 -76 -32 -42 -89 hvcurveto
          endchar
        </CharString>
        <CharString name="U">
          97 83 573 -100 callsubr
          endchar
        </CharString>
        <CharString name="Uacute">
          97 268 671 -97 callgsubr
          109 -739 -55 callgsubr
        </CharString>
        <CharString name="Ubreve">
          97 232 -63 callgsubr
          -149 -278 -100 callsubr
          endchar
        </CharString>
        <CharString name="Ucircumflex">
          97 187 712 -101 callgsubr
          -226 -240 -48 callsubr
          173 76 -68 callgsubr
          78 -18 -20 callsubr
          -170 -28 -39 -101 -82 callsubr
          endchar
        </CharString>
        <CharString name="Udieresis">
          97 218 695 rmoveto
          -102 callgsubr
          245 hmoveto
          -102 callgsubr
          -111 -713 -55 callgsubr
        </CharString>
        <CharString name="Ugrave">
          97 455 671 rmoveto
          -86 callgsubr
          117 -757 -55 callgsubr
        </CharString>
        <CharString name="Uhorn">
          97 352 -18 -95 callsubr
          endchar
        </CharString>
        <CharString name="Uhungarumlaut">
          97 210 671 -48 callgsubr
          225 -42 -48 callgsubr
          -13 -731 rmoveto
          173 76 89 207 hvcurveto
          22 callgsubr
          -2 -295 rlineto
          -170 -1 -26 -39 -101 hhcurveto
          -111 -35 34 175 hvcurveto
          -31 callsubr
        </CharString>
        <CharString name="Umacron">
          97 192 806 -43 callsubr
          -455 -233 -24 callsubr
        </CharString>
        <CharString name="Uogonek">
          97 438 -187 rmoveto
          38 45 21 30 24 hvcurveto
          -52 callgsubr
          15 4 45 56 34 hvcurveto
          75 45 32 85 135 vvcurveto
          22 callgsubr
          -2 -295 rlineto
          -170 -1 -26 -39 -101 hhcurveto
          -111 -35 34 175 hvcurveto
          6 callgsubr
          15 14 1 1 13 vhcurveto
          -29 -24 -24 -32 -41 vvcurveto
          -49 41 -25 56 vhcurveto
          endchar
        </CharString>
        <CharString name="Uring">
          97 266 -9 callgsubr
          -287 -125 -24 callsubr
        </CharString>
        <CharString name="Utilde">
          97 414 700 rmoveto
          28 30 -83 callsubr
          -331 -127 -100 callsubr
          endchar
        </CharString>
        <CharString name="V">
          35 270 -12 rmoveto
          110 hlineto
          199 586 66 12 rlineto
          62 -246 -62 vlineto
          83 -12 -131 -401 -4 -27 rlineto
          -5 hlineto
          -3 27 -121 393 rlineto
          8 vlineto
          79 12 rlineto
          62 -310 -61 vlineto
          68 -13 rlineto
          endchar
        </CharString>
        <CharString name="W">
          422 226 -12 -85 callsubr
        </CharString>
        <CharString name="Wacute">
          422 454 671 -97 callgsubr
          -203 -733 -85 callsubr
        </CharString>
        <CharString name="Wcircumflex">
          422 331 712 -101 callgsubr
          -227 -825 -85 callsubr
        </CharString>
        <CharString name="Wdieresis">
          422 378 695 rmoveto
          -102 callgsubr
          245 hmoveto
          -102 callgsubr
          -397 -707 -85 callsubr
        </CharString>
        <CharString name="Wgrave">
          422 555 671 rmoveto
          -86 callgsubr
          -109 -751 -85 callsubr
        </CharString>
        <CharString name="X">
          33 -3 56 rmoveto
          -56 245 56 vlineto
          -56 14 rlineto
          12 vlineto
          114 159 105 -158 rlineto
          -12 vlineto
          -63 -15 rlineto
          -56 303 56 vlineto
          -72 17 -180 274 170 226 73 -47 callsubr
          -245 -56 vlineto
          67 -15 rlineto
          -10 vlineto
          -112 -149 -95 144 rlineto
          14 vlineto
          67 16 rlineto
          56 -311 -56 vlineto
          72 -17 173 -262 -171 -239 rlineto
          endchar
        </CharString>
        <CharString name="Y">
          26 162 56 -90 callsubr
        </CharString>
        <CharString name="Y.loclGUA">
          100 379 648 -99 callgsubr
        </CharString>
        <CharString name="Yacute">
          26 225 671 -97 callgsubr
          -38 -721 rmoveto
          302 56 hlineto
          -90 callgsubr
          -80 -19 rlineto
          endchar
        </CharString>
        <CharString name="Yacute.loclGUA">
          100 511 739 -14 callsubr
          88 -23 -99 callgsubr
        </CharString>
        <CharString name="Ycircumflex">
          26 152 712 -101 callgsubr
          -112 -757 -90 callsubr
        </CharString>
        <CharString name="Ycircumflex.loclGUA">
          100 336 733 rmoveto
          148 -62 31 50 -121 93 rlineto
          12 -16 -19 18 -15 hhcurveto
          -8 -8 0 -31 -38 hvcurveto
          -122 -101 27 -41 rlineto
          184 -23 -99 callgsubr
        </CharString>
        <CharString name="Ydieresis">
          26 183 695 rmoveto
          -102 callgsubr
          245 hmoveto
          -102 callgsubr
          -266 -639 -90 callsubr
        </CharString>
        <CharString name="Ydieresis.loclGUA">
          100 215 695 rmoveto
          -102 callgsubr
          245 hmoveto
          -102 callgsubr
          -81 -47 -99 callgsubr
        </CharString>
        <CharString name="Ygrave">
          26 376 671 rmoveto
          -86 callgsubr
          6 -683 -90 callsubr
        </CharString>
        <CharString name="Ygrave.loclGUA">
          100 392 671 rmoveto
          -86 callgsubr
          207 -91 -99 callgsubr
        </CharString>
        <CharString name="Z">
          -67 5 76 rmoveto
          -76 508 178 -70 vlineto
          -63 callsubr
          endchar
        </CharString>
        <CharString name="Zacute">
          -66 160 671 -97 callgsubr
          -130 -721 rmoveto
          509 178 -70 hlineto
          -63 callsubr
          -332 -483 rlineto
          endchar
        </CharString>
        <CharString name="Zacute.loclPLK">
          -67 274 -43 callgsubr
          -219 -637 rmoveto
          -76 508 178 -70 vlineto
          -63 callsubr
          endchar
        </CharString>
        <CharString name="Zcaron">
          -66 150 871 rmoveto
          -43 -49 91 -88 rlineto
          -28 29 18 -16 12 hhcurveto
          12 18 16 28 29 hvcurveto
          98 95 -32 42 -117 -75 rlineto
          -259 -720 rmoveto
          -1 -76 rlineto
          509 178 -70 hlineto
          -63 callsubr
          endchar
        </CharString>
        <CharString name="Zdotaccent">
          -66 256 -44 callgsubr
          -250 -615 rmoveto
          -1 -76 rlineto
          509 178 -70 hlineto
          -63 callsubr
          endchar
        </CharString>
        <CharString name="a">
          -67 179 -12 rmoveto
          -107 callgsubr
          endchar
        </CharString>
        <CharString name="aacute">
          -67 196 535 rmoveto
          -68 callsubr
          -21 -18 -20 -18 -15 vhcurveto
          -96 -115 rlineto
          19 -590 rmoveto
          -107 callgsubr
          endchar
        </CharString>
        <CharString name="abreve">
          -67 256 -2 callsubr
          -77 -562 rmoveto
          -107 callgsubr
          endchar
        </CharString>
        <CharString name="acircumflex">
          -67 368 -22 callsubr
          -68 -622 rmoveto
          -107 callgsubr
          endchar
        </CharString>
        <CharString name="acute">
          -375 578 vmoveto
          -80 callgsubr
          endchar
        </CharString>
        <CharString name="acutecomb">
          -212 578 rmoveto
          -80 callgsubr
          endchar
        </CharString>
        <CharString name="acutecomb.case">
          -226 671 -97 callgsubr
          endchar
        </CharString>
        <CharString name="adieresis">
          -67 133 561 rmoveto
          -102 callgsubr
          225 hmoveto
          -102 callgsubr
          -179 -573 rmoveto
          -107 callgsubr
          endchar
        </CharString>
        <CharString name="ae">
          167 307 277 -59 callgsubr
        </CharString>
        <CharString name="aeacute">
          167 331 578 rmoveto
          -80 callgsubr
          -120 -416 -59 callgsubr
        </CharString>
        <CharString name="agrave">
          -67 319 535 rmoveto
          36 43 -73 callgsubr
          36 -656 rmoveto
          -107 callgsubr
          endchar
        </CharString>
        <CharString name="amacron">
          -67 70 586 -4 callgsubr
          96 -681 rmoveto
          -107 callgsubr
          endchar
        </CharString>
        <CharString name="ampersand">
          24 452 32 rmoveto
          3 -2 rlineto
          -23 23 26 -7 22 hhcurveto
          130 63 hlineto
          -87 18 -38 39 rlineto
          22 40 11 42 36 vvcurveto
          81 -17 64 0 vhcurveto
          -174 -56 hlineto
          94 -19 rlineto
          4 -13 6 -20 -31 vvcurveto
          -19 -3 -20 -6 -20 vhcurveto
          -219 227 rlineto
          -47 48 -9 19 35 vvcurveto
          40 9 31 68 35 25 -6 -4 11 vhcurveto
          21 -14 callgsubr
          69 175 hlineto
          10 -23 -73 18 -56 hhcurveto
          -137 -65 -71 -96 -58 25 -43 45 -52 hvcurveto
          -45 -27 -69 -57 -93 vvcurveto
          -143 116 -43 136 69 56 19 30 42 vhcurveto
          -251 256 rmoveto
          196 -199 rlineto
          -16 -25 -31 -9 -37 hhcurveto
          -96 -48 40 79 52 21 33 20 20 hvcurveto
          endchar
        </CharString>
        <CharString name="aogonek">
          -67 405 -187 rmoveto
          66 41 51 0 hvcurveto
          -52 callgsubr
          33 28 29 21 18 hvcurveto
          34 6 28 11 0 vvcurveto
          51 -20 callgsubr
          292 vlineto
          103 -61 33 -112 -84 -131 -40 -90 -45 25 -14 44 28 25 10 0 vhcurveto
          14 91 rlineto
          0 11 5 35 63 11 -29 -47 vhcurveto
          -66 vlineto
          -107 -18 rlineto
          -91 -15 -76 -43 -90 vvcurveto
          -68 42 -62 104 71 47 39 14 14 vhcurveto
          9 hlineto
          8 -25 11 -16 37 -5 rrcurveto
          -36 -24 -32 -37 -47 vvcurveto
          -49 41 -25 56 vhcurveto
          -157 261 rmoveto
          -55 -19 24 37 40 15 30 118 10 hvcurveto
          -124 vlineto
          -7 -13 -22 -10 -24 hhcurveto
          endchar
        </CharString>
        <CharString name="approxequal">
          -57 110 293 24 callgsubr
          29 24 9 28 17 hvcurveto
          39 63 -35 33 -75 -38 -106 26 rlineto
          6 -25 -16 5 -35 callgsubr
          -39 -62 rlineto
          35 -218 24 callgsubr
          30 22 10 27 18 hvcurveto
          39 58 -35 38 -75 -38 -106 26 rlineto
          6 -25 -16 5 -20 hhcurveto
          -29 -27 -17 -28 -17 hvcurveto
          -39 -57 rlineto
          endchar
        </CharString>
        <CharString name="aring">
          -67 246 -9 callsubr
          -71 -621 rmoveto
          -107 callgsubr
          endchar
        </CharString>
        <CharString name="aringacute">
          -67 216 829 rmoveto
          -80 callgsubr
          -158 -295 -33 callsubr
          -82 -621 rmoveto
          -107 callgsubr
          endchar
        </CharString>
        <CharString name="asciicircum">
          -57 235 649 rmoveto
          -191 -387 rlineto
          93 hlineto
          129 281 128 -281 rlineto
          93 hlineto
          -190 387 rlineto
          endchar
        </CharString>
        <CharString name="asciitilde">
          -157 302 215 rmoveto
          29 23 12 28 17 hvcurveto
          39 63 -35 33 -75 -38 -92 25 rlineto
          7 -25 -31 6 -35 callgsubr
          29 callsubr
          75 38 92 -23 rlineto
          -7 26 27 -9 27 hhcurveto
          endchar
        </CharString>
        <CharString name="asterisk">
          -203 159 346 rmoveto
          34 10 52 20 4 hvcurveto
          11 61 96 -92 rlineto
          37 24 14 17 18 vvcurveto
          34 -31 10 -25 13 vhcurveto
          -55 29 119 63 rlineto
          50 -16 -13 18 -23 hhcurveto
          -21 -13 -12 -17 -17 hvcurveto
          -54 -51 -20 133 rlineto
          -27 hlineto
          -46 -11 -20 -21 -17 10 -19 8 -18 hvcurveto
          27 -58 -132 21 rlineto
          -11 -26 -4 -17 -12 vvcurveto
          -33 28 -7 19 9 19 2 1 8 vhcurveto
          64 7 -58 -121 rlineto
          -21 27 18 -11 15 hhcurveto
          49 164 rmoveto
          -25 7 rlineto
          27 vlineto
          23 9 16 -22 rlineto
          endchar
        </CharString>
        <CharString name="at">
          175 381 -112 rmoveto
          135 80 66 1 hvcurveto
          -23 48 rlineto
          -19 -43 -50 -16 -81 hhcurveto
          -167 -93 102 187 204 130 80 139 113 121 -52 -198 -111 -46 -45 -42 -32 -5 13 18 2 1 11 2 11 hvcurveto
          47 270 rlineto
          -61 hlineto
          -8 -6 -9 -9 -10 -9 rrcurveto
          0 -36 14 -46 -122 -68 -144 -106 -104 47 -36 56 47 18 10 38 55 vhcurveto
          -34 16 39 -28 64 hhcurveto
          123 83 100 164 193 -126 127 -212 -241 -154 -174 -204 -216 120 -148 239 hvcurveto
          -25 260 rmoveto
          -36 -6 22 42 85 24 55 10 10 hvcurveto
          5 5 10 2 17 hhcurveto
          39 23 -20 0 hvcurveto
          -28 -175 rlineto
          0 -23 -26 -35 vhcurveto
          endchar
        </CharString>
        <CharString name="atilde">
          -67 339 -15 callsubr
          -160 -575 rmoveto
          -107 callgsubr
          endchar
        </CharString>
        <CharString name="b">
          -44 294 -8 rmoveto
          109 110 92 204 161 -78 60 -97 -78 -54 -41 -11 -14 hvcurveto
          -3 5 9 9 rlineto
          214 -86 callsubr
          -602 66 vlineto
          39 31 rlineto
          11 hlineto
          -14 15 35 -25 62 hhcurveto
          -34 77 rmoveto
          -29 -20 5 5 -13 hvcurveto
          328 vlineto
          5 13 26 9 36 hhcurveto
          68 30 -39 -128 -141 -36 -44 -75 hvcurveto
          endchar
        </CharString>
        <CharString name="backslash">
          -119 13 658 rmoveto
          358 -824 83 37 -360 824 rlineto
          endchar
        </CharString>
        <CharString name="bar">
          -226 135 699 rmoveto
          -855 90 855 vlineto
          endchar
        </CharString>
        <CharString name="braceleft">
          -347 195 -151 rmoveto
          28 55 rlineto
          -54 29 -6 27 48 vvcurveto
          15 206 rlineto
          33 -14 19 -16 12 vhcurveto
          16 12 14 19 33 vvcurveto
          -14 202 rlineto
          48 6 27 54 29 vhcurveto
          -28 55 rlineto
          -78 -24 -69 -53 -76 vvcurveto
          -6 0 -5 1 -6 vhcurveto
          25 -205 -18 -9 -22 -8 -15 -6 rlinecurve
          -53 vlineto
          15 -6 22 -9 18 -9 -26 -209 rcurveline
          -1 -6 0 -5 -6 vvcurveto
          -77 69 -52 78 -24 vhcurveto
          endchar
        </CharString>
        <CharString name="braceright">
          -347 45 -151 rmoveto
          77 24 70 52 77 vvcurveto
          6 0 5 -1 6 vhcurveto
          -26 209 18 9 22 9 15 6 rlinecurve
          53 vlineto
          -15 6 -22 8 -18 9 25 205 rcurveline
          1 6 0 5 6 vvcurveto
          76 -70 53 -77 24 vhcurveto
          -28 -55 rlineto
          54 -29 6 -27 -48 vvcurveto
          -14 -202 rlineto
          -33 14 -19 16 -12 vhcurveto
          -16 -12 -14 -19 -33 vvcurveto
          15 -206 rlineto
          -48 -6 -27 -54 -29 vhcurveto
          endchar
        </CharString>
        <CharString name="bracketleft">
          -331 62 704 rmoveto
          -855 210 64 vlineto
          -106 21 rlineto
          684 vlineto
          106 21 rlineto
          65 vlineto
          endchar
        </CharString>
        <CharString name="bracketright">
          -331 -16 -87 rmoveto
          -64 210 855 -210 -64 vlineto
          106 -21 rlineto
          -685 vlineto
          endchar
        </CharString>
        <CharString name="breve">
          -258 74 719 -42 callgsubr
        </CharString>
        <CharString name="brokenbar">
          -226 135 699 rmoveto
          -365 90 365 vlineto
          -90 -490 rmoveto
          -365 90 365 vlineto
          endchar
        </CharString>
        <CharString name="bullet">
          -174 90 305 rmoveto
          -63 50 -50 63 63 51 50 63 63 -51 51 -63 -63 -50 -51 -63 vhcurveto
          endchar
        </CharString>
        <CharString name="c">
          -133 423 50 rmoveto
          -76 callgsubr
          108 62 62 0 vhcurveto
          endchar
        </CharString>
        <CharString name="cacute">
          -141 149 578 rmoveto
          -59 callsubr
          -21 -18 -20 -18 -15 vhcurveto
          183 -643 rmoveto
          -76 callgsubr
          108 62 62 0 vhcurveto
          endchar
        </CharString>
        <CharString name="cacute.loclPLK">
          -133 232 -36 callsubr
          131 -638 rmoveto
          -76 callgsubr
          108 62 62 0 vhcurveto
          endchar
        </CharString>
        <CharString name="caron">
          -258 161 538 -94 callgsubr
          endchar
        </CharString>
        <CharString name="ccaron">
          -141 247 538 -94 callgsubr
          11 -550 rmoveto
          108 62 62 0 hvcurveto
          -76 callgsubr
          vhcurveto
          endchar
        </CharString>
        <CharString name="ccedilla">
          -141 239 -40 callgsubr
          19 vlineto
          98 5 56 56 0 vvcurveto
          -18 42 rlineto
          0 -43 -16 -63 -116 -21 55 134 130 27 31 71 14 17 -2 -3 10 vhcurveto
          18 -99 rlineto
          -4 11 15 -3 9 hhcurveto
          68 12 29 34 81 -78 50 -99 -110 -127 -67 -205 -157 60 -79 135 -11 hvcurveto
          -24 -54 -66 callsubr
        </CharString>
        <CharString name="ccircumflex">
          -133 102 581 -102 callsubr
          220 -635 rmoveto
          -76 callgsubr
          108 62 62 0 vhcurveto
          endchar
        </CharString>
        <CharString name="cdotaccent">
          -133 252 -77 callsubr
          171 -511 rmoveto
          -76 callgsubr
          108 62 62 0 vhcurveto
          endchar
        </CharString>
        <CharString name="cedilla">
          -379 84 -40 callgsubr
          30 -49 vlineto
          -29 -64 -66 callsubr
        </CharString>
        <CharString name="cent">
          -141 210 62 -33 callgsubr
        </CharString>
        <CharString name="cent.osf">
          -141 210 -9 -33 callgsubr
        </CharString>
        <CharString name="circumflex">
          -258 9 581 -102 callsubr
          endchar
        </CharString>
        <CharString name="colon">
          -396 92 312 -56 callsubr
          -320 vmoveto
          13 callgsubr
        </CharString>
        <CharString name="comma">
          -396 61 -139 -1 callgsubr
        </CharString>
        <CharString name="copyright">
          81 8 325 rmoveto
          -181 146 -146 182 181 146 146 181 182 -146 146 -181 -182 -146 -146 -182 vhcurveto
          326 -263 rmoveto
          -146 -107 117 145 145 107 117 146 145 111 -117 -145 -145 -111 -117 -145 hvcurveto
          78 225 rmoveto
          -12 -60 rlineto
          -6 -9 -16 -5 -20 hhcurveto
          -61 -30 19 88 83 21 28 69 19 16 -5 -4 10 hvcurveto
          11 -52 rlineto
          45 110 hlineto
          5 -22 -48 8 -52 hhcurveto
          -101 -70 -74 -100 -106 53 -61 107 70 42 14 8 23 hvcurveto
          110 vlineto
          endchar
        </CharString>
        <CharString name="currency">
          -57 80 211 rmoveto
          -79 -86 61 -60 86 80 rlineto
          -20 32 38 -11 42 hhcurveto
          43 40 12 22 34 hvcurveto
          90 -84 61 60 -85 90 rlineto
          19 32 14 40 42 vvcurveto
          41 -13 38 -19 32 vhcurveto
          84 89 -61 60 -89 -82 rlineto
          21 -33 -43 15 -42 hhcurveto
          -42 -39 -11 -20 -32 hvcurveto
          -84 78 -61 -60 78 -84 rlineto
          -22 -33 -12 -41 -43 vvcurveto
          -44 12 -40 22 -33 vhcurveto
          78 117 rmoveto
          56 47 49 55 56 48 -48 -56 -55 -48 -46 -56 -55 -47 46 54 vhcurveto
          endchar
        </CharString>
        <CharString name="d">
          -45 callgsubr
          endchar
        </CharString>
        <CharString name="dagger">
          -133 168 405 rmoveto
          -405 119 405 vlineto
          152 -11 rlineto
          121 vlineto
          -159 -11 13 165 rlineto
          -132 hlineto
          13 -165 -159 11 rlineto
          -121 vlineto
          endchar
        </CharString>
        <CharString name="daggerdbl">
          -131 164 hmoveto
          128 hlineto
          -11 164 155 -11 rlineto
          121 vlineto
          -157 -11 rlineto
          143 vlineto
          157 -11 rlineto
          121 vlineto
          -155 -11 11 164 rlineto
          -128 hlineto
          11 -164 -155 11 rlineto
          -121 vlineto
          157 11 rlineto
          -143 vlineto
          -157 11 rlineto
          -121 vlineto
          155 11 rlineto
          endchar
        </CharString>
        <CharString name="dcaron">
          -7 526 541 rmoveto
          44 hlineto
          0 68 67 67 vvcurveto
          24 -18 31 -42 -18 -20 -6 -16 -14 vhcurveto
          12 -15 7 -25 -25 vvcurveto
          -28 -6 -44 -13 -30 vhcurveto
          -303 -553 8 callsubr
          4 hlineto
          21 -35 callsubr
          endchar
        </CharString>
        <CharString name="dcroat">
          -41 217 -12 8 callsubr
          4 hlineto
          21 -49 176 21 callgsubr
          -81 16 rlineto
          454 37 77 -37 65 28 callgsubr
          -22 rlineto
          -13 -178 -77 178 -63 vlineto
          9 -9 -4 -3 rlineto
          13 -19 -32 15 -48 hhcurveto
          -115 -106 -82 -193 -161 75 -72 114 hvcurveto
          50 88 rmoveto
          -66 -31 36 126 134 33 41 64 30 27 -6 -5 19 hvcurveto
          -306 vlineto
          -10 -18 -25 -10 -33 hhcurveto
          endchar
        </CharString>
        <CharString name="degree">
          -349 5 569 rmoveto
          -63 50 -50 63 64 51 50 63 64 -51 51 -64 -63 -50 -51 -64 vhcurveto
          76 hmoveto
          22 16 16 21 22 16 -16 -22 -21 -16 -16 -22 -21 -16 16 21 vhcurveto
          endchar
        </CharString>
        <CharString name="dieresis">
          -213 70 561 rmoveto
          -102 callgsubr
          225 hmoveto
          -102 callgsubr
          endchar
        </CharString>
        <CharString name="divide">
          -57 259 349 -103 callsubr
          -192 -139 rmoveto
          26 callsubr
          192 -307 -103 callsubr
          endchar
        </CharString>
        <CharString name="dollar">
          -133 445 189 rmoveto
          109 -58 38 -97 48 vhcurveto
          -87 43 -43 14 59 vvcurveto
          44 23 27 61 38 26 -10 -9 18 vhcurveto
          21 -104 rlineto
          69 182 hlineto
          -26 8 -58 12 -54 4 -4 103 rcurveline
          -79 hlineto
          -6 -107 rlineto
          -101 -18 -59 -67 -101 vvcurveto
          -135 106 -35 78 -36 vhcurveto
          97 -45 9 -30 -30 vvcurveto
          -48 -24 -37 -72 -52 -27 19 24 -24 vhcurveto
          -21 103 rlineto
          -70 -178 hlineto
          18 -13 62 -30 82 -6 5 -94 rcurveline
          76 hlineto
          5 98 rlineto
          90 15 78 56 127 vvcurveto
          endchar
        </CharString>
        <CharString name="dollar.osf">
          -151 186 -117 rmoveto
          76 hlineto
          5 109 rlineto
          76 15 67 46 100 208 -266 -74 109 vvcurveto
          29 15 26 68 40 30 -11 0 vhcurveto
          19 -76 rlineto
          69 149 hlineto
          -13 4 -51 12 -53 4 -4 104 rcurveline
          -79 hlineto
          -6 -107 rlineto
          -94 -16 -59 -60 -87 -202 265 80 -113 vvcurveto
          -51 -18 -20 -80 -48 -25 25 0 vhcurveto
          -23 83 rlineto
          -68 -151 hlineto
          19 -11 63 -18 70 -3 rrcurveto
          endchar
        </CharString>
        <CharString name="dotaccent">
          -424 77 -77 callsubr
          endchar
        </CharString>
        <CharString name="dotbelowcomb">
          -86 -206 -103 callsubr
          endchar
        </CharString>
        <CharString name="dotlessi">
          -276 19 55 -75 callgsubr
          endchar
        </CharString>
        <CharString name="e">
          -99 261 -12 -106 callsubr
          endchar
        </CharString>
        <CharString name="eacute">
          -107 197 535 rmoveto
          -68 callsubr
          -21 -18 -20 -18 -15 vhcurveto
          -96 -115 rlineto
          107 -590 -106 callsubr
          endchar
        </CharString>
        <CharString name="ebreve">
          -99 163 719 -91 callsubr
          98 -731 -106 callsubr
          endchar
        </CharString>
        <CharString name="ecaron">
          -107 246 538 -94 callgsubr
          22 -550 -106 callsubr
          endchar
        </CharString>
        <CharString name="ecircumflex">
          -107 367 -22 callsubr
          22 -622 -106 callsubr
          endchar
        </CharString>
        <CharString name="edieresis">
          -107 135 561 rmoveto
          -102 callgsubr
          225 hmoveto
          -102 callgsubr
          -92 -573 -106 callsubr
          endchar
        </CharString>
        <CharString name="edotaccent">
          -107 252 -77 callsubr
          16 -573 -106 callsubr
          endchar
        </CharString>
        <CharString name="egrave">
          -107 314 535 rmoveto
          36 43 -73 callgsubr
          130 -656 -106 callsubr
          endchar
        </CharString>
        <CharString name="eight">
          -72 -14 80 518 87 hstemhm
          42 120 -120 139 170 110 -110 134 hintmask 11101000
          251 -14 rmoveto
          hintmask 11100100
          152 82 94 101 92 -45 45 -67 38 hvcurveto
          hintmask 11101000
          52 34 36 51 80 vvcurveto
          93 -76 57 -118 -127 -89 -81 -113 -84 46 -47 55 -33 vhcurveto
          -61 -38 -49 -72 -66 vvcurveto
          -95 70 -56 139 vhcurveto
          55 403 rmoveto
          -15 7 -14 6 -12 6 rrcurveto
          hintmask 11011000
          -68 34 -16 26 43 vvcurveto
          46 24 27 56 63 27 -31 -52 -44 -17 -43 -28 -25 vhcurveto
          -43 -323 rmoveto
          hintmask 11101000
          -78 -23 42 54 37 9 36 44 47 hvcurveto
          41 -18 rlineto
          70 -29 31 -30 -54 vvcurveto
          -54 -31 -31 -63 vhcurveto
          endchar
        </CharString>
        <CharString name="eight.osf">
          -72 272 -14 rmoveto
          101 127 46 158 86 -46 47 -67 38 hvcurveto
          52 34 38 46 70 vvcurveto
          100 -71 60 -117 -127 -87 -81 -113 -82 43 -47 55 -33 vhcurveto
          -61 -38 -47 -58 -76 vvcurveto
          -79 52 -78 155 vhcurveto
          45 410 rmoveto
          -16 7 rlineto
          -76 38 -19 22 53 vvcurveto
          40 22 28 58 58 23 -31 -52 -46 -22 -34 -28 -25 vhcurveto
          -38 -330 rmoveto
          -69 -28 42 47 53 17 33 48 37 hvcurveto
          31 -13 rlineto
          69 -29 27 -26 -48 vvcurveto
          -56 -23 -40 -72 vhcurveto
          endchar
        </CharString>
        <CharString name="ellipsis">
          10 92 -8 -56 callsubr
          199 hmoveto
          -67 callsubr
          199 hmoveto
          13 callgsubr
        </CharString>
        <CharString name="emacron">
          -107 70 586 -4 callgsubr
          185 -681 -106 callsubr
          endchar
        </CharString>
        <CharString name="emdash">
          373 10 318 rmoveto
          -104 940 104 vlineto
          endchar
        </CharString>
        <CharString name="endash">
          -107 10 316 rmoveto
          -104 460 104 vlineto
          endchar
        </CharString>
        <CharString name="eng">
          -7 398 -169 rmoveto
          77 45 33 57 hvcurveto
          446 vlineto
          96 -48 48 -94 -44 -58 -20 -32 -49 vhcurveto
          -4 hlineto
          -28 47 -174 -23 rlineto
          -58 vlineto
          79 -16 rlineto
          -340 23 callsubr
          -55 281 55 vlineto
          -13 callsubr
          344 vlineto
          6 32 24 2 21 hhcurveto
          62 17 -17 -60 hvcurveto
          -421 20 callsubr
        </CharString>
        <CharString name="eogonek">
          -107 317 -187 rmoveto
          66 41 51 0 hvcurveto
          -52 callgsubr
          43 49 38 16 12 hvcurveto
          43 20 28 26 0 vvcurveto
          -19 42 rlineto
          0 -46 -24 -83 -101 -30 52 96 -1 vhcurveto
          245 hlineto
          31 16 15 69 90 -40 111 -157 -141 -96 -99 -172 -190 87 -60 154 hvcurveto
          11 hlineto
          -32 -24 -27 -34 -43 vvcurveto
          -49 41 -25 56 vhcurveto
          -148 476 rmoveto
          78 3 15 59 70 hhcurveto
          58 8 -31 -66 -8 -1 -12 -2 -12 hvcurveto
          endchar
        </CharString>
        <CharString name="equal">
          -57 67 305 rmoveto
          26 callsubr
          -262 vmoveto
          26 callsubr
          endchar
        </CharString>
        <CharString name="estimated">
          141 210 110 rmoveto
          196 496 vlineto
          213 -1 -129 146 -207 hhcurveto
          -195 -146 -153 -190 -188 151 -152 195 121 99 66 79 65 hvcurveto
          -90 hlineto
          -48 -53 -51 -31 -89 hhcurveto
          -73 -61 25 37 -32 hvcurveto
          318 262 rmoveto
          -318 173 hlineto
          34 36 53 20 72 hhcurveto
          68 62 -26 -26 27 hvcurveto
          endchar
        </CharString>
        <CharString name="eth">
          -62 280 -14 rmoveto
          138 96 75 259 111 -31 116 -76 73 hvcurveto
          49 25 -34 68 -86 -44 rlineto
          19 -39 -46 11 -55 hhcurveto
          -51 -33 -6 0 hvcurveto
          -63 vlineto
          48 38 -5 -10 31 hvcurveto
          -71 -36 34 -68 112 57 23 -26 14 -34 11 -41 rlinecurve
          0 -27 12 -61 -123 -107 -79 -170 -168 73 -76 173 vhcurveto
          76 vmoveto
          -84 -20 63 100 94 20 79 76 51 40 -13 0 hvcurveto
          0 8 -71 -73 vvcurveto
          -124 -10 -55 -81 vhcurveto
          endchar
        </CharString>
        <CharString name="exclam">
          -367 26 667 rmoveto
          34 -507 rlineto
          84 hlineto
          9 181 15 148 147 vvcurveto
          26 -3 23 -66 -52 -21 -18 0 vhcurveto
          75 -695 rmoveto
          13 callgsubr
        </CharString>
        <CharString name="exclamdown">
          -367 119 388 13 callsubr
          9 -561 rmoveto
          52 21 18 0 hvcurveto
          -34 507 rlineto
          -84 hlineto
          -22 -416 -2 -44 -8 vvcurveto
          -29 0 -28 69 vhcurveto
          endchar
        </CharString>
        <CharString name="f">
          -238 19 hmoveto
          315 58 hlineto
          9 callgsubr
          36 72 -25 0 hvcurveto
          0 40 15 46 vvcurveto
          51 -41 11 -48 -142 -74 -80 -120 vhcurveto
          -75 -18 rlineto
          -65 75 -353 23 callsubr
          endchar
        </CharString>
        <CharString name="f_f">
          92 19 hmoveto
          295 58 hlineto
          -84 15 rlineto
          349 198 -353 23 callsubr
          -55 315 58 vlineto
          -104 15 rlineto
          349 117 vlineto
          13 39 rlineto
          40 -130 104 vlineto
          2 callsubr
          -17 -4 rlineto
          -181 104 hlineto
          -12 callsubr
        </CharString>
        <CharString name="fi">
          18 19 55 rmoveto
          -55 285 55 vlineto
          -74 18 rlineto
          349 83 vlineto
          81 -16 rlineto
          -337 25 callsubr
          418 vlineto
          -37 14 rlineto
          -259 104 hlineto
          0 11 2 14 vhcurveto
          85 16 -31 46 hhcurveto
          35 26 31 33 41 -33 24 -85 -139 -85 -86 -114 -23 hvcurveto
          29 callgsubr
        </CharString>
        <CharString name="five">
          -117 -17 87 -87 208 131 87 126 113 hstemhm
          44 87 188 141 hintmask 01111100
          207 -17 rmoveto
          145 106 75 162 147 -109 42 -159 hvcurveto
          -59 126 286 113 -373 -326 104 hlineto
          124 50 -37 -88 hvcurveto
          hintmask 10111100
          -87 -33 -40 -77 -64 -37 29 0 vhcurveto
          hintmask 01111100
          -12 92 rlineto
          -70 hlineto
          -9 -164 rlineto
          -15 24 62 -29 101 hhcurveto
          endchar
        </CharString>
        <CharString name="five.osf">
          -117 118 -166 rmoveto
          162 154 69 178 139 -106 56 -174 4 hvcurveto
          9 126 rlineto
          254 166 -71 hlineto
          -16 -53 rlineto
          -252 hlineto
          -24 -328 rlineto
          170 69 -38 -89 -120 -80 -48 -181 hvcurveto
          -55 vlineto
          0 37 -7 49 vhcurveto
          endchar
        </CharString>
        <CharString name="fl">
          32 19 55 rmoveto
          -55 301 55 vlineto
          -90 14 rlineto
          353 117 vlineto
          13 39 rlineto
          40 -130 104 vlineto
          0 20 5 47 56 53 -22 0 vhcurveto
          -519 25 callsubr
          605 vlineto
          0 -62 31 -116 -189 -60 -78 -122 -13 vhcurveto
          29 callgsubr
        </CharString>
        <CharString name="florin">
          -197 111 392 rmoveto
          -9 -371 rlineto
          -37 -3 -15 -17 -36 hhcurveto
          -29 -31 13 14 -27 hvcurveto
          0 -42 -13 -35 vvcurveto
          -43 27 -22 86 87 98 72 129 10 vhcurveto
          3 310 rlineto
          118 72 -112 hlineto
          5 62 rlineto
          37 3 18 17 36 hhcurveto
          29 44 -13 -14 27 hvcurveto
          0 42 13 35 vvcurveto
          43 -27 22 -86 -87 -97 -74 -128 -22 vhcurveto
          -82 -17 -6 -55 rlineto
          endchar
        </CharString>
        <CharString name="four">
          -67 21 -21 165 95 431 -20 hstem
          285 133 vstem
          201 hmoveto
          300 58 hlineto
          -85 18 rlineto
          89 79 95 -79 401 vlineto
          -96 30 -324 -450 37 -76 rlineto
          252 -89 hlineto
          -84 -18 rlineto
          -77 202 rmoveto
          10 vlineto
          155 20 callgsubr
        </CharString>
        <CharString name="four.osf">
          -67 291 -164 rmoveto
          133 172 79 95 -79 410 hlineto
          -98 21 -323 -450 37 -76 rlineto
          251 hlineto
          -166 95 rmoveto
          10 vlineto
          160 20 callgsubr
        </CharString>
        <CharString name="fraction">
          -130 413 19 callsubr
          endchar
        </CharString>
        <CharString name="g">
          -107 216 -166 -105 callsubr
        </CharString>
        <CharString name="g_tilde.loclGUA">
          -107 84 667 rmoveto
          -39 -62 35 -33 75 38 -87 callsubr
          132 -833 -105 callsubr
        </CharString>
        <CharString name="gbreve">
          -107 236 -2 callsubr
          -20 -716 -105 callsubr
        </CharString>
        <CharString name="gcaron">
          -107 236 538 -94 callgsubr
          -20 -704 -105 callsubr
        </CharString>
        <CharString name="gcircumflex">
          -107 85 581 -102 callsubr
          30 -851 -105 callsubr
        </CharString>
        <CharString name="gcommaaccent">
          -107 214 540 rmoveto
          45 20 30 29 67 -71 62 0 hvcurveto
          -44 hlineto
          0 14 -50 -44 vvcurveto
          -45 -20 -19 0 vhcurveto
          -16 14 16 -14 26 hhcurveto
          2 -706 -105 callsubr
        </CharString>
        <CharString name="gdotaccent">
          -107 235 -77 callsubr
          -19 -727 -105 callsubr
        </CharString>
        <CharString name="germandbls">
          34 419 -14 rmoveto
          92 97 39 120 99 -66 30 -68 29 hvcurveto
          -44 18 -22 10 34 vvcurveto
          36 25 19 27 21 vhcurveto
          33 26 37 29 65 vvcurveto
          98 -83 46 -113 -139 -95 -70 -130 -2 vhcurveto
          -75 -18 rlineto
          -64 75 -354 23 callsubr
          -55 211 507 vlineto
          83 29 32 61 46 34 -18 -50 -44 -25 -19 -28 -23 vhcurveto
          -31 -26 -34 -35 -63 vvcurveto
          -81 56 -32 65 -27 vhcurveto
          57 -23 32 -9 -49 vvcurveto
          -44 -26 -20 -39 -36 -30 17 8 -10 vhcurveto
          -24 80 rlineto
          -63 hlineto
          18 callsubr
          19 74 -22 69 hhcurveto
          endchar
        </CharString>
        <CharString name="grave">
          -375 644 vmoveto
          176 -109 36 43 -73 callgsubr
          endchar
        </CharString>
        <CharString name="gravecomb">
          -212 644 rmoveto
          176 -109 36 43 -73 callgsubr
          endchar
        </CharString>
        <CharString name="gravecomb.case">
          -25 671 rmoveto
          -86 callgsubr
          endchar
        </CharString>
        <CharString name="greater">
          -57 33 88 rmoveto
          42 -88 16 callgsubr
          rlineto
          endchar
        </CharString>
        <CharString name="greaterequal">
          -57 69 51 rmoveto
          16 callgsubr
          -333 -163 rlineto
          6 -190 rmoveto
          473 84 -473 hlineto
          endchar
        </CharString>
        <CharString name="guillemotleft">
          -171 64 168 rmoveto
          1 callsubr
          180 hmoveto
          1 callsubr
          endchar
        </CharString>
        <CharString name="guillemotright">
          -171 94 241 3 callgsubr
          256 -151 3 callgsubr
          endchar
        </CharString>
        <CharString name="guilsinglleft">
          -351 64 174 rmoveto
          98 -109 56 35 -76 145 76 141 -56 35 -99 -109 rlineto
          -14 -16 -37 -39 -13 vvcurveto
          -17 37 -34 15 -19 vhcurveto
          endchar
        </CharString>
        <CharString name="guilsinglright">
          -351 94 245 rmoveto
          -76 -145 56 -35 98 109 rlineto
          15 19 37 34 17 vvcurveto
          13 -37 39 -14 16 vhcurveto
          -99 109 -56 -35 rlineto
          endchar
        </CharString>
        <CharString name="h">
          13 18 hmoveto
          -58 callgsubr
          endchar
        </CharString>
        <CharString name="hbar">
          13 18 hmoveto
          5 callgsubr
          331 vlineto
          5 20 33 5 24 hhcurveto
          69 10 -26 -53 hvcurveto
          -262 -56 callgsubr
          285 vlineto
          102 -54 40 -88 -66 -62 -35 -17 -25 vhcurveto
          -1 4 8 8 rlineto
          82 135 77 -135 70 28 callgsubr
          -23 rlineto
          -17 -80 -77 80 -469 23 callsubr
          endchar
        </CharString>
        <CharString name="hcircumflex">
          13 8 735 -102 callsubr
          -91 -839 rmoveto
          -58 callgsubr
          endchar
        </CharString>
        <CharString name="hookabovecomb">
          -165 536 -100 callgsubr
          endchar
        </CharString>
        <CharString name="hookabovecomb.case">
          -164 671 -101 callsubr
          endchar
        </CharString>
        <CharString name="hungarumlaut">
          -236 62 696 rmoveto
          -65 -134 49 -32 -51 callsubr
          173 hmoveto
          -65 -134 49 -32 -51 callsubr
          endchar
        </CharString>
        <CharString name="hyphen">
          22 callsubr
        </CharString>
        <CharString name="i">
          -19 callgsubr
          endchar
        </CharString>
        <CharString name="i.loclTRK">
          -276 159 -77 callsubr
          -140 -506 -75 callgsubr
          endchar
        </CharString>
        <CharString name="iacute">
          -276 73 535 rmoveto
          -68 callsubr
          -21 -18 -20 -18 -15 vhcurveto
          -96 -115 rlineto
          -18 -578 rmoveto
          281 55 hlineto
          -74 callsubr
          -79 -14 rlineto
          endchar
        </CharString>
        <CharString name="iacute_j.loclNLD">
          16 118 578 rmoveto
          -80 callgsubr
          214 -115 rmoveto
          -80 callgsubr
          -505 -638 -75 callgsubr
          208 -169 -22 callgsubr
        </CharString>
        <CharString name="ibreve">
          -276 73 719 -91 callsubr
          -54 -664 -75 callgsubr
          endchar
        </CharString>
        <CharString name="icircumflex">
          -276 -9 581 -102 callsubr
          -73 -630 -75 callgsubr
          endchar
        </CharString>
        <CharString name="idieresis">
          -273 17 561 rmoveto
          -102 callgsubr
          225 hmoveto
          -102 callgsubr
          -220 -561 rmoveto
          281 55 hlineto
          -74 callsubr
          -79 -14 rlineto
          endchar
        </CharString>
        <CharString name="igrave">
          -276 26 644 rmoveto
          176 -109 36 43 -73 callgsubr
          -7 -589 -75 callgsubr
          endchar
        </CharString>
        <CharString name="ij">
          16 147 -77 callsubr
          310 hmoveto
          52 34 41 47 49 -34 29 -44 -47 -38 -40 -46 -47 33 -33 44 hvcurveto
          -438 -506 rmoveto
          -55 281 55 vlineto
          -21 callsubr
          320 -238 -62 callsubr
        </CharString>
        <CharString name="imacron">
          -276 -35 586 rmoveto
          321 hlineto
          13 83 rlineto
          -321 hlineto
          41 -669 rmoveto
          281 55 hlineto
          -74 callsubr
          -79 -14 rlineto
          endchar
        </CharString>
        <CharString name="infinity">
          213 400 222 rmoveto
          -83 65 51 -27 71 hhcurveto
          105 83 77 121 121 -83 78 -105 -71 -49 -26 -84 -67 hvcurveto
          84 -67 -49 26 -71 hhcurveto
          -105 -83 -78 -121 -121 83 -77 105 70 52 27 83 65 hvcurveto
          -62 87 rmoveto
          -50 -35 -41 -48 -49 hhcurveto
          -47 -39 36 63 63 32 39 54 55 37 -52 -51 33 hvcurveto
          124 hmoveto
          51 33 37 52 55 hhcurveto
          54 32 -39 -63 -63 -39 -36 -47 -46 -46 52 46 -33 hvcurveto
          endchar
        </CharString>
        <CharString name="integral">
          -184 138 512 rmoveto
          -557 vlineto
          -7 -3 -14 -22 -26 -12 6 19 -35 vhcurveto
          0 -40 -15 -46 vvcurveto
          -51 41 -11 48 101 75 85 115 vhcurveto
          557 vlineto
          7 3 14 22 26 12 -6 -19 35 vhcurveto
          0 40 15 46 vvcurveto
          51 -41 11 -48 -101 -75 -85 -115 vhcurveto
          endchar
        </CharString>
        <CharString name="iogonek">
          -276 147 -77 callsubr
          -128 -506 rmoveto
          -55 174 vlineto
          -40 -24 -36 -38 -51 -21 callgsubr
          -52 callgsubr
          33 29 31 21 17 hvcurveto
          40 55 hlineto
          -21 callsubr
          endchar
        </CharString>
        <CharString name="itilde">
          -276 8 667 rmoveto
          -39 -62 35 -33 75 38 -87 callsubr
          11 -612 -75 callgsubr
          endchar
        </CharString>
        <CharString name="j">
          -295 146 -77 callsubr
          -39 -730 -62 callsubr
        </CharString>
        <CharString name="jcircumflex">
          -295 8 581 -102 callsubr
          -114 -785 -22 callgsubr
        </CharString>
        <CharString name="k">
          -43 16 -53 callsubr
          16 rlineto
          53 -235 -57 vlineto
          55 -11 rlineto
          -9 vlineto
          -90 -14 callgsubr
          -38 353 hlineto
          -27 36 -185 -23 rlineto
          -53 vlineto
          80 -16 rlineto
          -538 vlineto
          endchar
        </CharString>
        <CharString name="k.001">
          -43 16 -53 callsubr
          16 rlineto
          53 -235 -57 vlineto
          55 -11 rlineto
          -9 vlineto
          -90 -14 callgsubr
          -38 353 hlineto
          -27 36 -185 -23 rlineto
          -53 vlineto
          80 -16 rlineto
          -538 vlineto
          endchar
        </CharString>
        <CharString name="kcommaaccent">
          -45 16 -53 callsubr
          14 rlineto
          55 -235 -55 vlineto
          55 -13 rlineto
          -9 vlineto
          -90 -14 callgsubr
          -38 353 hlineto
          -27 36 -185 -23 rlineto
          -53 vlineto
          80 -16 rlineto
          -538 vlineto
          151 -281 -88 callgsubr
        </CharString>
        <CharString name="kgreenlandic">
          -38 21 -53 callsubr
          16 rlineto
          53 -235 -57 vlineto
          55 -11 rlineto
          -9 vlineto
          -90 -14 callgsubr
          -38 182 hlineto
          -83 callgsubr
          -340 vlineto
          endchar
        </CharString>
        <CharString name="l">
          -276 13 55 -17 callgsubr
          endchar
        </CharString>
        <CharString name="lacute">
          -276 22 680 rmoveto
          220 68 rlineto
          4 10 2 13 13 vvcurveto
          31 -12 34 -32 -15 -33 -20 -11 -17 vhcurveto
          -142 -92 rlineto
          22 -726 0 callgsubr
        </CharString>
        <CharString name="lcaron">
          -262 271 541 -54 callsubr
          -254 -541 0 callgsubr
        </CharString>
        <CharString name="lcommaaccent">
          -276 17 hmoveto
          281 55 hlineto
          -7 callsubr
          -79 -14 rlineto
          92 -267 -88 callgsubr
        </CharString>
        <CharString name="ldot">
          -276 13 55 -17 callgsubr
          217 227 rmoveto
          13 callgsubr
        </CharString>
        <CharString name="less">
          -57 32 278 rmoveto
          -62 vlineto
          436 -216 24 callsubr
          rlineto
          endchar
        </CharString>
        <CharString name="lessequal">
          -57 468 51 rmoveto
          24 callsubr
          -435 -224 rlineto
          -62 vlineto
          1 -318 rmoveto
          473 84 -473 hlineto
          endchar
        </CharString>
        <CharString name="logicalnot">
          -57 35 364 rmoveto
          -90 349 -162 83 252 vlineto
          endchar
        </CharString>
        <CharString name="longs">
          -238 19 hmoveto
          315 58 hlineto
          -104 15 rlineto
          532 vlineto
          -12 callsubr
        </CharString>
        <CharString name="lozenge">
          -57 41 326 rmoveto
          175 -326 rlineto
          99 hlineto
          175 326 -174 323 rlineto
          -101 hlineto
          159 -323 rmoveto
          -109 -219 -108 219 108 216 rlineto
          endchar
        </CharString>
        <CharString name="lslash">
          -270 22 55 rmoveto
          -55 281 55 vlineto
          -13 callsubr
          277 vlineto
          70 25 rlineto
          63 vlineto
          -70 -26 rlineto
          277 -86 callsubr
          -243 vlineto
          -83 -31 rlineto
          -59 vlineto
          83 29 rlineto
          -229 vlineto
          endchar
        </CharString>
        <CharString name="m">
          312 19 hmoveto
          5 callgsubr
          342 vlineto
          8 30 29 4 23 6 callsubr
          13 -2 14 -3 17 vhcurveto
          7 22 39 5 26 6 callsubr
          95 -48 47 -95 -51 -85 -27 -28 -36 vhcurveto
          37 -23 -40 18 -59 hhcurveto
          -43 -59 -20 -30 -49 hvcurveto
          -37 47 -75 callsubr
          -340 23 callsubr
          endchar
        </CharString>
        <CharString name="macron">
          -222 16 669 -43 callsubr
          endchar
        </CharString>
        <CharString name="minus">
          -57 67 312 rmoveto
          -94 395 94 vlineto
          endchar
        </CharString>
        <CharString name="multiply">
          -57 75 151 rmoveto
          69 -69 121 122 122 -122 69 69 -122 121 122 122 -69 69 -122 -122 -121 122 -69 -69 122 -122 rlineto
          endchar
        </CharString>
        <CharString name="n">
          16 21 hmoveto
          -94 callsubr
        </CharString>
        <CharString name="nacute">
          16 248 535 rmoveto
          -68 callsubr
          -21 -18 -20 -18 -15 vhcurveto
          -96 -115 rlineto
          -191 -578 rmoveto
          -94 callsubr
        </CharString>
        <CharString name="nacute.loclPLK">
          16 277 -36 callsubr
          -316 -688 rmoveto
          -94 callsubr
        </CharString>
        <CharString name="napostrophe">
          13 10 541 -54 callsubr
          11 -541 rmoveto
          -94 callsubr
        </CharString>
        <CharString name="ncaron">
          16 300 538 -94 callgsubr
          -279 -538 rmoveto
          -94 callsubr
        </CharString>
        <CharString name="ncommaaccent">
          16 21 hmoveto
          -93 callsubr
          235 -267 -88 callgsubr
        </CharString>
        <CharString name="nine">
          -67 -14 63 182 103 242 90 hstem
          24 142 177 148 vstem
          167 -14 rmoveto
          202 122 106 277 214 -91 83 -156 -120 -100 -86 -139 -131 73 -79 123 55 44 17 17 24 hvcurveto
          -163 -7 -66 -53 -194 hhcurveto
          -55 vlineto
          -5 32 30 -3 29 hhcurveto
          97 348 rmoveto
          -57 -41 28 93 90 25 31 58 80 14 -62 -138 hvcurveto
          -11 0 -11 -11 vvcurveto
          0 -33 -9 -46 vhcurveto
          endchar
        </CharString>
        <CharString name="nine.osf">
          -42 177 -172 rmoveto
          210 112 143 267 204 -75 93 -164 -128 -98 -100 -131 -140 66 -73 126 43 50 14 20 28 hvcurveto
          -173 -14 -68 -61 -179 hhcurveto
          -55 vlineto
          -6 39 28 -2 24 hhcurveto
          93 366 rmoveto
          -60 -34 41 74 99 24 37 65 57 29 -45 -90 -36 -2 -46 -2 -25 hvcurveto
          -5 -17 -32 -4 -28 hhcurveto
          endchar
        </CharString>
        <CharString name="notequal">
          -57 134 137 rmoveto
          -67 -107 74 -49 99 156 rlineto
          221 94 -161 hlineto
          47 74 rlineto
          114 94 -54 hlineto
          57 89 -77 49 -87 -138 rlineto
          -234 -94 174 hlineto
          -46 -74 rlineto
          -128 -94 hlineto
          endchar
        </CharString>
        <CharString name="ntilde">
          16 392 -15 callsubr
          -371 -563 rmoveto
          -94 callsubr
        </CharString>
        <CharString name="numbersign">
          -57 92 115 rmoveto
          -28 -145 rlineto
          94 hlineto
          28 145 rlineto
          93 hlineto
          -28 -145 rlineto
          95 hlineto
          28 145 rlineto
          116 91 -99 hlineto
          17 89 rlineto
          103 92 -85 hlineto
          25 131 rlineto
          -94 hlineto
          -26 -131 rlineto
          -93 hlineto
          26 131 rlineto
          -95 hlineto
          -25 -131 rlineto
          -124 -92 106 hlineto
          -17 -89 rlineto
          -110 -91 hlineto
          297 91 rmoveto
          -93 hlineto
          18 89 rlineto
          93 hlineto
          endchar
        </CharString>
        <CharString name="o">
          -57 257 -14 -103 callgsubr
          endchar
        </CharString>
        <CharString name="oacute">
          -47 180 578 rmoveto
          -59 callsubr
          -21 -18 -20 -18 -15 vhcurveto
          -14 -707 -103 callgsubr
          endchar
        </CharString>
        <CharString name="oacute.loclPLK">
          -57 240 -36 callsubr
          -43 -702 -103 callgsubr
          endchar
        </CharString>
        <CharString name="obreve">
          -57 174 719 -91 callsubr
          83 -733 -103 callgsubr
          endchar
        </CharString>
        <CharString name="ocircumflex">
          -47 128 581 -102 callsubr
          33 -699 -103 callgsubr
          endchar
        </CharString>
        <CharString name="odieresis">
          -47 162 561 rmoveto
          -102 callgsubr
          225 hmoveto
          -102 callgsubr
          -125 -575 -103 callgsubr
          endchar
        </CharString>
        <CharString name="oe">
          248 804 58 rmoveto
          -19 42 rlineto
          0 -46 -24 -83 -101 -30 52 96 -1 vhcurveto
          245 hlineto
          31 16 15 69 90 -40 111 -157 -67 -57 -22 -42 -41 hvcurveto
          42 -36 -56 24 -77 -32 callgsubr
          80 56 24 39 39 hvcurveto
          -44 41 63 -17 82 hhcurveto
          -39 callgsubr
          -525 4 rmoveto
          -95 -12 57 126 126 13 55 89 78 16 -53 -128 -113 -8 -70 -81 hvcurveto
          396 235 rmoveto
          -151 -8 rlineto
          78 3 15 59 70 hhcurveto
          58 8 -31 -66 -8 -1 -12 -2 -12 hvcurveto
          endchar
        </CharString>
        <CharString name="ogonek">
          -404 193 -136 rmoveto
          -52 callgsubr
          50 71 47 0 hvcurveto
          -58 hlineto
          -48 -22 -58 -44 -63 -21 callgsubr
          endchar
        </CharString>
        <CharString name="ograve">
          -47 155 644 rmoveto
          176 -109 36 43 -73 callgsubr
          107 -658 -103 callgsubr
          endchar
        </CharString>
        <CharString name="ohorn">
          -57 618 514 -87 callgsubr
        </CharString>
        <CharString name="ohungarumlaut">
          -47 188 696 rmoveto
          -65 -134 49 -32 -51 callsubr
          173 hmoveto
          -65 -134 49 -32 -51 callsubr
          -99 -710 -103 callgsubr
          endchar
        </CharString>
        <CharString name="omacron">
          -47 104 669 -43 callsubr
          -188 -683 -103 callgsubr
          endchar
        </CharString>
        <CharString name="one">
          -157 21 -21 657 -20 hstem
          164 133 vstem
          48 hmoveto
          363 64 hlineto
          -114 17 rlineto
          576 -78 vlineto
          -175 -30 rlineto
          -73 120 -473 vlineto
          -116 -17 rlineto
          endchar
        </CharString>
        <CharString name="one.osf">
          -157 70 64 rmoveto
          -64 350 64 vlineto
          -107 17 rlineto
          440 -82 vlineto
          -167 -30 rlineto
          -73 112 -337 vlineto
          endchar
        </CharString>
        <CharString name="onehalf">
          194 188 -5 callsubr
          -108 286 rmoveto
          287 70 -91 281 -72 hlineto
          -128 -10 rlineto
          -67 95 -200 -91 vlineto
          466 -380 rmoveto
          300 130 -61 hlineto
          -15 callgsubr
          -88 -78 rlineto
          endchar
        </CharString>
        <CharString name="onequarter">
          210 601 19 callsubr
          -651 -263 12 callsubr
          409 -326 rmoveto
          -54 254 56 vlineto
          7 callgsubr
          98 vmoveto
          -70 6 hlineto
          70 80 rlineto
          endchar
        </CharString>
        <CharString name="ordfeminine">
          -211 122 349 rmoveto
          31 39 18 23 19 hvcurveto
          6 hlineto
          -27 9 15 -10 30 hhcurveto
          25 36 8 12 24 hvcurveto
          44 vlineto
          -49 10 rlineto
          186 vlineto
          65 -38 27 -89 -78 -67 -41 -47 -27 14 -12 33 12 16 3 3 8 vhcurveto
          9 52 rlineto
          2 5 14 1 12 hhcurveto
          37 13 -14 -37 hvcurveto
          -34 vlineto
          -76 -11 rlineto
          -73 -11 -36 -34 -57 vvcurveto
          -55 40 -37 59 vhcurveto
          46 73 rmoveto
          -28 -15 11 20 27 23 12 60 5 hvcurveto
          -65 vlineto
          -7 -14 -13 -3 -13 hhcurveto
          endchar
        </CharString>
        <CharString name="ordmasculine">
          -201 185 350 rmoveto
          124 63 88 103 105 -65 66 -110 -115 -70 -87 -100 -108 59 -67 114 hvcurveto
          13 73 rmoveto
          -58 -12 27 79 68 5 37 60 51 12 -25 -80 -72 -9 -34 -49 hvcurveto
          endchar
        </CharString>
        <CharString name="oslash">
          -47 160 -82 -49 callsubr
        </CharString>
        <CharString name="oslashacute">
          -47 195 578 rmoveto
          -80 callgsubr
          -131 -775 -49 callsubr
        </CharString>
        <CharString name="otilde">
          -47 119 667 rmoveto
          -39 -62 35 -33 75 38 -87 callsubr
          143 -681 -103 callgsubr
          endchar
        </CharString>
        <CharString name="p">
          -34 -8 callsubr
          -56 -20 -30 -39 hvcurveto
          -5 hlineto
          -28 47 -75 callsubr
          -505 -6 callsubr
        </CharString>
        <CharString name="paragraph">
          63 219 196 rmoveto
          -196 109 566 226 vlineto
          63 14 rlineto
          68 -397 vlineto
          -51 -145 -29 -197 -192 143 -34 52 hvcurveto
          -29 -300 rmoveto
          -60 184 vlineto
          102 45 60 99 hvcurveto
          501 -109 -482 vlineto
          -68 -22 -22 -73 -10 vhcurveto
          endchar
        </CharString>
        <CharString name="parenleft">
          -329 247 -151 rmoveto
          22 57 rlineto
          -82 30 -24 94 249 vvcurveto
          223 20 107 85 33 vhcurveto
          -22 57 rlineto
          -169 -33 -33 -205 -182 vvcurveto
          -182 31 -214 172 -34 vhcurveto
          endchar
        </CharString>
        <CharString name="parenright">
          -329 -11 -94 rmoveto
          22 -57 rlineto
          172 34 31 219 182 vvcurveto
          182 -33 200 -169 33 vhcurveto
          -22 -57 rlineto
          85 -33 20 -106 -223 vvcurveto
          -249 -24 -95 -82 -30 vhcurveto
          endchar
        </CharString>
        <CharString name="partialdiff">
          -62 66 622 rmoveto
          36 -47 rlineto
          18 34 41 17 43 hhcurveto
          102 41 -74 -117 2 hvcurveto
          0 -38 19 -58 -138 -101 -78 -156 -142 77 -76 153 158 96 106 254 258 -95 95 -163 -111 -79 -77 0 vhcurveto
          303 -283 rmoveto
          -180 -6 -97 -90 -84 -17 63 82 112 29 33 76 51 41 -13 0 vhcurveto
          endchar
        </CharString>
        <CharString name="percent">
          150 171 -39 callsubr
          5 66 rmoveto
          -50 -9 33 62 66 16 29 42 44 15 -20 -75 -63 -9 -32 -49 hvcurveto
          endchar
        </CharString>
        <CharString name="period">
          -396 92 -8 rmoveto
          13 callgsubr
        </CharString>
        <CharString name="periodcentered">
          -396 92 185 rmoveto
          13 callgsubr
        </CharString>
        <CharString name="perthousand">
          509 162 -39 callsubr
          363 hmoveto
          -34 callsubr
          -358 66 rmoveto
          -25 callsubr
          363 hmoveto
          -25 callsubr
          endchar
        </CharString>
        <CharString name="pi">
          16 81 55 rmoveto
          -55 105 vlineto
          0 59 26 76 vvcurveto
          316 132 -356 vlineto
          -58 26 -10 56 54 58 38 0 vhcurveto
          54 -73 332 vlineto
          37 29 26 43 43 hvcurveto
          36 36 -36 46 -85 -49 rlineto
          -348 hlineto
          -81 -3 -17 -52 -52 hvcurveto
          -36 -36 36 -46 87 49 rlineto
          -321 vlineto
          endchar
        </CharString>
        <CharString name="plus">
          -57 215 69 11 callgsubr
          endchar
        </CharString>
        <CharString name="plusminus">
          -57 215 130 11 callgsubr
          -148 -287 rmoveto
          26 callsubr
          endchar
        </CharString>
        <CharString name="product">
          136 4 callsubr
          488 209 -488 25 callgsubr
          488 vlineto
          80 19 rlineto
          66 -653 -66 -30 callgsubr
          -488 vlineto
          endchar
        </CharString>
        <CharString name="q">
          -51 241 -165 rmoveto
          305 55 hlineto
          -69 14 rlineto
          595 -66 vlineto
          -43 -31 rlineto
          -11 hlineto
          24 -22 -43 17 -41 hhcurveto
          -134 -87 -114 -174 -150 70 -76 136 45 41 16 29 29 hvcurveto
          3 -2 -9 -9 rlineto
          -123 vlineto
          -104 -16 rlineto
          30 186 rmoveto
          -66 -33 54 108 135 27 53 70 22 24 -4 -9 30 hvcurveto
          -316 vlineto
          -14 -20 -25 -7 -29 hhcurveto
          endchar
        </CharString>
        <CharString name="question">
          -226 63 327 rmoveto
          -164 90 vlineto
          22 105 53 18 rlineto
          64 22 57 57 88 vvcurveto
          141 -118 73 -107 -85 -18 -21 -43 -31 20 -20 0 vhcurveto
          100 hlineto
          83 13 -22 -45 -67 -18 -36 -60 -21 hvcurveto
          -52 -389 rmoveto
          13 callgsubr
        </CharString>
        <CharString name="questiondown">
          -226 254 379 13 callsubr
          -8 -543 rmoveto
          85 18 21 43 31 -20 20 0 hvcurveto
          -100 hlineto
          -83 -13 22 45 66 18 37 60 21 hvcurveto
          96 34 rlineto
          164 -90 vlineto
          -22 -105 -53 -18 rlineto
          -64 -22 -57 -58 -87 vvcurveto
          -141 118 -73 107 vhcurveto
          endchar
        </CharString>
        <CharString name="quotedbl">
          -276 31 706 rmoveto
          -16 callsubr
          150 hmoveto
          -16 callsubr
          endchar
        </CharString>
        <CharString name="quotedblbase">
          -239 57 -144 -36 callgsubr
          204 -16 -36 callgsubr
          endchar
        </CharString>
        <CharString name="quotedblleft">
          -235 123 728 2 callgsubr
          130 16 2 callgsubr
          endchar
        </CharString>
        <CharString name="quotedblright">
          -239 57 466 -36 callgsubr
          204 -16 -36 callgsubr
          endchar
        </CharString>
        <CharString name="quoteleft">
          -396 134 728 rmoveto
          -20 -19 -91 -97 -73 vvcurveto
          -41 29 -32 45 39 22 23 27 13 vhcurveto
          -16 16 -15 26 32 vvcurveto
          29 12 47 19 46 vhcurveto
          endchar
        </CharString>
        <CharString name="quoteright">
          -396 61 459 -1 callsubr
        </CharString>
        <CharString name="quotesinglbase">
          -396 61 -140 -1 callsubr
        </CharString>
        <CharString name="quotesingle">
          -380 46 706 rmoveto
          -16 callsubr
          endchar
        </CharString>
        <CharString name="r">
          -173 20 55 -62 callgsubr
        </CharString>
        <CharString name="racute">
          -198 130 578 rmoveto
          -59 callsubr
          -21 -18 -20 -18 -15 vhcurveto
          -206 -638 -62 callgsubr
        </CharString>
        <CharString name="radical">
          -37 191 -7 rmoveto
          127 hlineto
          210 709 106 13 rlineto
          56 -172 vlineto
          -180 -626 -10 -49 -9 49 -102 351 rlineto
          -181 -56 hlineto
          60 -13 rlineto
          endchar
        </CharString>
        <CharString name="rcaron">
          -198 218 538 -94 callgsubr
          -198 -538 rmoveto
          321 56 hlineto
          -74 callgsubr
          -79 -14 rlineto
          endchar
        </CharString>
        <CharString name="rcommaaccent">
          -198 20 hmoveto
          321 56 hlineto
          -74 callgsubr
          -79 -14 rlineto
          102 -267 -88 callgsubr
        </CharString>
        <CharString name="registered">
          104 331 793 rmoveto
          -160 -130 -130 -160 -160 130 -130 160 160 130 130 160 160 -130 130 -160 hvcurveto
          178 -418 rmoveto
          21 vlineto
          -45 9 -56 77 rlineto
          36 12 25 35 36 vvcurveto
          52 -38 31 -63 vhcurveto
          -201 hlineto
          47 38 57 30 69 hhcurveto
          120 96 -98 -124 -48 -14 -44 -24 -36 hvcurveto
          -392 128 rmoveto
          54 17 50 31 39 vhcurveto
          -46 vlineto
          37 -6 rlineto
          -191 vlineto
          -47 -7 rlineto
          -22 vlineto
          -24 37 -14 44 48 vvcurveto
          179 11 rmoveto
          77 vlineto
          2 9 12 1 10 hhcurveto
          31 13 -12 -27 -28 -17 -13 -39 hvcurveto
          16 -233 rmoveto
          -67 -57 29 46 -38 hvcurveto
          174 40 hlineto
          -47 7 rlineto
          58 29 vlineto
          59 -90 rlineto
          -8 4 9 -5 11 hhcurveto
          88 hlineto
          -47 -39 -59 -30 -67 hhcurveto
          endchar
        </CharString>
        <CharString name="ring">
          -403 -14 649 -33 callsubr
          endchar
        </CharString>
        <CharString name="s">
          -147 52 164 rmoveto
          -17 callsubr
          96 102 38 123 hvcurveto
          -84 callgsubr
          -43 -23 17 8 -11 vhcurveto
          -24 80 rlineto
          endchar
        </CharString>
        <CharString name="sacute">
          -147 137 578 rmoveto
          -59 callsubr
          -21 -18 -20 -18 -15 vhcurveto
          -181 -529 rmoveto
          -17 callsubr
          96 102 38 123 hvcurveto
          -84 callgsubr
          -45 -22 17 8 -10 vhcurveto
          -24 80 rlineto
          endchar
        </CharString>
        <CharString name="sacute.loclPLK">
          -147 211 -36 callsubr
          -219 -524 rmoveto
          -17 callsubr
          96 102 38 123 hvcurveto
          -84 callgsubr
          -43 -23 17 8 -11 vhcurveto
          -24 80 rlineto
          endchar
        </CharString>
        <CharString name="scaron">
          -147 225 538 -94 callgsubr
          -7 -552 rmoveto
          96 102 38 123 hvcurveto
          -84 callgsubr
          -45 -21 16 9 -11 vhcurveto
          -24 80 rlineto
          -63 hlineto
          -17 callsubr
          endchar
        </CharString>
        <CharString name="scedilla">
          -147 209 -40 callgsubr
          17 vlineto
          87 7 85 41 112 -84 callgsubr
          -45 -22 17 8 -10 vhcurveto
          -24 80 rlineto
          -63 hlineto
          -7 -145 17 -10 62 -17 65 -5 rlinecurve
          -23 -51 -66 callsubr
        </CharString>
        <CharString name="scircumflex">
          -147 81 581 -102 callsubr
          -130 -521 rmoveto
          -17 callsubr
          96 102 38 123 hvcurveto
          -84 callgsubr
          -43 -23 17 8 -11 vhcurveto
          -24 80 rlineto
          endchar
        </CharString>
        <CharString name="scommaaccent">
          -147 52 164 rmoveto
          -17 callsubr
          96 102 38 123 hvcurveto
          -84 callgsubr
          -45 -21 16 9 -11 vhcurveto
          -24 80 rlineto
          70 -376 -88 callgsubr
        </CharString>
        <CharString name="section">
          -36 227 373 rmoveto
          250 -148 61 94 -247 146 rlineto
          -78 52 -21 13 39 vvcurveto
          37 36 22 73 61 39 -19 0 vhcurveto
          21 -104 rlineto
          69 182 hlineto
          0 -88 25 -110 -152 -78 -77 -81 -75 39 -32 125 -74 vhcurveto
          -163 -308 rmoveto
          -178 vlineto
          0 77 -51 133 151 91 79 106 45 -24 38 -73 42 vhcurveto
          -299 172 -61 -88 275 -163 rlineto
          57 -34 3 -14 -27 vvcurveto
          -45 -39 -27 -74 -82 -44 42 0 vhcurveto
          -22 103 rlineto
          endchar
        </CharString>
        <CharString name="semicolon">
          -396 92 312 -56 callsubr
          -31 -451 -1 callgsubr
        </CharString>
        <CharString name="seven">
          -132 21 -21 460 188 -112 112 hstemhm
          hintmask 10100000
          73 hmoveto
          110 hlineto
          277 536 rlineto
          112 -439 vlineto
          hintmask 11000000
          10 -188 rlineto
          72 hlineto
          hintmask 10100000
          13 76 rlineto
          223 -25 hlineto
          -266 -455 rlineto
          endchar
        </CharString>
        <CharString name="seven.osf">
          -127 333 384 rmoveto
          -286 -548 rlineto
          148 hlineto
          259 573 rlineto
          112 -439 -188 75 vlineto
          13 76 rlineto
          230 hlineto
          endchar
        </CharString>
        <CharString name="six">
          -42 -15 90 238 103 250 -20 hstem
          45 153 170 142 vstem
          268 -15 rmoveto
          146 96 94 143 120 -67 74 -108 -50 -46 -14 -28 -40 hvcurveto
          16 136 92 80 165 21 rrcurveto
          55 vlineto
          -269 -158 -156 -266 -168 79 -91 144 hvcurveto
          15 90 rmoveto
          -63 -23 47 132 27 1 19 1 4 hvcurveto
          5 16 31 4 28 hhcurveto
          66 28 -33 -80 -91 -23 -34 -62 hvcurveto
          endchar
        </CharString>
        <CharString name="six.osf">
          -42 278 -15 rmoveto
          120 112 68 161 131 -58 71 -109 -98 -45 -42 0 hvcurveto
          24 116 63 79 176 33 rrcurveto
          55 vlineto
          -228 -190 -149 -266 -182 91 -75 142 hvcurveto
          5 90 rmoveto
          -67 -18 42 124 55 2 8 0 hvcurveto
          0 28 9 46 57 37 -22 -78 -100 -21 -38 -64 vhcurveto
          endchar
        </CharString>
        <CharString name="slash">
          11 callsubr
        </CharString>
        <CharString name="space">
          -415 endchar
        </CharString>
        <CharString name="sterling">
          -67 35 63 rmoveto
          -63 448 185 -66 vlineto
          -23 -102 rlineto
          -212 7 hlineto
          21 15 11 28 41 vvcurveto
          117 129 87 -129 108 vlineto
          72 30 19 61 27 31 -3 -5 15 vhcurveto
          23 -89 rlineto
          69 159 hlineto
          13 -45 -65 8 -55 hhcurveto
          -145 -71 -58 -116 hvcurveto
          -108 -55 -87 55 -117 vlineto
          -40 -19 -40 -35 -31 vhcurveto
          endchar
        </CharString>
        <CharString name="sterling.osf">
          -107 35 63 rmoveto
          -63 415 185 -66 vlineto
          -23 -102 rlineto
          -179 7 hlineto
          25 18 7 32 34 vvcurveto
          41 89 87 -89 58 vlineto
          72 25 19 50 42 18 -8 0 vhcurveto
          19 -89 rlineto
          69 159 hlineto
          5 -16 -53 16 -83 hhcurveto
          -106 -90 -36 -138 hvcurveto
          -58 -55 -87 55 -41 vlineto
          -23 -4 -42 -50 -46 vhcurveto
          endchar
        </CharString>
        <CharString name="summation">
          -66 39 hmoveto
          445 188 -66 hlineto
          -26 -95 rlineto
          -233 hlineto
          4 6 167 240 -133 227 -3 6 rlineto
          192 hlineto
          27 -14 callgsubr
          66 188 -441 -59 hlineto
          168 -277 -167 -240 rlineto
          endchar
        </CharString>
        <CharString name="t">
          -196 92 423 -58 callsubr
          endchar
        </CharString>
        <CharString name="tbar">
          -216 371 45 rmoveto
          -17 51 rlineto
          0 -38 -16 -38 -33 -21 10 54 vhcurveto
          102 124 77 -124 100 127 vlineto
          14 30 rlineto
          46 -141 131 -88 vlineto
          -44 -121 -96 -21 rlineto
          -65 96 -100 -97 -77 97 -120 vlineto
          -88 32 -47 105 vhcurveto
          79 64 54 -1 hhcurveto
          endchar
        </CharString>
        <CharString name="tcaron">
          -221 266 541 -54 callsubr
          -175 -118 -58 callsubr
          endchar
        </CharString>
        <CharString name="thorn">
          -36 -8 callsubr
          -53 -18 -30 -38 hvcurveto
          224 -86 callsubr
          -698 -6 callsubr
        </CharString>
        <CharString name="three">
          -106 -17 87 -87 211 105 80 98 189 -87 87 hstemhm
          309 126 -99 134 hintmask 01101010
          219 -17 rmoveto
          115 136 54 152 104 -70 47 -80 17 hvcurveto
          9 vlineto
          hintmask 01101100
          55 23 60 52 78 vvcurveto
          112 -84 35 -127 -88 -63 -20 -15 -37 vhcurveto
          hintmask 01110100
          10 -154 rlineto
          71 hlineto
          8 89 rlineto
          hintmask 01101100
          9 22 25 4 29 hhcurveto
          75 33 -22 -66 -71 -56 -41 -79 hvcurveto
          -47 -43 hlineto
          19 -37 rlineto
          31 hlineto
          hintmask 01101010
          84 75 -37 -77 hvcurveto
          hintmask 10101010
          -78 -32 -37 -92 -41 -45 25 5 -7 vhcurveto
          hintmask 01101010
          -11 94 rlineto
          -78 hlineto
          -10 -161 rlineto
          -15 24 62 -35 113 hhcurveto
          endchar
        </CharString>
        <CharString name="three.osf">
          -127 29 -104 rmoveto
          -55 vlineto
          0 37 -7 49 188 126 70 164 103 -69 45 -84 10 vhcurveto
          9 vlineto
          55 23 56 52 78 vvcurveto
          67 -44 79 -133 -142 -57 -103 0 vhcurveto
          36 -36 rlineto
          0 47 43 68 60 23 -24 -48 -71 -47 -34 -94 -18 vhcurveto
          -38 vlineto
          19 -37 rlineto
          31 hlineto
          84 47 -37 -79 -130 -70 -26 -186 hvcurveto
          endchar
        </CharString>
        <CharString name="threequarters">
          220 214 -5 callsubr
          9 280 rmoveto
          9 callsubr
          -46 -27 -10 -15 -7 callgsubr
          -15 8 3 -5 hvcurveto
          -7 45 rlineto
          -67 -108 hlineto
          -12 23 69 -12 39 hhcurveto
          382 -300 rmoveto
          254 56 hlineto
          7 callgsubr
          -78 -11 rlineto
          8 109 rmoveto
          6 vlineto
          70 80 rlineto
          -86 vlineto
          endchar
        </CharString>
        <CharString name="tilde">
          -218 29 667 rmoveto
          -39 -62 35 -33 75 38 -87 callsubr
          endchar
        </CharString>
        <CharString name="tildecomb">
          -340 667 rmoveto
          -39 -62 35 -33 75 38 -87 callsubr
          endchar
        </CharString>
        <CharString name="tildecomb.case">
          -122 700 rmoveto
          28 30 -83 callsubr
          endchar
        </CharString>
        <CharString name="trademark">
          396 73 403 rmoveto
          -47 212 47 vlineto
          -54 7 rlineto
          237 63 vlineto
          15 -58 rlineto
          49 118 -359 -118 49 hlineto
          15 58 rlineto
          63 -237 hlineto
          260 -11 rmoveto
          -43 166 43 vlineto
          -42 8 rlineto
          231 6 vlineto
          79 -282 rlineto
          105 hlineto
          81 280 rlineto
          6 -228 hlineto
          -43 -7 rlineto
          -45 202 45 vlineto
          -54 7 rlineto
          240 vlineto
          54 7 rlineto
          52 -215 vlineto
          -58 -213 -8 -44 -8 44 -57 213 rlineto
          -209 -52 hlineto
          49 -5 rlineto
          -243 vlineto
          endchar
        </CharString>
        <CharString name="two">
          -76 0 95 484 87 hstem
          328 140 vstem
          29 hmoveto
          462 188 -66 hlineto
          -26 -93 rlineto
          -210 6 hlineto
          138 134 rlineto
          95 94 46 60 105 vvcurveto
          107 -64 65 -175 -75 -80 -20 -15 -37 vhcurveto
          -172 69 vlineto
          21 104 rlineto
          9 22 22 7 43 hhcurveto
          89 25 -32 -69 -60 -21 -60 -61 -64 hvcurveto
          -217 -226 rlineto
          endchar
        </CharString>
        <CharString name="two.osf">
          -76 30 68 rmoveto
          -68 436 188 -66 vlineto
          -26 -95 rlineto
          -178 6 hlineto
          87 62 rlineto
          88 62 65 55 105 vvcurveto
          90 -75 61 -127 -119 -91 -98 0 vhcurveto
          40 -45 rlineto
          0 60 43 72 73 23 -35 -44 -37 -13 -31 -77 -68 vhcurveto
          endchar
        </CharString>
        <CharString name="u">
          13 236 -12 -106 callgsubr
          endchar
        </CharString>
        <CharString name="uacute">
          13 239 535 rmoveto
          -68 callsubr
          -21 -18 -20 -18 -15 vhcurveto
          -96 -115 rlineto
          33 -590 -106 callgsubr
          endchar
        </CharString>
        <CharString name="ubreve">
          13 209 719 -91 callsubr
          27 -731 -106 callgsubr
          endchar
        </CharString>
        <CharString name="ucircumflex">
          13 412 -22 callsubr
          -55 -622 -106 callgsubr
          endchar
        </CharString>
        <CharString name="udieresis">
          13 170 561 rmoveto
          -102 callgsubr
          225 hmoveto
          -102 callgsubr
          -159 -573 -106 callgsubr
          endchar
        </CharString>
        <CharString name="ugrave">
          13 356 535 rmoveto
          36 43 -73 callgsubr
          56 -656 -106 callgsubr
          endchar
        </CharString>
        <CharString name="uhorn">
          13 683 514 -97 callsubr
          endchar
        </CharString>
        <CharString name="uhungarumlaut">
          13 189 530 rmoveto
          -51 callsubr
          -65 -134 rlineto
          222 -32 rmoveto
          -51 callsubr
          -65 -134 rlineto
          -77 -574 -106 callgsubr
          endchar
        </CharString>
        <CharString name="umacron">
          13 106 586 -4 callgsubr
          117 -681 -106 callgsubr
          endchar
        </CharString>
        <CharString name="underscore">
          -127 10 1 rmoveto
          -94 440 94 vlineto
          endchar
        </CharString>
        <CharString name="uni00A0">
          -415 endchar
        </CharString>
        <CharString name="uni00AD">
          22 callsubr
        </CharString>
        <CharString name="uni00B2">
          -237 29 418 rmoveto
          -62 300 130 -61 vlineto
          -15 callgsubr
          endchar
        </CharString>
        <CharString name="uni00B3">
          -237 41 482 rmoveto
          -108 vlineto
          -12 23 69 -12 39 hhcurveto
          9 callsubr
          -48 -29 -8 -13 -7 callgsubr
          -14 7 4 -6 hvcurveto
          -7 45 rlineto
          endchar
        </CharString>
        <CharString name="uni00B5">
          -37 callgsubr
        </CharString>
        <CharString name="uni00B9">
          -237 53 430 12 callsubr
          endchar
        </CharString>
        <CharString name="uni0162">
          -14 276 -40 callgsubr
          30 128 56 vlineto
          -3 callgsubr
          -56 125 vlineto
          -29 -64 -66 callsubr
        </CharString>
        <CharString name="uni0163">
          -216 195 -40 callgsubr
          21 vlineto
          1 78 63 53 -1 hhcurveto
          -17 51 rlineto
          0 -38 -16 -38 -33 -21 10 54 vhcurveto
          279 127 vlineto
          14 30 rlineto
          46 -141 131 -88 vlineto
          -44 -121 -96 -21 rlineto
          -65 96 -297 vlineto
          -73 22 -44 66 -13 vhcurveto
          -27 -60 -66 callsubr
        </CharString>
        <CharString name="uni018F">
          90 323 -18 rmoveto
          195 120 133 217 3 hvcurveto
          220 -3 -103 114 -200 hhcurveto
          -123 -74 -28 -17 -40 hvcurveto
          -180 74 vlineto
          23 119 rlineto
          10 23 39 13 52 hhcurveto
          105 55 -39 -171 8 hvcurveto
          -438 hlineto
          -3 -19 -1 -20 -21 vvcurveto
          -219 107 -112 181 vhcurveto
          23 83 rmoveto
          -94 -47 61 170 -6 hvcurveto
          279 hlineto
          -176 -2 -42 -55 -88 hhcurveto
          endchar
        </CharString>
        <CharString name="uni019D">
          142 115 -169 rmoveto
          67 32 37 53 hvcurveto
          526 4 vlineto
          4 -15 284 -432 rlineto
          123 573 hlineto
          -54 callgsubr
          80 -18 rlineto
          -355 -4 vlineto
          -4 15 -263 415 rlineto
          -210 -61 hlineto
          66 -13 rlineto
          -651 vlineto
          -102 -23 rlineto
          -51 vlineto
          0 44 -18 58 vhcurveto
          endchar
        </CharString>
        <CharString name="uni01C4">
          645 815 844 -69 callgsubr
          -927 -782 rmoveto
          -46 callsubr
        </CharString>
        <CharString name="uni01C5">
          583 940 538 -94 callgsubr
          -905 -538 rmoveto
          -70 callsubr
          438 -76 rmoveto
          -70 callgsubr
          endchar
        </CharString>
        <CharString name="uni01C6">
          439 791 538 -94 callgsubr
          -572 -550 -57 callgsubr
        </CharString>
        <CharString name="uni01C7">
          351 35 56 rmoveto
          -56 453 188 -66 vlineto
          -27 -14 callgsubr
          -87 hlineto
          -51 7 rlineto
          490 -57 callsubr
          408 118 rmoveto
          -71 callgsubr
        </CharString>
        <CharString name="uni01C8">
          198 639 -77 callsubr
          -604 -505 rmoveto
          -56 483 188 -66 vlineto
          -27 -14 callgsubr
          -117 hlineto
          -51 7 rlineto
          490 -57 callsubr
          485 -244 -62 callsubr
        </CharString>
        <CharString name="uni01C9">
          16 457 -77 callsubr
          -444 -506 -17 callgsubr
          326 -238 -62 callsubr
        </CharString>
        <CharString name="uni01CA">
          557 -23 callgsubr
          694 137 rmoveto
          -71 callgsubr
        </CharString>
        <CharString name="uni01CB">
          434 875 -77 callsubr
          -840 -561 rmoveto
          -96 callsubr
          801 -225 -62 callsubr
        </CharString>
        <CharString name="uni01CC">
          308 749 -77 callsubr
          -728 -561 rmoveto
          -93 callsubr
          689 -224 -62 callsubr
        </CharString>
        <CharString name="uni01CD">
          66 186 844 -69 callgsubr
          -341 -720 -104 callsubr
        </CharString>
        <CharString name="uni01CE">
          -67 256 538 -94 callgsubr
          -77 -550 rmoveto
          -107 callgsubr
          endchar
        </CharString>
        <CharString name="uni01CF">
          -215 45 844 -69 callgsubr
          -157 -726 -82 callgsubr
          endchar
        </CharString>
        <CharString name="uni01D0">
          -276 160 538 -94 callgsubr
          -141 -483 -75 callgsubr
          endchar
        </CharString>
        <CharString name="uni01D1">
          120 213 844 -69 callgsubr
          -19 -800 -105 callgsubr
          endchar
        </CharString>
        <CharString name="uni01D2">
          -57 261 538 -94 callgsubr
          -4 -552 -103 callgsubr
          endchar
        </CharString>
        <CharString name="uni01D3">
          97 201 844 -69 callgsubr
          -265 -209 -100 callsubr
          endchar
        </CharString>
        <CharString name="uni01D4">
          13 296 538 -94 callgsubr
          -60 -550 -106 callgsubr
          endchar
        </CharString>
        <CharString name="uni01D5">
          97 177 1005 -43 callsubr
          -308 -310 rmoveto
          -102 callgsubr
          245 hmoveto
          -102 callgsubr
          -377 -122 -100 callsubr
          endchar
        </CharString>
        <CharString name="uni01D6">
          13 135 888 -43 callsubr
          -298 -327 rmoveto
          -102 callgsubr
          225 hmoveto
          -102 callgsubr
          -172 -573 -106 callgsubr
          endchar
        </CharString>
        <CharString name="uni01D7">
          97 293 870 -97 callgsubr
          -53 -225 rmoveto
          -102 callgsubr
          245 hmoveto
          -102 callgsubr
          -377 -122 -100 callsubr
          endchar
        </CharString>
        <CharString name="uni01D8">
          13 256 797 rmoveto
          -80 callgsubr
          -169 -351 rmoveto
          -102 callgsubr
          225 hmoveto
          -102 callgsubr
          -172 -573 -106 callgsubr
          endchar
        </CharString>
        <CharString name="uni01D9">
          97 203 1043 -69 callgsubr
          -135 -286 rmoveto
          -102 callgsubr
          245 hmoveto
          -102 callgsubr
          -377 -122 -100 callsubr
          endchar
        </CharString>
        <CharString name="uni01DA">
          13 298 757 -94 callgsubr
          -115 -196 rmoveto
          -102 callgsubr
          225 hmoveto
          -102 callgsubr
          -172 -573 -106 callgsubr
          endchar
        </CharString>
        <CharString name="uni01DB">
          97 394 870 rmoveto
          -86 callgsubr
          41 -243 rmoveto
          -102 callgsubr
          245 hmoveto
          -102 callgsubr
          -377 -122 -100 callsubr
          endchar
        </CharString>
        <CharString name="uni01DC">
          13 156 863 rmoveto
          176 -109 36 43 -73 callgsubr
          27 -302 rmoveto
          -102 callgsubr
          225 hmoveto
          -102 callgsubr
          -172 -573 -106 callgsubr
          endchar
        </CharString>
        <CharString name="uni01EA">
          120 497 15 rmoveto
          112 55 63 117 148 vvcurveto
          218 -110 113 -196 -206 -125 -146 -207 -218 110 -113 196 16 16 1 2 15 vhcurveto
          -30 -24 -24 -33 -41 -21 callgsubr
          -52 callgsubr
          46 60 44 10 6 hvcurveto
          -299 325 rmoveto
          185 48 57 102 110 50 -72 -201 -186 -46 -58 -102 -111 -51 73 202 vhcurveto
          endchar
        </CharString>
        <CharString name="uni01EB">
          -57 386 15 rmoveto
          88 46 31 99 103 vvcurveto
          146 -65 102 -160 -184 -71 -133 -138 -158 62 -96 170 8 8 0 1 8 vhcurveto
          -31 -24 -26 -34 -42 -21 callgsubr
          -52 callgsubr
          45 57 42 12 9 hvcurveto
          -219 230 rmoveto
          126 13 55 89 78 16 -53 -128 -113 -8 -70 -81 -95 -12 57 126 vhcurveto
          endchar
        </CharString>
        <CharString name="uni01F1">
          645 35 hmoveto
          -46 callsubr
        </CharString>
        <CharString name="uni01F2">
          583 35 hmoveto
          -70 callsubr
          438 -76 rmoveto
          -70 callgsubr
          endchar
        </CharString>
        <CharString name="uni01F3">
          439 219 -12 -57 callgsubr
        </CharString>
        <CharString name="uni01F4">
          61 317 671 -97 callgsubr
          149 -462 -93 callgsubr
        </CharString>
        <CharString name="uni01F5">
          -107 194 578 rmoveto
          -80 callgsubr
          -74 -859 -105 callsubr
        </CharString>
        <CharString name="uni0200">
          66 229 -77 callgsubr
          -258 -720 -104 callsubr
        </CharString>
        <CharString name="uni0201">
          -67 170 -78 callgsubr
          -229 -574 rmoveto
          -107 callgsubr
          endchar
        </CharString>
        <CharString name="uni0202">
          66 436 -64 callsubr
          -444 -634 -104 callsubr
        </CharString>
        <CharString name="uni0203">
          -67 350 -65 callsubr
          -171 -562 rmoveto
          -107 callgsubr
          endchar
        </CharString>
        <CharString name="uni0204">
          -6 214 -77 callgsubr
          -200 -726 -104 callgsubr
          endchar
        </CharString>
        <CharString name="uni0205">
          -99 164 -78 callgsubr
          -141 -574 -106 callsubr
          endchar
        </CharString>
        <CharString name="uni0206">
          -6 421 -64 callsubr
          -386 -640 -104 callgsubr
          endchar
        </CharString>
        <CharString name="uni0207">
          -99 344 -65 callsubr
          -83 -562 -106 callsubr
          endchar
        </CharString>
        <CharString name="uni0208">
          -215 88 -77 callgsubr
          -74 -726 -82 callgsubr
          endchar
        </CharString>
        <CharString name="uni0209">
          -276 74 -78 callgsubr
          -293 -507 -75 callgsubr
          endchar
        </CharString>
        <CharString name="uni020A">
          -215 295 -64 callsubr
          -260 -640 -82 callgsubr
          endchar
        </CharString>
        <CharString name="uni020B">
          -276 254 -65 callsubr
          -235 -495 -75 callgsubr
          endchar
        </CharString>
        <CharString name="uni020C">
          120 256 -77 callgsubr
          64 -800 -105 callgsubr
          endchar
        </CharString>
        <CharString name="uni020D">
          -57 175 -78 callgsubr
          -156 -576 -103 callgsubr
          endchar
        </CharString>
        <CharString name="uni020E">
          120 463 -64 callsubr
          -122 -714 -105 callgsubr
          endchar
        </CharString>
        <CharString name="uni020F">
          -57 355 -65 callsubr
          -98 -564 -103 callgsubr
          endchar
        </CharString>
        <CharString name="uni0210">
          40 216 -77 callgsubr
          -202 -782 rmoveto
          -76 callsubr
          endchar
        </CharString>
        <CharString name="uni0211">
          -173 105 -78 callgsubr
          -323 -507 -62 callgsubr
        </CharString>
        <CharString name="uni0212">
          40 423 -64 callsubr
          -388 -696 rmoveto
          -76 callsubr
          endchar
        </CharString>
        <CharString name="uni0213">
          -173 285 -65 callsubr
          -265 -495 -62 callgsubr
        </CharString>
        <CharString name="uni0214">
          97 244 -77 callgsubr
          -182 -209 -100 callsubr
          endchar
        </CharString>
        <CharString name="uni0215">
          13 210 -78 callgsubr
          -212 -574 -106 callgsubr
          endchar
        </CharString>
        <CharString name="uni0216">
          97 451 -64 callsubr
          -368 -123 -100 callsubr
          endchar
        </CharString>
        <CharString name="uni0217">
          13 390 -65 callsubr
          -154 -562 -106 callgsubr
          endchar
        </CharString>
        <CharString name="uni021A">
          -14 137 hmoveto
          302 56 hlineto
          -3 callgsubr
          98 -268 -88 callgsubr
        </CharString>
        <CharString name="uni021B">
          -216 91 423 -58 callsubr
          158 -635 -88 callgsubr
        </CharString>
        <CharString name="uni0232">
          26 159 806 -43 callsubr
          -343 -750 -90 callsubr
        </CharString>
        <CharString name="uni0232.loclGUA">
          100 521 806 28 callsubr
          -129 -75 -99 callgsubr
        </CharString>
        <CharString name="uni0233">
          -84 453 669 28 callsubr
          -144 -90 -98 callsubr
          endchar
        </CharString>
        <CharString name="uni0233.loclGUA">
          -15 133 669 -43 callsubr
          -216 -834 -98 callgsubr
        </CharString>
        <CharString name="uni0237">
          -295 -5 -100 -22 callgsubr
        </CharString>
        <CharString name="uni0259">
          -99 227 506 rmoveto
          -109 -72 -70 0 hvcurveto
          19 -42 rlineto
          0 46 24 83 101 30 -52 -96 1 vhcurveto
          -245 hlineto
          -31 -16 -15 -69 -90 40 -111 157 141 96 99 172 190 -87 60 -154 hvcurveto
          99 -301 rmoveto
          -78 -3 -15 -59 -70 hhcurveto
          -58 -8 31 66 8 1 12 2 12 hvcurveto
          endchar
        </CharString>
        <CharString name="uni0272">
          13 107 -169 rmoveto
          77 45 33 57 hvcurveto
          492 -96 callgsubr
          -486 20 callsubr
        </CharString>
        <CharString name="uni02BC">
          -456 10 541 -54 callsubr
          endchar
        </CharString>
        <CharString name="uni02C9">
          -222 16 669 -43 callsubr
          endchar
        </CharString>
        <CharString name="uni0302">
          -320 581 -102 callsubr
          endchar
        </CharString>
        <CharString name="uni0302.case">
          -347 712 -101 callgsubr
          endchar
        </CharString>
        <CharString name="uni03020300">
          -221 790 rmoveto
          176 -109 36 43 -73 callgsubr
          -125 -209 -102 callsubr
          endchar
        </CharString>
        <CharString name="uni03020300.case">
          8 815 rmoveto
          -86 callgsubr
          -135 -171 -101 callgsubr
          endchar
        </CharString>
        <CharString name="uni03020301">
          -221 724 rmoveto
          -80 callgsubr
          -317 -258 -102 callsubr
          endchar
        </CharString>
        <CharString name="uni03020301.case">
          -91 815 -97 callgsubr
          -231 -153 -101 callgsubr
          endchar
        </CharString>
        <CharString name="uni03020303">
          -359 -72 callgsubr
          endchar
        </CharString>
        <CharString name="uni03020303.case">
          -99 -72 callsubr
          endchar
        </CharString>
        <CharString name="uni03020309">
          -161 682 -100 callgsubr
          -252 -101 -102 callsubr
          endchar
        </CharString>
        <CharString name="uni03020309.case">
          -79 803 -101 callsubr
          -268 -91 -101 callgsubr
          endchar
        </CharString>
        <CharString name="uni0304">
          -349 669 -43 callsubr
          endchar
        </CharString>
        <CharString name="uni0304.case">
          -346 806 -43 callsubr
          endchar
        </CharString>
        <CharString name="uni0306">
          -255 719 -42 callgsubr
        </CharString>
        <CharString name="uni0306.case">
          -294 -63 callgsubr
          endchar
        </CharString>
        <CharString name="uni03060300">
          -318 799 rmoveto
          176 -109 36 43 -73 callgsubr
          53 -80 -42 callgsubr
        </CharString>
        <CharString name="uni03060300.case">
          -132 834 rmoveto
          -86 callgsubr
          58 -51 -38 callgsubr
        </CharString>
        <CharString name="uni03060301">
          -221 733 rmoveto
          -80 callgsubr
          -143 -129 -42 callgsubr
        </CharString>
        <CharString name="uni03060301.case">
          -233 834 -97 callgsubr
          -36 -33 -38 callgsubr
        </CharString>
        <CharString name="uni03060303">
          -359 834 rmoveto
          -39 -54 35 -28 75 33 92 -26 rlineto
          -7 26 29 -8 24 hhcurveto
          29 23 10 25 17 hvcurveto
          39 54 -35 29 -75 -33 -89 26 rlineto
          7 -25 -33 7 -20 hhcurveto
          -29 -27 -10 -25 -17 hvcurveto
          63 -115 -42 callgsubr
        </CharString>
        <CharString name="uni03060303.case">
          -110 889 rmoveto
          28 30 5 35 29 hvcurveto
          35 42 -38 29 -72 -30 -100 26 rlineto
          7 -24 -13 1 -20 hhcurveto
          -29 -29 -4 -35 -29 hvcurveto
          -35 -42 39 -30 71 31 100 -26 rlineto
          -7 24 13 -2 20 hhcurveto
          -184 -38 -38 callgsubr
        </CharString>
        <CharString name="uni03060309">
          -207 691 -100 callgsubr
          -58 28 -42 callgsubr
        </CharString>
        <CharString name="uni03060309.case">
          -216 824 -101 callsubr
          -78 27 -38 callgsubr
        </CharString>
        <CharString name="uni0307">
          -86 -77 callsubr
          endchar
        </CharString>
        <CharString name="uni0307.case">
          -86 -44 callgsubr
          endchar
        </CharString>
        <CharString name="uni0308">
          -304 561 rmoveto
          -102 callgsubr
          225 hmoveto
          -102 callgsubr
          endchar
        </CharString>
        <CharString name="uni0308.case">
          -324 695 rmoveto
          -102 callgsubr
          245 hmoveto
          -102 callgsubr
          endchar
        </CharString>
        <CharString name="uni030A">
          -198 649 -33 callsubr
          endchar
        </CharString>
        <CharString name="uni030A.case">
          -206 -9 callgsubr
          endchar
        </CharString>
        <CharString name="uni030B">
          -289 696 rmoveto
          -65 -134 49 -32 -51 callsubr
          173 hmoveto
          -65 -134 49 -32 -51 callsubr
          endchar
        </CharString>
        <CharString name="uni030B.case">
          -359 671 -48 callgsubr
          225 -42 -48 callgsubr
          endchar
        </CharString>
        <CharString name="uni030C">
          -168 538 -94 callgsubr
          endchar
        </CharString>
        <CharString name="uni030C.case">
          -315 844 -69 callgsubr
          endchar
        </CharString>
        <CharString name="uni030F">
          -236 -78 callgsubr
          endchar
        </CharString>
        <CharString name="uni030F.case">
          -225 -77 callgsubr
          endchar
        </CharString>
        <CharString name="uni0311">
          -74 -65 callsubr
          endchar
        </CharString>
        <CharString name="uni0311.case">
          -75 -64 callsubr
          endchar
        </CharString>
        <CharString name="uni031B">
          -260 306 rmoveto
          182 89 47 67 52 -44 callsubr
          -51 -74 -54 -63 -32 vhcurveto
          endchar
        </CharString>
        <CharString name="uni0326">
          -112 -212 -88 callgsubr
        </CharString>
        <CharString name="uni0327">
          -124 -40 callgsubr
          30 -49 vlineto
          -29 -64 -66 callsubr
        </CharString>
        <CharString name="uni0328">
          10 -136 rmoveto
          -52 callgsubr
          50 71 47 0 hvcurveto
          -58 hlineto
          -48 -22 -58 -44 -63 -21 callgsubr
          endchar
        </CharString>
        <CharString name="uni0335">
          -376 296 rmoveto
          345 77 -345 hlineto
          endchar
        </CharString>
        <CharString name="uni0336">
          -731 417 rmoveto
          700 77 -700 hlineto
          endchar
        </CharString>
        <CharString name="uni0394">
          -11 callsubr
        </CharString>
        <CharString name="uni03A9">
          -45 callsubr
        </CharString>
        <CharString name="uni03BC">
          -37 callgsubr
        </CharString>
        <CharString name="uni1E0C">
          125 35 hmoveto
          -70 callsubr
          62 -282 -103 callsubr
          endchar
        </CharString>
        <CharString name="uni1E0D">
          -45 callgsubr
          10 -282 -103 callsubr
          endchar
        </CharString>
        <CharString name="uni1E24">
          -26 callgsubr
          261 -281 -103 callsubr
          endchar
        </CharString>
        <CharString name="uni1E25">
          13 18 hmoveto
          -58 callgsubr
          277 -261 -103 callsubr
          endchar
        </CharString>
        <CharString name="uni1E44">
          142 360 -44 callgsubr
          -325 -691 rmoveto
          -96 callsubr
          endchar
        </CharString>
        <CharString name="uni1E45">
          16 297 -77 callsubr
          -276 -561 rmoveto
          -94 callsubr
        </CharString>
        <CharString name="uni1E5A">
          40 35 hmoveto
          -76 callsubr
          36 -546 -103 callsubr
          endchar
        </CharString>
        <CharString name="uni1E5B">
          -173 20 55 -60 callgsubr
          61 -275 -103 callsubr
          endchar
        </CharString>
        <CharString name="uni1E62">
          -51 252 -17 -95 callgsubr
          11 -189 -103 callsubr
          endchar
        </CharString>
        <CharString name="uni1E63">
          -147 52 164 rmoveto
          -17 callsubr
          96 102 38 123 hvcurveto
          -84 callgsubr
          -43 -23 17 8 -11 vhcurveto
          -24 80 rlineto
          100 -370 -103 callsubr
          endchar
        </CharString>
        <CharString name="uni1E6C">
          -8 callgsubr
          62 -281 -103 callsubr
          endchar
        </CharString>
        <CharString name="uni1E6D">
          -196 92 423 -58 callsubr
          186 -629 -103 callsubr
          endchar
        </CharString>
        <CharString name="uni1E92">
          -67 5 76 rmoveto
          -76 508 178 -70 vlineto
          -63 callsubr
          -82 -765 -103 callsubr
          endchar
        </CharString>
        <CharString name="uni1E93">
          -129 15 hmoveto
          -70 callgsubr
          209 -286 -103 callsubr
          endchar
        </CharString>
        <CharString name="uni1E9E">
          144 471 -17 rmoveto
          111 108 61 139 99 -57 69 -122 19 hvcurveto
          8 vlineto
          137 194 rlineto
          68 vlineto
          9 -34 -126 17 -77 hhcurveto
          -215 -113 -133 -190 hvcurveto
          -268 21 callsubr
          -56 222 369 vlineto
          142 38 71 134 39 35 -4 -5 30 vhcurveto
          -10 vlineto
          -131 -188 rlineto
          -75 19 vlineto
          151 24 -76 -57 -55 -22 -47 -61 -38 -30 18 15 -13 hvcurveto
          -21 103 rlineto
          -70 -178 hlineto
          -12 18 70 -28 74 hhcurveto
          endchar
        </CharString>
        <CharString name="uni1EA0">
          66 -8 62 -37 callsubr
        </CharString>
        <CharString name="uni1EA1">
          -67 179 -12 rmoveto
          -107 callgsubr
          7 -280 -103 callsubr
          endchar
        </CharString>
        <CharString name="uni1EA2">
          66 293 671 -101 callsubr
          -301 -609 -104 callsubr
        </CharString>
        <CharString name="uni1EA3">
          -67 225 536 -100 callgsubr
          -46 -548 rmoveto
          -107 callgsubr
          endchar
        </CharString>
        <CharString name="uni1EA4">
          66 412 815 -97 callgsubr
          -231 -153 -101 callgsubr
          -286 -751 -104 callsubr
        </CharString>
        <CharString name="uni1EA5">
          -67 304 724 rmoveto
          -80 callgsubr
          -317 -258 -102 callsubr
          -5 -697 rmoveto
          -107 callgsubr
          endchar
        </CharString>
        <CharString name="uni1EA6">
          66 502 815 rmoveto
          -86 callgsubr
          -135 -171 -101 callgsubr
          -277 -751 -104 callsubr
        </CharString>
        <CharString name="uni1EA7">
          -67 216 790 rmoveto
          176 -109 36 43 -73 callgsubr
          -125 -209 -102 callsubr
          -13 -697 rmoveto
          -107 callgsubr
          endchar
        </CharString>
        <CharString name="uni1EA8">
          66 415 803 -101 callsubr
          -268 -91 -101 callgsubr
          -277 -751 -104 callsubr
        </CharString>
        <CharString name="uni1EA9">
          -67 330 682 -100 callgsubr
          -252 -101 -102 callsubr
          -697 vmoveto
          -107 callgsubr
          endchar
        </CharString>
        <CharString name="uni1EAA">
          66 399 -72 callsubr
          -281 -751 -104 callsubr
        </CharString>
        <CharString name="uni1EAB">
          -67 104 -72 callgsubr
          -25 -697 rmoveto
          -107 callgsubr
          endchar
        </CharString>
        <CharString name="uni1EAC">
          66 153 712 -101 callgsubr
          -283 -751 -37 callsubr
        </CharString>
        <CharString name="uni1EAD">
          -67 105 581 -102 callsubr
          -27 -697 rmoveto
          -107 callgsubr
          7 -280 -103 callsubr
          endchar
        </CharString>
        <CharString name="uni1EAE">
          66 278 834 -97 callgsubr
          -36 -33 -80 callsubr
          endchar
        </CharString>
        <CharString name="uni1EAF">
          -67 215 733 rmoveto
          -80 callgsubr
          -143 -129 -91 callsubr
          11 -731 rmoveto
          -107 callgsubr
          endchar
        </CharString>
        <CharString name="uni1EB0">
          66 379 834 rmoveto
          -86 callgsubr
          58 -51 -80 callsubr
          endchar
        </CharString>
        <CharString name="uni1EB1">
          -67 116 799 rmoveto
          176 -109 36 43 -73 callgsubr
          53 -80 -91 callsubr
          10 -731 rmoveto
          -107 callgsubr
          endchar
        </CharString>
        <CharString name="uni1EB2">
          66 295 824 -101 callsubr
          -78 27 -80 callsubr
          endchar
        </CharString>
        <CharString name="uni1EB3">
          -67 227 691 -100 callgsubr
          -58 28 -91 callsubr
          10 -731 rmoveto
          -107 callgsubr
          endchar
        </CharString>
        <CharString name="uni1EB4">
          66 399 889 rmoveto
          28 30 5 35 29 hvcurveto
          35 42 -38 29 -72 -30 -100 26 rlineto
          7 -24 -13 1 -20 hhcurveto
          -29 -29 -4 -35 -29 hvcurveto
          -35 -42 39 -30 71 31 100 -26 rlineto
          -7 24 13 -2 20 hhcurveto
          -184 -38 -92 callgsubr
          -223 -26 callsubr
        </CharString>
        <CharString name="uni1EB5">
          -67 104 834 rmoveto
          -39 -54 35 -28 75 33 92 -26 rlineto
          -7 26 29 -8 24 hhcurveto
          29 23 10 25 17 hvcurveto
          39 54 -35 29 -75 -33 -89 26 rlineto
          7 -25 -33 7 -20 hhcurveto
          -29 -27 -10 -25 -17 hvcurveto
          63 -115 -91 callsubr
          12 -731 rmoveto
          -107 callgsubr
          endchar
        </CharString>
        <CharString name="uni1EB6">
          66 217 851 -80 callsubr
          12 -678 -103 callsubr
          endchar
        </CharString>
        <CharString name="uni1EB7">
          -67 169 719 -91 callsubr
          10 -731 rmoveto
          -107 callgsubr
          7 -280 -103 callsubr
          endchar
        </CharString>
        <CharString name="uni1EB8">
          -6 35 56 -104 callgsubr
          171 -281 -103 callsubr
          endchar
        </CharString>
        <CharString name="uni1EB9">
          -99 261 -12 -106 callsubr
          -64 -503 -103 callsubr
          endchar
        </CharString>
        <CharString name="uni1EBA">
          -6 278 671 -101 callsubr
          -243 -615 -104 callgsubr
          endchar
        </CharString>
        <CharString name="uni1EBB">
          -99 219 536 -100 callgsubr
          42 -548 -106 callsubr
          endchar
        </CharString>
        <CharString name="uni1EBC">
          -6 384 700 rmoveto
          28 30 -83 callsubr
          -349 -644 -104 callgsubr
          endchar
        </CharString>
        <CharString name="uni1EBD">
          -99 98 667 rmoveto
          -39 -62 35 -33 75 38 -87 callsubr
          163 -679 -106 callsubr
          endchar
        </CharString>
        <CharString name="uni1EBE">
          -6 397 815 -97 callgsubr
          -231 -153 -101 callgsubr
          -228 -757 -104 callgsubr
          endchar
        </CharString>
        <CharString name="uni1EBF">
          -99 298 724 rmoveto
          -80 callgsubr
          -317 -258 -102 callsubr
          83 -697 -106 callsubr
          endchar
        </CharString>
        <CharString name="uni1EC0">
          -6 487 815 rmoveto
          -86 callgsubr
          -135 -171 -101 callgsubr
          -219 -757 -104 callgsubr
          endchar
        </CharString>
        <CharString name="uni1EC1">
          -99 210 790 rmoveto
          176 -109 36 43 -73 callgsubr
          -125 -209 -102 callsubr
          75 -697 -106 callsubr
          endchar
        </CharString>
        <CharString name="uni1EC2">
          -6 400 803 -101 callsubr
          -268 -91 -101 callgsubr
          -219 -757 -104 callgsubr
          endchar
        </CharString>
        <CharString name="uni1EC3">
          -99 324 682 -100 callgsubr
          -252 -101 -102 callsubr
          88 -697 -106 callsubr
          endchar
        </CharString>
        <CharString name="uni1EC4">
          -6 384 -72 callsubr
          -223 -757 -104 callgsubr
          endchar
        </CharString>
        <CharString name="uni1EC5">
          -99 98 -72 callgsubr
          63 -697 -106 callsubr
          endchar
        </CharString>
        <CharString name="uni1EC6">
          -6 138 712 -101 callgsubr
          -225 -757 -104 callgsubr
          171 -281 -103 callsubr
          endchar
        </CharString>
        <CharString name="uni1EC7">
          -99 99 581 -102 callsubr
          61 -697 -106 callsubr
          -64 -503 -103 callsubr
          endchar
        </CharString>
        <CharString name="uni1EC8">
          -215 152 671 -101 callsubr
          -117 -615 -82 callgsubr
          endchar
        </CharString>
        <CharString name="uni1EC9">
          -276 129 536 -100 callgsubr
          -110 -481 -75 callgsubr
          endchar
        </CharString>
        <CharString name="uni1ECA">
          -215 35 56 -82 callgsubr
          66 -281 -103 callsubr
          endchar
        </CharString>
        <CharString name="uni1ECB">
          -19 callgsubr
          61 -275 -103 callsubr
          endchar
        </CharString>
        <CharString name="uni1ECC">
          120 341 -18 -105 callgsubr
          -11 -271 -103 callsubr
          endchar
        </CharString>
        <CharString name="uni1ECD">
          -57 257 -14 -103 callgsubr
          -14 -268 -103 callsubr
          endchar
        </CharString>
        <CharString name="uni1ECE">
          120 320 671 -101 callsubr
          21 -689 -105 callgsubr
          endchar
        </CharString>
        <CharString name="uni1ECF">
          -57 230 536 -100 callgsubr
          27 -550 -103 callgsubr
          endchar
        </CharString>
        <CharString name="uni1ED0">
          120 439 815 -97 callgsubr
          -231 -153 -101 callgsubr
          36 -831 -105 callgsubr
          endchar
        </CharString>
        <CharString name="uni1ED1">
          -57 309 724 rmoveto
          -80 callgsubr
          -317 -258 -102 callsubr
          68 -699 -103 callgsubr
          endchar
        </CharString>
        <CharString name="uni1ED2">
          120 529 815 rmoveto
          -86 callgsubr
          -135 -171 -101 callgsubr
          45 -831 -105 callgsubr
          endchar
        </CharString>
        <CharString name="uni1ED3">
          -57 221 790 rmoveto
          176 -109 36 43 -73 callgsubr
          -125 -209 -102 callsubr
          60 -699 -103 callgsubr
          endchar
        </CharString>
        <CharString name="uni1ED4">
          120 442 803 -101 callsubr
          -268 -91 -101 callgsubr
          45 -831 -105 callgsubr
          endchar
        </CharString>
        <CharString name="uni1ED5">
          -57 335 682 -100 callgsubr
          -252 -101 -102 callsubr
          73 -699 -103 callgsubr
          endchar
        </CharString>
        <CharString name="uni1ED6">
          120 426 -72 callsubr
          41 -831 -105 callgsubr
          endchar
        </CharString>
        <CharString name="uni1ED7">
          -57 109 -72 callgsubr
          48 -699 -103 callgsubr
          endchar
        </CharString>
        <CharString name="uni1ED8">
          120 180 712 -101 callgsubr
          39 -831 -105 callgsubr
          -11 -271 -103 callsubr
          endchar
        </CharString>
        <CharString name="uni1ED9">
          -57 110 581 -102 callsubr
          46 -699 -103 callgsubr
          -14 -268 -103 callsubr
          endchar
        </CharString>
        <CharString name="uni1EDA">
          120 523 739 -14 callsubr
          487 -3 -92 callsubr
        </CharString>
        <CharString name="uni1EDB">
          -57 431 10 callgsubr
          363 -21 -87 callgsubr
        </CharString>
        <CharString name="uni1EDC">
          120 404 671 rmoveto
          -86 callgsubr
          606 -71 -92 callsubr
        </CharString>
        <CharString name="uni1EDD">
          -57 331 578 rmoveto
          -73 callgsubr
          176 -109 rlineto
          323 -21 -87 callgsubr
        </CharString>
        <CharString name="uni1EDE">
          120 336 788 rmoveto
          26 12 -5 -16 -16 -13 -8 -12 -7 hvcurveto
          -29 -16 -11 -10 -12 vvcurveto
          -7 4 -9 7 -11 vhcurveto
          69 7 -5 20 12 3 27 12 rlinecurve
          36 18 13 22 23 -99 callsubr
          454 -120 -92 callsubr
        </CharString>
        <CharString name="uni1EDF">
          -57 246 670 rmoveto
          26 12 -7 -16 -18 -13 -9 -12 -8 hvcurveto
          -29 -19 -11 -11 -14 vvcurveto
          -9 4 -10 7 -13 vhcurveto
          69 8 rlineto
          -1 4 0 4 2 vvcurveto
          13 9 3 26 15 vhcurveto
          36 21 13 25 27 -99 callsubr
          372 -156 -87 callgsubr
        </CharString>
        <CharString name="uni1EE0">
          120 269 744 rmoveto
          -29 callsubr
          -35 -53 39 -37 rlineto
          592 -37 -92 callsubr
        </CharString>
        <CharString name="uni1EE1">
          -57 180 610 rmoveto
          -87 callsubr
          29 callsubr
          rlineto
          513 -58 -87 callgsubr
        </CharString>
        <CharString name="uni1EE2">
          120 790 668 rmoveto
          -89 callgsubr
          -34 -33 -35 -40 -29 vhcurveto
          84 -50 -88 43 -121 hhcurveto
          -206 -125 -146 -207 -218 110 -113 196 209 122 146 207 66 -10 56 -19 47 hvcurveto
          115 67 32 54 43 vvcurveto
          -430 -603 rmoveto
          -111 -51 73 202 185 48 57 102 110 50 -72 -201 -186 -46 -58 -102 hvcurveto
          -3 -105 -19 callsubr
        </CharString>
        <CharString name="uni1EE3">
          -57 618 514 rmoveto
          -89 callgsubr
          -27 -20 -27 -29 -25 vhcurveto
          66 -33 -63 41 -101 -32 callgsubr
          188 60 134 143 36 -4 34 -9 30 hvcurveto
          98 61 28 50 40 vvcurveto
          -344 -452 rmoveto
          -95 -12 57 126 126 13 55 89 78 16 -53 -128 -113 -8 -70 -81 hvcurveto
          -6 -102 -19 callsubr
        </CharString>
        <CharString name="uni1EE4">
          97 83 573 -100 callsubr
          334 -798 -103 callsubr
          endchar
        </CharString>
        <CharString name="uni1EE5">
          13 236 -12 -106 callgsubr
          59 -194 -103 callsubr
          endchar
        </CharString>
        <CharString name="uni1EE6">
          97 308 671 -101 callsubr
          -225 -98 -100 callsubr
          endchar
        </CharString>
        <CharString name="uni1EE7">
          13 265 536 -100 callgsubr
          -29 -548 -106 callgsubr
          endchar
        </CharString>
        <CharString name="uni1EE8">
          97 291 671 -97 callgsubr
          86 -739 -95 callsubr
          endchar
        </CharString>
        <CharString name="uni1EE9">
          13 466 10 callgsubr
          393 -21 -97 callsubr
          endchar
        </CharString>
        <CharString name="uni1EEA">
          97 392 671 rmoveto
          -86 callgsubr
          180 -757 -95 callsubr
          endchar
        </CharString>
        <CharString name="uni1EEB">
          13 366 578 rmoveto
          -73 callgsubr
          176 -109 rlineto
          353 -21 -97 callsubr
          endchar
        </CharString>
        <CharString name="uni1EEC">
          97 308 671 -101 callsubr
          44 -689 -95 callsubr
          endchar
        </CharString>
        <CharString name="uni1EED">
          13 281 670 rmoveto
          26 12 -7 -16 -18 -13 -9 -12 -8 hvcurveto
          -29 -19 -11 -11 -14 vvcurveto
          -9 4 -10 7 -13 vhcurveto
          69 8 rlineto
          -1 4 0 4 2 vvcurveto
          13 9 3 26 15 vhcurveto
          36 21 13 25 27 -99 callsubr
          402 -156 -97 callsubr
          endchar
        </CharString>
        <CharString name="uni1EEE">
          97 414 700 rmoveto
          28 30 -83 callsubr
          -62 -718 -95 callsubr
          endchar
        </CharString>
        <CharString name="uni1EEF">
          13 215 610 rmoveto
          -87 callsubr
          29 callsubr
          rlineto
          543 -58 -97 callsubr
          endchar
        </CharString>
        <CharString name="uni1EF0">
          97 352 -18 -95 callsubr
          -15 -188 -103 callsubr
          endchar
        </CharString>
        <CharString name="uni1EF1">
          13 683 514 -97 callsubr
          -380 -554 -19 callsubr
        </CharString>
        <CharString name="uni1EF4">
          26 162 56 -89 callsubr
          66 -281 -103 callsubr
          endchar
        </CharString>
        <CharString name="uni1EF5">
          -84 296 496 -98 callsubr
          -140 -536 -19 callsubr
        </CharString>
        <CharString name="uni1EF6">
          26 292 671 -101 callsubr
          -130 -615 -90 callsubr
        </CharString>
        <CharString name="uni1EF7">
          -84 255 670 rmoveto
          26 12 -7 -16 -18 -13 -9 -12 -8 hvcurveto
          -29 -19 -11 -11 -14 vvcurveto
          -9 4 -10 7 -13 vhcurveto
          69 8 rlineto
          -1 4 0 4 2 vvcurveto
          13 9 3 26 15 vhcurveto
          36 21 13 25 27 -99 callsubr
          41 -174 -98 callsubr
          endchar
        </CharString>
        <CharString name="uni1EF8">
          26 398 700 rmoveto
          28 30 -83 callsubr
          -236 -644 -90 callsubr
        </CharString>
        <CharString name="uni1EF8.loclGUA">
          100 257 744 rmoveto
          -29 callsubr
          -35 -53 39 -37 rlineto
          193 -57 -99 callgsubr
        </CharString>
        <CharString name="uni1EF9">
          -84 189 610 rmoveto
          -87 callsubr
          29 callsubr
          rlineto
          182 -76 -98 callsubr
          endchar
        </CharString>
        <CharString name="uni1EF9.loclGUA">
          -15 144 667 rmoveto
          -39 -62 35 -33 75 38 -87 callsubr
          119 -832 -98 callgsubr
        </CharString>
        <CharString name="uni20B2">
          21 323 334 5 callsubr
          -171 vlineto
          -8 -20 -26 -5 -23 hhcurveto
          -92 -44 76 169 174 47 78 113 34 31 -7 -12 24 hvcurveto
          17 -108 rlineto
          75 180 hlineto
          23 -75 -48 8 -49 hhcurveto
          -5 101 rlineto
          -77 hlineto
          -6 -110 rlineto
          -150 -31 -94 -119 -189 vvcurveto
          -172 78 -123 157 -19 vhcurveto
          6 -111 rlineto
          76 hlineto
          6 112 42 5 38 14 34 22 rlinecurve
          8 hlineto
          20 -26 rlineto
          45 249 hlineto
          50 17 callgsubr
        </CharString>
        <CharString name="uni20B2.osf">
          21 321 269 5 callsubr
          -116 vlineto
          -7 -19 -27 -6 -34 hhcurveto
          -82 -41 44 148 131 43 61 104 46 31 -10 -9 19 hvcurveto
          21 -108 rlineto
          75 180 hlineto
          -36 9 -54 18 -80 4 -5 104 rcurveline
          -77 hlineto
          -6 -109 rlineto
          -147 -22 -97 -100 -163 vvcurveto
          -162 78 -90 158 -8 vhcurveto
          5 -100 rlineto
          76 hlineto
          5 104 45 7 33 16 26 16 rlinecurve
          9 hlineto
          23 -26 rlineto
          50 194 hlineto
          50 17 callgsubr
        </CharString>
        <CharString name="uni2113">
          -119 246 -12 rmoveto
          91 85 70 -1 hhcurveto
          -19 42 rlineto
          -1 -1 -53 -23 -58 hhcurveto
          -69 -23 23 46 hvcurveto
          40 vlineto
          115 71 120 97 110 vvcurveto
          99 -55 48 -102 -169 -31 -100 -139 vhcurveto
          -178 vlineto
          -21 -13 -21 -14 -23 -15 31 -53 rcurveline
          10 5 12 6 12 7 rrcurveto
          -6 vlineto
          -87 42 -35 128 vhcurveto
          -48 291 rmoveto
          131 vlineto
          92 13 36 51 35 21 -17 -57 -70 -41 -54 -79 -61 vhcurveto
          endchar
        </CharString>
        <CharString name="uni2126">
          -45 callsubr
        </CharString>
        <CharString name="uni2206">
          -11 callsubr
        </CharString>
        <CharString name="uni2215">
          11 callsubr
        </CharString>
        <CharString name="uni2219">
          -396 92 185 rmoveto
          13 callgsubr
        </CharString>
        <CharString name="uniA78B">
          -442 16 650 3 callsubr
        </CharString>
        <CharString name="uniA78C">
          -442 16 706 3 callsubr
        </CharString>
        <CharString name="uogonek">
          13 440 -187 rmoveto
          38 45 21 30 24 hvcurveto
          -24 41 rlineto
          -14 -23 -17 -6 -12 hhcurveto
          -23 -12 12 22 26 19 30 31 25 hvcurveto
          105 14 rlineto
          58 vlineto
          -79 16 rlineto
          404 -79 callsubr
          25 -40 rlineto
          -45 -29 -25 -39 -41 vvcurveto
          -46 37 -28 60 vhcurveto
          endchar
        </CharString>
        <CharString name="uring">
          13 285 -9 callsubr
          -53 -621 -106 callgsubr
          endchar
        </CharString>
        <CharString name="utilde">
          13 144 667 rmoveto
          -39 -62 35 -33 75 38 -87 callsubr
          92 -679 -106 callgsubr
          endchar
        </CharString>
        <CharString name="v">
          -97 36 424 rmoveto
          149 -431 rlineto
          127 hlineto
          144 431 65 12 rlineto
          60 -227 -60 vlineto
          64 -11 rlineto
          -20 vlineto
          -82 -260 -10 -49 -9 49 -76 262 rlineto
          18 vlineto
          59 8 rlineto
          63 -262 -56 vlineto
          endchar
        </CharString>
        <CharString name="w">
          199 173 -7 -79 callgsubr
        </CharString>
        <CharString name="wacute">
          199 372 578 rmoveto
          -80 callgsubr
          -295 -700 -79 callgsubr
        </CharString>
        <CharString name="wcircumflex">
          199 263 581 -102 callsubr
          -191 -692 -79 callgsubr
        </CharString>
        <CharString name="wdieresis">
          199 301 561 rmoveto
          -102 callgsubr
          225 hmoveto
          -102 callgsubr
          -353 -568 -79 callgsubr
        </CharString>
        <CharString name="wgrave">
          199 272 644 rmoveto
          176 -109 36 43 -73 callgsubr
          -99 -651 -79 callgsubr
        </CharString>
        <CharString name="x">
          -78 -15 hmoveto
          234 55 hlineto
          -56 12 rlineto
          10 vlineto
          68 91 75 -115 rlineto
          7 -11 3 -10 -13 vvcurveto
          -19 210 55 vlineto
          -87 25 -115 189 128 158 63 14 rlineto
          55 -226 -55 vlineto
          55 -13 rlineto
          -7 vlineto
          -63 -81 -95 156 rlineto
          -199 -55 hlineto
          84 -25 114 -176 -133 -171 -67 -14 rlineto
          endchar
        </CharString>
        <CharString name="y">
          -84 296 496 -98 callsubr
          endchar
        </CharString>
        <CharString name="y.loclGUA">
          -15 263 -165 -98 callgsubr
        </CharString>
        <CharString name="yacute">
          -84 398 644 rmoveto
          56 -38 31 -24 -21 -18 -20 -18 -15 vhcurveto
          -96 -115 36 -43 rlineto
          74 -39 -98 callsubr
          endchar
        </CharString>
        <CharString name="yacute.loclGUA">
          -15 254 578 rmoveto
          -80 callgsubr
          -87 -858 -98 callgsubr
        </CharString>
        <CharString name="ycircumflex">
          -84 268 610 rmoveto
          121 -72 40 47 -108 108 rlineto
          15 -15 -15 12 -15 hhcurveto
          -19 -19 -17 -18 -18 hvcurveto
          -101 -104 32 -42 rlineto
          145 -43 -98 callsubr
          endchar
        </CharString>
        <CharString name="ycircumflex.loclGUA">
          -15 145 581 -102 callsubr
          17 -850 -98 callgsubr
        </CharString>
        <CharString name="ydieresis">
          -84 166 561 rmoveto
          -102 callgsubr
          225 hmoveto
          -102 callgsubr
          -95 -65 -98 callsubr
          endchar
        </CharString>
        <CharString name="ydieresis.loclGUA">
          -15 183 561 rmoveto
          -102 callgsubr
          225 hmoveto
          -102 callgsubr
          -145 -726 -98 callgsubr
        </CharString>
        <CharString name="yen">
          4 385 648 rmoveto
          -56 vlineto
          71 -16 rlineto
          -8 vlineto
          -122 -236 rlineto
          -10 hlineto
          -121 230 rlineto
          15 vlineto
          63 15 rlineto
          56 -277 -56 vlineto
          65 -16 112 -195 rlineto
          -79 -66 117 hlineto
          35 -60 rlineto
          -152 -69 155 -111 hlineto
          4 callgsubr
          109 vlineto
          157 -4 rlineto
          69 vlineto
          -155 4 31 57 rlineto
          124 68 -87 hlineto
          106 196 72 18 rlineto
          56 vlineto
          endchar
        </CharString>
        <CharString name="yen.osf">
          -36 118 14 callsubr
          45 158 69 -158 vlineto
          3 5 28 56 rlineto
          127 68 -86 hlineto
          70 128 68 17 rlineto
          56 -225 -56 vlineto
          57 -14 rlineto
          -15 vlineto
          -91 -160 rlineto
          -7 hlineto
          -81 160 rlineto
          13 vlineto
          60 16 rlineto
          56 -262 -56 vlineto
          61 -15 68 -127 rlineto
          -86 -66 124 hlineto
          30 -60 rlineto
          -154 -69 154 -51 hlineto
          -16 callgsubr
          endchar
        </CharString>
        <CharString name="ygrave">
          -84 340 578 rmoveto
          -73 callgsubr
          176 -109 rlineto
          -8 -39 -98 callsubr
          endchar
        </CharString>
        <CharString name="ygrave.loclGUA">
          -15 154 644 rmoveto
          176 -109 36 43 -73 callgsubr
          109 -809 -98 callgsubr
        </CharString>
        <CharString name="z">
          -129 15 hmoveto
          -70 callgsubr
          endchar
        </CharString>
        <CharString name="zacute">
          -129 171 535 rmoveto
          -68 callsubr
          -21 -18 -20 -18 -15 vhcurveto
          -96 -115 rlineto
          -120 -578 -23 callsubr
          -7 -9 -241 -331 rlineto
          endchar
        </CharString>
        <CharString name="zacute.loclPLK">
          -129 204 -36 callsubr
          -249 -688 rmoveto
          -70 callgsubr
          endchar
        </CharString>
        <CharString name="zcaron">
          -129 226 538 -94 callgsubr
          -211 -538 -23 callsubr
          -7 -10 -241 -330 rlineto
          endchar
        </CharString>
        <CharString name="zdotaccent">
          -129 226 -77 callsubr
          -211 -561 -23 callsubr
          -248 -340 rlineto
          endchar
        </CharString>
        <CharString name="zero">
          23 -13 92 495 92 hstem
          48 146 224 146 vstem
          298 -18 rmoveto
          189 77 140 203 203 -57 138 -191 -189 -79 -138 -203 -203 59 -140 191 hvcurveto
          8 82 rmoveto
          -89 -23 101 160 159 23 98 89 89 23 -98 -159 -160 -23 -101 -89 hvcurveto
          endchar
        </CharString>
        <CharString name="zero.osf">
          10 299 -14 rmoveto
          166 97 112 162 150 -63 124 -200 -166 -98 -124 -150 -150 63 -124 201 hvcurveto
          -1 96 rmoveto
          -77 -36 60 117 121 35 58 78 73 41 -44 -135 -118 -32 -59 -82 hvcurveto
          endchar
        </CharString>
      <CharString index="0">
        71 47 39 14 14 -4 callsubr
        -29 10 14 -18 56 hhcurveto
        54 58 22 0 hvcurveto
        51 -20 callgsubr
        292 vlineto
        103 -61 33 -112 -84 -131 -40 -90 -45 25 -14 44 28 25 10 0 vhcurveto
        14 91 rlineto
        0 11 5 35 63 11 -29 -47 vhcurveto
        -66 vlineto
        -107 -18 rlineto
        -91 -15 -76 -43 -90 vvcurveto
        -68 42 -62 104 vhcurveto
        69 86 rmoveto
        -55 -19 24 37 40 15 30 118 10 hvcurveto
        -124 vlineto
        -7 -13 -22 -10 -24 hhcurveto
        return
      </CharString>
      <CharString index="1">
        rmoveto
        47 60 20 28 36 -4 callsubr
        28 -45 175 21 callgsubr
        -79 16 rlineto
        404 -81 callgsubr
        -320 vlineto
        -7 -16 -32 -6 -26 27 callgsubr
        -175 -23 rlineto
        -58 vlineto
        80 -16 rlineto
        -280 vlineto
        -96 47 -45 102 vhcurveto
        return
      </CharString>
      <CharString index="2">
        rmoveto
        209 122 146 207 218 -110 113 -196 -206 -125 -146 -207 -218 110 -113 196 hvcurveto
        19 83 rmoveto
        -111 -51 73 202 185 48 57 102 110 50 -72 -201 -186 -46 -58 -102 hvcurveto
        return
      </CharString>
      <CharString index="3">
        rmoveto
        -56 506 197 -66 vlineto
        -26 -121 rlineto
        -144 hlineto
        -48 214 102 hlineto
        22 -76 rlineto
        53 221 -53 hlineto
        -22 -69 rlineto
        -102 199 hlineto
        44 7 rlineto
        138 hlineto
        25 -14 callgsubr
        68 -66 callgsubr
        return
      </CharString>
      <CharString index="4">
        rmoveto
        188 60 134 143 146 -65 102 -160 -184 -71 -133 -138 -158 62 -96 170 hvcurveto
        17 76 rmoveto
        -95 -12 57 126 126 13 55 89 78 16 -53 -128 -113 -8 -70 -81 hvcurveto
        return
      </CharString>
      <CharString index="5">
        48 31 37 43 45 -31 27 -40 -43 -35 -37 -42 -43 30 -30 40 hvcurveto
        return
      </CharString>
      <CharString index="6">
        rmoveto
        27 -41 141 62 148 -62 31 50 -121 93 rlineto
        12 -16 -19 18 -15 hhcurveto
        -8 -8 0 -31 -38 hvcurveto
        return
      </CharString>
      <CharString index="7">
        rmoveto
        69 8 rlineto
        -1 4 0 4 2 vvcurveto
        13 9 3 26 15 vhcurveto
        36 21 13 25 27 -81 callsubr
        -7 -16 -18 -13 -9 -12 -8 hvcurveto
        -29 -19 -11 -11 -14 vvcurveto
        -9 4 -10 7 -13 vhcurveto
        return
      </CharString>
      <CharString index="8">
        5 callsubr
        -251 vlineto
        -13 -33 -36 -7 -32 hhcurveto
        -113 -20 69 123 hvcurveto
        79 1 callgsubr
        -79 vlineto
        -194 64 -85 199 39 39 5 10 35 vhcurveto
        -108 -4 -25 -57 -119 hhcurveto
        -47 -47 9 13 -29 hvcurveto
        -26 121 rlineto
        -70 -178 hlineto
        -22 39 87 -26 106 hhcurveto
        235 42 128 140 hvcurveto
        323 vlineto
        80 17 callgsubr
      </CharString>
      <CharString index="9">
        rmoveto
        172 77 64 144 hvcurveto
        449 -81 callgsubr
        -280 vlineto
        -7 -16 -32 -6 -26 hhcurveto
        -68 -19 19 71 hvcurveto
        286 vlineto
        -37 -61 callsubr
        80 -16 rlineto
        -240 -13 callgsubr
        37 vhcurveto
        -33 vlineto
        -96 -29 -29 -95 -29 -38 5 6 -21 vhcurveto
        -26 91 rlineto
        -70 -148 hlineto
        -21 39 82 -16 70 hhcurveto
        endchar
      </CharString>
      <CharString index="10">
        rmoveto
        220 68 rlineto
        -5 callgsubr
        rlineto
        return
      </CharString>
      <CharString index="11">
        vlineto
        6 32 24 2 21 hhcurveto
        62 17 -17 -60 hvcurveto
        -275 -56 callgsubr
        298 vlineto
        96 -48 48 -94 -44 -58 -20 -32 -49 vhcurveto
        -4 hlineto
        -28 47 -174 -23 rlineto
        -58 vlineto
        79 -16 rlineto
        return
      </CharString>
      <CharString index="12">
        -41 callgsubr
        14 55 vvcurveto
        53 25 28 83 43 33 -10 -9 22 vhcurveto
        21 -104 rlineto
        69 182 hlineto
        10 -35 -82 15 -75 hhcurveto
        -145 -90 -78 -113 -141 111 -31 93 -41 hvcurveto
        114 -50 12 -13 -47 vvcurveto
        -47 -29 -40 -91 -43 -51 18 25 -25 vhcurveto
        -21 103 rlineto
        -70 -178 hlineto
        -15 24 76 -35 113 hhcurveto
        return
      </CharString>
      <CharString index="13">
        rmoveto
        12 18 16 28 29 hvcurveto
        98 95 -32 42 -117 -75 -115 75 -43 -49 91 -88 rlineto
        -28 29 18 -16 12 hhcurveto
        return
      </CharString>
      <CharString index="14">
        rmoveto
        -181 vlineto
        -7 -19 -27 -6 -34 hhcurveto
        -109 -54 59 198 178 55 82 132 46 31 -10 -9 19 hvcurveto
        21 -108 rlineto
        75 180 hlineto
        10 -39 -62 21 -92 hhcurveto
        -207 -142 -129 -229 -212 99 -114 201 79 50 21 23 37 -4 callsubr
        23 -26 rlineto
        50 259 hlineto
        50 -47 callsubr
        -272 -56 vlineto
        endchar
      </CharString>
      <CharString index="15">
        rmoveto
        -75 -55 rlineto
        0 45 -100 150 122 52 117 0 vhcurveto
        -45 32 rlineto
        0 -39 -56 -90 -84 -36 62 0 vhcurveto
        return
      </CharString>
      <CharString index="16">
        vlineto
        -88 callsubr
        return
      </CharString>
      <CharString index="17">
        -28 callsubr
        174 vlineto
        176 325 72 18 rlineto
        56 -247 -56 vlineto
        71 -16 rlineto
        -8 vlineto
        -122 -236 rlineto
        -10 hlineto
        -121 230 rlineto
        15 vlineto
        63 15 rlineto
        56 -277 -56 vlineto
        65 -16 188 -327 rlineto
        -174 vlineto
        return
      </CharString>
      <CharString index="18">
        41 -28 16 -5 4 vhcurveto
        -73 -48 rlineto
        -15 vlineto
        8 -7 6 -7 -15 vvcurveto
        return
      </CharString>
      <CharString index="19">
        rmoveto
        44 hlineto
        0 68 62 67 vvcurveto
        29 -17 30 -45 -26 -16 -14 -16 -14 vhcurveto
        0 20 -19 -45 vvcurveto
        -44 -14 -50 0 vhcurveto
        endchar
      </CharString>
      <CharString index="20">
        rmoveto
        -89 callgsubr
        -27 -20 -27 -29 -25 vhcurveto
        66 -33 -63 41 -101 -32 callgsubr
        188 60 134 143 36 -4 34 -9 30 hvcurveto
        98 61 28 50 40 vvcurveto
        -344 -452 -42 callsubr
      </CharString>
      <CharString index="21">
        25 50 -143 99 rlineto
        10 -18 -19 14 -15 hhcurveto
        -37 -18 -31 -38 -12 2 -12 3 -12 hvcurveto
        return
      </CharString>
      <CharString index="22">
        -23 rlineto
        -58 vlineto
        81 -16 rlineto
        return
      </CharString>
      <CharString index="23">
        203 -260 -67 95 vvcurveto
        28 15 24 66 39 27 -14 0 vhcurveto
        21 -71 rlineto
        63 hlineto
        8 144 rlineto
        5 -18 -71 15 -63 hhcurveto
        -122 -81 -50 -109 hvcurveto
        -206 260 87 -105 vvcurveto
        -48 -16 -19 -68 return
      </CharString>
      <CharString index="24">
        -37 14 -75 callsubr
        return
      </CharString>
      <CharString index="25">
        rmoveto
        -84 callsubr
        -498 vlineto
        return
      </CharString>
      <CharString index="26">
        vlineto
        -38 14 -175 -85 callgsubr
        return
      </CharString>
      <CharString index="27">
        -59 callsubr
        vhcurveto
        -21 -1 -18 -19 -15 -18 rrcurveto
        return
      </CharString>
      <CharString index="28">
        rmoveto
        131 hlineto
        91 339 100 -339 rlineto
        129 hlineto
        140 434 66 12 rlineto
        57 -232 -60 vlineto
        74 -9 -3 -9 -84 -273 -7 -41 -6 41 -84 351 rlineto
        -141 hlineto
        -87 -351 -7 -41 -6 41 -78 274 -2 8 69 9 rlineto
        60 -267 -56 vlineto
        60 -13 rlineto
        endchar
      </CharString>
      <CharString index="29">
        696 rmoveto
        22 -11 -11 23 -27 hhcurveto
        -21 -31 -20 -38 -17 hvcurveto
        134 -153 49 32 rlineto
        108 134 rmoveto
        22 -11 -11 23 -27 hhcurveto
        -21 -31 -20 -38 -17 hvcurveto
        134 -153 49 32 rlineto
        return
      </CharString>
      <CharString index="30">
        671 rmoveto
        35 42 -99 111 rlineto
        16 -14 -14 15 -21 hhcurveto
        -25 -25 -26 -47 -6 hvcurveto
        359 -111 rmoveto
        35 42 -99 111 rlineto
        16 -14 -14 15 -21 hhcurveto
        -25 -25 -26 -47 -6 hvcurveto
        return
      </CharString>
      <CharString index="31">
        -18 42 rlineto
        0 -43 -16 -63 -116 -21 55 134 130 27 31 71 24 17 -5 0 vhcurveto
        18 -99 rlineto
        0 19 -7 16 68 12 29 34 81 -78 50 -99 -110 -127 -67 -205 -171 71 -78 162 return
      </CharString>
      <CharString index="32">
        rmoveto
        -55 281 55 vlineto
        -74 callsubr
        return
      </CharString>
      <CharString index="33">
        -110 16 rlineto
        328 vlineto
        1 5 10 4 10 hhcurveto
        15 11 -3 -3 10 hvcurveto
        74 -23 rlineto
        1 32 34 42 42 -21 15 -34 -44 -72 -64 0 hvcurveto
        -34 56 -174 -23 rlineto
        -58 vlineto
        79 -16 rlineto
        -335 vlineto
        return
      </CharString>
      <CharString index="34">
        -96 115 rlineto
        18 -16 -18 20 -20 hhcurveto
        -25 -37 -31 -56 hvcurveto
        return
      </CharString>
      <CharString index="35">
        836 rmoveto
        -39 -54 35 -28 75 33 92 -26 rlineto
        -7 26 29 -8 24 hhcurveto
        29 23 10 25 17 hvcurveto
        39 54 -35 29 -75 -33 -89 26 rlineto
        7 -25 -33 7 -20 hhcurveto
        -29 -27 -10 -25 -17 hvcurveto
        -1 -255 -102 callsubr
        return
      </CharString>
      <CharString index="36">
        -178 vlineto
        -15 24 53 -18 69 hhcurveto
        155 28 67 71 hvcurveto
        453 -91 callgsubr
        -453 vlineto
        -35 -8 -20 -48 -22 -13 7 0 vhcurveto
        -26 121 rlineto
        endchar
      </CharString>
      <CharString index="37">
        421 162 -75 hlineto
        -19 -86 rlineto
        -180 hlineto
        11 15 251 325 -50 callsubr
        return
      </CharString>
      <CharString index="38">
        rmoveto
        -34 -52 123 -91 rlineto
        -9 12 23 -21 17 hhcurveto
        21 19 20 11 14 -31 callgsubr
        return
      </CharString>
      <CharString index="39">
        89 207 vhcurveto
        295 vlineto
        -54 callgsubr
        return
      </CharString>
      <CharString index="40">
        -789 -107 callsubr
        return
      </CharString>
      <CharString index="41">
        188 -497 -64 callgsubr
        return
      </CharString>
      <CharString index="42">
        -295 vlineto
        -218 64 -78 205 return
      </CharString>
      <CharString index="43">
        -56 hlineto
        -51 callgsubr
        -498 vlineto
        return
      </CharString>
      <CharString index="44">
        851 -92 callgsubr
        return
      </CharString>
      <CharString index="45">
        -60 callgsubr
        endchar
      </CharString>
      <CharString index="46">
        10 callsubr
        44 vlineto
        122 -231 rlineto
        -26 14 15 -7 30 hhcurveto
        141 56 hlineto
        -74 17 -118 212 rlineto
        82 30 51 61 89 vvcurveto
        143 -87 40 -160 vhcurveto
        -282 -32 callsubr
        222 284 rmoveto
        228 vlineto
        2 10 23 2 21 hhcurveto
        86 19 -37 -70 -84 -48 -41 -81 hvcurveto
        return
      </CharString>
      <CharString index="47">
        rmoveto
        -55 321 56 vlineto
        -74 callgsubr
        return
      </CharString>
      <CharString index="48">
        rmoveto
        -98 -8 rlineto
        -92 -8 -84 -38 -105 vvcurveto
        -68 42 -62 104 105 61 44 15 17 vhcurveto
        -43 39 60 -16 81 hhcurveto
        -2 callgsubr
        -52 -45 -14 -25 -35 hvcurveto
        28 -29 -47 11 -64 hhcurveto
        -84 -131 -40 -90 -45 25 -14 44 28 25 10 0 hvcurveto
        14 91 rlineto
        0 11 5 35 63 11 -29 -47 vhcurveto
        295 -51 rmoveto
        -151 -12 rlineto
        78 3 15 61 70 hhcurveto
        58 8 -31 -66 -8 -1 -10 -2 -12 hvcurveto
        -295 -84 rmoveto
        -127 vlineto
        -8 -18 -21 -6 -20 hhcurveto
        -55 -19 24 37 51 15 20 118 9 hvcurveto
        endchar
      </CharString>
      <CharString index="49">
        5 callgsubr
        344 vlineto
        5 20 33 5 24 hhcurveto
        69 10 -26 -53 hvcurveto
        -275 -56 callgsubr
        298 vlineto
        102 -54 40 -88 -66 -62 -35 -17 -25 vhcurveto
        -1 4 8 8 rlineto
        216 -86 callsubr
        -533 23 callsubr
        return
      </CharString>
      <CharString index="50">
        -24 callgsubr
        364 12 rmoveto
        -70 callgsubr
        -314 -4 -47 callgsubr
        endchar
      </CharString>
      <CharString index="51">
        vlineto
        -70 -14 rlineto
        -55 276 55 vlineto
        -74 14 rlineto
        return
      </CharString>
      <CharString index="52">
        rmoveto
        173 76 89 207 hvcurveto
        295 vlineto
        -54 callgsubr
        78 -18 -20 callsubr
        -170 -28 -39 -101 -25 callgsubr
      </CharString>
      <CharString index="53">
        80 18 rlineto
        57 -259 -57 vlineto
        return
      </CharString>
      <CharString index="54">
        rmoveto
        -28 -66 72 -31 29 69 rlineto
        -7 30 32 -4 35 hhcurveto
        209 122 146 207 152 -54 101 -98 47 hvcurveto
        23 54 -70 31 -27 -61 rlineto
        5 -25 -27 2 -28 hhcurveto
        -206 -125 -146 -207 -144 48 -98 88 -50 hvcurveto
        238 551 rmoveto
        -183 -424 rlineto
        -19 44 -9 62 86 vvcurveto
        185 48 57 102 23 20 -4 -6 18 vhcurveto
        -127 -490 rmoveto
        188 437 rlineto
        26 -43 12 -68 -99 vvcurveto
        -186 -46 -58 -102 -30 -26 5 12 -22 vhcurveto
        endchar
      </CharString>
      <CharString index="55">
        -24 41 rlineto
        -11 -18 -19 -9 -15 hhcurveto
        -26 -9 15 19 return
      </CharString>
      <CharString index="56">
        80 -19 rlineto
        return
      </CharString>
      <CharString index="57">
        rmoveto
        -62 255 62 vlineto
        -77 11 9 19 71 162 rlineto
        165 hlineto
        16 -179 -78 -19 5 -56 rlineto
        495 hlineto
        -18 197 rlineto
        -64 hlineto
        -17 -121 rlineto
        -138 hlineto
        -43 hlineto
        -16 182 rlineto
        91 hlineto
        29 -76 rlineto
        53 hlineto
        -20 221 rlineto
        -53 hlineto
        -16 -69 rlineto
        -91 hlineto
        -20 231 43 7 rlineto
        121 hlineto
        37 -14 callgsubr
        66 hlineto
        -16 188 rlineto
        -447 hlineto
        -268 -574 rlineto
        342 260 rmoveto
        -123 hlineto
        102 231 rlineto
        endchar
      </CharString>
      <CharString index="58">
        -56 -30 callgsubr
        return
      </CharString>
      <CharString index="59">
        rmoveto
        169 111 rlineto
        47 -6 -25 26 -25 hhcurveto
        -21 -14 -15 -16 -14 hvcurveto
        -99 -111 rlineto
        return
      </CharString>
      <CharString index="60">
        rmoveto
        -66 -31 36 126 140 33 48 64 30 27 -6 -5 19 hvcurveto
        -319 vlineto
        -10 -18 -25 -10 -33 hhcurveto
        return
      </CharString>
      <CharString index="61">
        rmoveto
        -111 -51 73 202 185 48 57 102 110 50 -72 -201 -186 -46 -58 -102 hvcurveto
        endchar
      </CharString>
      <CharString index="62">
        -19 219 -12 rmoveto
        73 43 30 23 22 hvcurveto
        2 hlineto
        23 -35 callsubr
        return
      </CharString>
      <CharString index="63">
        691 -103 callsubr
        return
      </CharString>
      <CharString index="64">
        667 rmoveto
        147 126 rlineto
        43 -8 -20 37 -41 hhcurveto
        -27 -10 -19 -27 -20 hvcurveto
        -71 -114 rlineto
        return
      </CharString>
      <CharString index="65">
        -91 callsubr
        endchar
      </CharString>
      <CharString index="66">
        rmoveto
        116 127 47 165 117 -91 47 -114 46 hvcurveto
        -67 27 -53 return
      </CharString>
      <CharString index="67">
        -194 rmoveto
        82 42 31 59 46 -27 13 -41 10 hvcurveto
        -21 5 rlineto
        return
      </CharString>
      <CharString index="68">
        109 72 70 0 hvcurveto
        return
      </CharString>
      <CharString index="69">
        -92 callgsubr
        endchar
      </CharString>
      <CharString index="70">
        -19 93 -163 rmoveto
        71 10 -11 125 -1 7 -2 8 -3 7 rlinecurve
        -4 16 19 -2 22 hhcurveto
        47 61 22 31 36 hvcurveto
        13 hlineto
        -35 12 20 -12 48 hhcurveto
        30 46 9 13 36 hvcurveto
        51 -20 callgsubr
        411 vlineto
        -38 14 -94 -12 rlineto
        -400 vlineto
        -10 -17 -32 -8 -25 27 callgsubr
        -95 -12 rlineto
        -643 vlineto
        endchar
      </CharString>
      <CharString index="71">
        rmoveto
        19 19 88 97 73 vvcurveto
        41 -29 32 -44 -37 -22 -23 -26 -12 vhcurveto
        17 -15 15 -23 -32 vvcurveto
        -29 -12 -50 -20 -48 vhcurveto
        return
      </CharString>
      <CharString index="72">
        -20 hhcurveto
        -29 -27 -12 -28 -17 hvcurveto
        return
      </CharString>
      <CharString index="73">
        100 -33 rlineto
        -8 24 13 -3 20 hhcurveto
        return
      </CharString>
      <CharString index="74">
        rmoveto
        6 -108 rlineto
        76 hlineto
        5 107 rlineto
        85 10 49 40 0 vvcurveto
        61 vlineto
        0 -62 -22 -64 -118 -20 59 140 137 41 37 70 39 23 -17 0 vhcurveto
        17 -87 rlineto
        73 161 hlineto
        -1 1 -57 21 -75 3 -5 103 rcurveline
        -77 hlineto
        -6 -111 rlineto
        -100 -24 -85 -78 -175 vvcurveto
        -161 57 -82 129 -15 vhcurveto
        endchar
      </CharString>
      <CharString index="75">
        hhcurveto
        -184 -71 -133 -138 -158 62 -96 170 return
      </CharString>
      <CharString index="76">
        -40 callsubr
        rlineto
        return
      </CharString>
      <CharString index="77">
        vlineto
        -51 callgsubr
        return
      </CharString>
      <CharString index="78">
        134 44 56 rmoveto
        -56 319 vlineto
        191 132 131 201 212 -120 104 -209 hvcurveto
        -313 -56 hlineto
        -51 callgsubr
        -200 -84 -77 84 -221 vlineto
        142 1 rmoveto
        220 119 77 -119 199 52 vlineto
        109 96 -27 -202 -213 -44 -54 -181 hvcurveto
        endchar
      </CharString>
      <CharString index="79">
        rmoveto
        -23 -119 rlineto
        -10 -22 -37 -13 -49 hhcurveto
        -109 -54 45 209 197 41 66 121 46 38 -11 -7 22 hvcurveto
        21 -105 rlineto
        72 180 hlineto
        10 -37 -76 17 -88 hhcurveto
        -191 -132 -149 -201 -212 99 -122 201 120 69 28 17 39 hvcurveto
        180 vlineto
        endchar
      </CharString>
      <CharString index="80">
        -28 callsubr
        216 13 vlineto
        166 -246 rlineto
        -28 19 15 -17 34 hhcurveto
        150 56 hlineto
        -81 20 -193 280 176 217 69 -47 callsubr
        -233 -56 vlineto
        48 -12 rlineto
        -17 vlineto
        -168 -207 rlineto
        -15 217 hlineto
        -88 callsubr
        -498 vlineto
        return
      </CharString>
      <CharString index="81">
        175 4 callsubr
        221 248 -221 vlineto
        -80 -19 rlineto
        -84 callsubr
        -200 -248 200 -57 callsubr
        return
      </CharString>
      <CharString index="82">
        -111 -35 34 175 vhcurveto
        -31 callsubr
      </CharString>
      <CharString index="83">
        8 callsubr
        2 hlineto
        23 -60 callsubr
        return
      </CharString>
      <CharString index="84">
        35 hmoveto
        -96 callsubr
        return
      </CharString>
      <CharString index="85">
        rmoveto
        -6 callgsubr
        83 39 37 53 vhcurveto
        -55 callsubr
        endchar
      </CharString>
      <CharString index="86">
        vvcurveto
        -49 41 -25 56 66 41 51 0 vhcurveto
        return
      </CharString>
      <CharString index="87">
        vlineto
        -73 14 rlineto
        return
      </CharString>
      <CharString index="88">
        -276 147 -77 callsubr
        -128 -506 rmoveto
        -55 281 55 vlineto
        -21 callsubr
        return
      </CharString>
      <CharString index="89">
        302 -10 callgsubr
        return
      </CharString>
      <CharString index="90">
        rmoveto
        -55 281 55 vlineto
        -7 callsubr
        return
      </CharString>
</ttFont>
